%TF.GenerationSoftware,KiCad,Pcbnew,9.0.6*%
%TF.CreationDate,2026-07-15T23:24:00+05:30*%
%TF.ProjectId,HandheldGamingConsole,48616e64-6865-46c6-9447-616d696e6743,rev?*%
%TF.SameCoordinates,Original*%
%TF.FileFunction,Legend,Top*%
%TF.FilePolarity,Positive*%
%FSLAX46Y46*%
G04 Gerber Fmt 4.6, Leading zero omitted, Abs format (unit mm)*
G04 Created by KiCad (PCBNEW 9.0.6) date 2026-07-15 23:24:00*
%MOMM*%
%LPD*%
G01*
G04 APERTURE LIST*
%ADD10C,0.250000*%
%ADD11C,0.150000*%
%ADD12C,0.120000*%
%ADD13C,0.000000*%
%ADD14C,0.127000*%
%ADD15C,0.200000*%
G04 APERTURE END LIST*
D10*
X167942238Y-42259336D02*
X165942238Y-42259336D01*
X166894619Y-42259336D02*
X166894619Y-41116479D01*
X167942238Y-41116479D02*
X165942238Y-41116479D01*
X167942238Y-40164098D02*
X166608904Y-40164098D01*
X166989857Y-40164098D02*
X166799380Y-40068860D01*
X166799380Y-40068860D02*
X166704142Y-39973622D01*
X166704142Y-39973622D02*
X166608904Y-39783146D01*
X166608904Y-39783146D02*
X166608904Y-39592669D01*
X167942238Y-38926003D02*
X166608904Y-38926003D01*
X165942238Y-38926003D02*
X166037476Y-39021241D01*
X166037476Y-39021241D02*
X166132714Y-38926003D01*
X166132714Y-38926003D02*
X166037476Y-38830765D01*
X166037476Y-38830765D02*
X165942238Y-38926003D01*
X165942238Y-38926003D02*
X166132714Y-38926003D01*
X167942238Y-37116479D02*
X165942238Y-37116479D01*
X167847000Y-37116479D02*
X167942238Y-37306955D01*
X167942238Y-37306955D02*
X167942238Y-37687908D01*
X167942238Y-37687908D02*
X167847000Y-37878384D01*
X167847000Y-37878384D02*
X167751761Y-37973622D01*
X167751761Y-37973622D02*
X167561285Y-38068860D01*
X167561285Y-38068860D02*
X166989857Y-38068860D01*
X166989857Y-38068860D02*
X166799380Y-37973622D01*
X166799380Y-37973622D02*
X166704142Y-37878384D01*
X166704142Y-37878384D02*
X166608904Y-37687908D01*
X166608904Y-37687908D02*
X166608904Y-37306955D01*
X166608904Y-37306955D02*
X166704142Y-37116479D01*
X167942238Y-35306955D02*
X166894619Y-35306955D01*
X166894619Y-35306955D02*
X166704142Y-35402193D01*
X166704142Y-35402193D02*
X166608904Y-35592669D01*
X166608904Y-35592669D02*
X166608904Y-35973622D01*
X166608904Y-35973622D02*
X166704142Y-36164098D01*
X167847000Y-35306955D02*
X167942238Y-35497431D01*
X167942238Y-35497431D02*
X167942238Y-35973622D01*
X167942238Y-35973622D02*
X167847000Y-36164098D01*
X167847000Y-36164098D02*
X167656523Y-36259336D01*
X167656523Y-36259336D02*
X167466047Y-36259336D01*
X167466047Y-36259336D02*
X167275571Y-36164098D01*
X167275571Y-36164098D02*
X167180333Y-35973622D01*
X167180333Y-35973622D02*
X167180333Y-35497431D01*
X167180333Y-35497431D02*
X167085095Y-35306955D01*
X166608904Y-34545050D02*
X167942238Y-34068860D01*
X166608904Y-33592669D02*
X167942238Y-34068860D01*
X167942238Y-34068860D02*
X168418428Y-34259336D01*
X168418428Y-34259336D02*
X168513666Y-34354574D01*
X168513666Y-34354574D02*
X168608904Y-34545050D01*
X166608904Y-29783145D02*
X167180333Y-31306954D01*
X167180333Y-31306954D02*
X167751761Y-29783145D01*
X165942238Y-29021240D02*
X165942238Y-27783145D01*
X165942238Y-27783145D02*
X166704142Y-28449812D01*
X166704142Y-28449812D02*
X166704142Y-28164097D01*
X166704142Y-28164097D02*
X166799380Y-27973621D01*
X166799380Y-27973621D02*
X166894619Y-27878383D01*
X166894619Y-27878383D02*
X167085095Y-27783145D01*
X167085095Y-27783145D02*
X167561285Y-27783145D01*
X167561285Y-27783145D02*
X167751761Y-27878383D01*
X167751761Y-27878383D02*
X167847000Y-27973621D01*
X167847000Y-27973621D02*
X167942238Y-28164097D01*
X167942238Y-28164097D02*
X167942238Y-28735526D01*
X167942238Y-28735526D02*
X167847000Y-28926002D01*
X167847000Y-28926002D02*
X167751761Y-29021240D01*
X167842238Y-99359336D02*
X165842238Y-99359336D01*
X165842238Y-99359336D02*
X167270809Y-98692669D01*
X167270809Y-98692669D02*
X165842238Y-98026003D01*
X165842238Y-98026003D02*
X167842238Y-98026003D01*
X165842238Y-97073622D02*
X167461285Y-97073622D01*
X167461285Y-97073622D02*
X167651761Y-96978384D01*
X167651761Y-96978384D02*
X167747000Y-96883146D01*
X167747000Y-96883146D02*
X167842238Y-96692670D01*
X167842238Y-96692670D02*
X167842238Y-96311717D01*
X167842238Y-96311717D02*
X167747000Y-96121241D01*
X167747000Y-96121241D02*
X167651761Y-96026003D01*
X167651761Y-96026003D02*
X167461285Y-95930765D01*
X167461285Y-95930765D02*
X165842238Y-95930765D01*
X166794619Y-94978384D02*
X166794619Y-94311717D01*
X167842238Y-94026003D02*
X167842238Y-94978384D01*
X167842238Y-94978384D02*
X165842238Y-94978384D01*
X165842238Y-94978384D02*
X165842238Y-94026003D01*
X167842238Y-93168860D02*
X165842238Y-93168860D01*
X166794619Y-93168860D02*
X166794619Y-92026003D01*
X167842238Y-92026003D02*
X165842238Y-92026003D01*
X166794619Y-91073622D02*
X166794619Y-90406955D01*
X167842238Y-90121241D02*
X167842238Y-91073622D01*
X167842238Y-91073622D02*
X165842238Y-91073622D01*
X165842238Y-91073622D02*
X165842238Y-90121241D01*
X167842238Y-89264098D02*
X165842238Y-89264098D01*
X166794619Y-89264098D02*
X166794619Y-88121241D01*
X167842238Y-88121241D02*
X165842238Y-88121241D01*
X166794619Y-87168860D02*
X166794619Y-86502193D01*
X167842238Y-86216479D02*
X167842238Y-87168860D01*
X167842238Y-87168860D02*
X165842238Y-87168860D01*
X165842238Y-87168860D02*
X165842238Y-86216479D01*
X167842238Y-85359336D02*
X165842238Y-85359336D01*
X166794619Y-85359336D02*
X166794619Y-84216479D01*
X167842238Y-84216479D02*
X165842238Y-84216479D01*
X166794619Y-83264098D02*
X166794619Y-82597431D01*
X167842238Y-82311717D02*
X167842238Y-83264098D01*
X167842238Y-83264098D02*
X165842238Y-83264098D01*
X165842238Y-83264098D02*
X165842238Y-82311717D01*
X167842238Y-81454574D02*
X165842238Y-81454574D01*
X166794619Y-81454574D02*
X166794619Y-80311717D01*
X167842238Y-80311717D02*
X165842238Y-80311717D01*
X166794619Y-79359336D02*
X166794619Y-78692669D01*
X167842238Y-78406955D02*
X167842238Y-79359336D01*
X167842238Y-79359336D02*
X165842238Y-79359336D01*
X165842238Y-79359336D02*
X165842238Y-78406955D01*
X167651761Y-77549812D02*
X167747000Y-77454574D01*
X167747000Y-77454574D02*
X167842238Y-77549812D01*
X167842238Y-77549812D02*
X167747000Y-77645050D01*
X167747000Y-77645050D02*
X167651761Y-77549812D01*
X167651761Y-77549812D02*
X167842238Y-77549812D01*
D11*
X142842857Y-82880819D02*
X142842857Y-81880819D01*
X142842857Y-81880819D02*
X143080952Y-81880819D01*
X143080952Y-81880819D02*
X143223809Y-81928438D01*
X143223809Y-81928438D02*
X143319047Y-82023676D01*
X143319047Y-82023676D02*
X143366666Y-82118914D01*
X143366666Y-82118914D02*
X143414285Y-82309390D01*
X143414285Y-82309390D02*
X143414285Y-82452247D01*
X143414285Y-82452247D02*
X143366666Y-82642723D01*
X143366666Y-82642723D02*
X143319047Y-82737961D01*
X143319047Y-82737961D02*
X143223809Y-82833200D01*
X143223809Y-82833200D02*
X143080952Y-82880819D01*
X143080952Y-82880819D02*
X142842857Y-82880819D01*
X144033333Y-81880819D02*
X144223809Y-81880819D01*
X144223809Y-81880819D02*
X144319047Y-81928438D01*
X144319047Y-81928438D02*
X144414285Y-82023676D01*
X144414285Y-82023676D02*
X144461904Y-82214152D01*
X144461904Y-82214152D02*
X144461904Y-82547485D01*
X144461904Y-82547485D02*
X144414285Y-82737961D01*
X144414285Y-82737961D02*
X144319047Y-82833200D01*
X144319047Y-82833200D02*
X144223809Y-82880819D01*
X144223809Y-82880819D02*
X144033333Y-82880819D01*
X144033333Y-82880819D02*
X143938095Y-82833200D01*
X143938095Y-82833200D02*
X143842857Y-82737961D01*
X143842857Y-82737961D02*
X143795238Y-82547485D01*
X143795238Y-82547485D02*
X143795238Y-82214152D01*
X143795238Y-82214152D02*
X143842857Y-82023676D01*
X143842857Y-82023676D02*
X143938095Y-81928438D01*
X143938095Y-81928438D02*
X144033333Y-81880819D01*
X144795238Y-81880819D02*
X145033333Y-82880819D01*
X145033333Y-82880819D02*
X145223809Y-82166533D01*
X145223809Y-82166533D02*
X145414285Y-82880819D01*
X145414285Y-82880819D02*
X145652381Y-81880819D01*
X146033333Y-82880819D02*
X146033333Y-81880819D01*
X146033333Y-81880819D02*
X146604761Y-82880819D01*
X146604761Y-82880819D02*
X146604761Y-81880819D01*
X147604761Y-82880819D02*
X147033333Y-82880819D01*
X147319047Y-82880819D02*
X147319047Y-81880819D01*
X147319047Y-81880819D02*
X147223809Y-82023676D01*
X147223809Y-82023676D02*
X147128571Y-82118914D01*
X147128571Y-82118914D02*
X147033333Y-82166533D01*
X83305714Y-59133200D02*
X83448571Y-59180819D01*
X83448571Y-59180819D02*
X83686666Y-59180819D01*
X83686666Y-59180819D02*
X83781904Y-59133200D01*
X83781904Y-59133200D02*
X83829523Y-59085580D01*
X83829523Y-59085580D02*
X83877142Y-58990342D01*
X83877142Y-58990342D02*
X83877142Y-58895104D01*
X83877142Y-58895104D02*
X83829523Y-58799866D01*
X83829523Y-58799866D02*
X83781904Y-58752247D01*
X83781904Y-58752247D02*
X83686666Y-58704628D01*
X83686666Y-58704628D02*
X83496190Y-58657009D01*
X83496190Y-58657009D02*
X83400952Y-58609390D01*
X83400952Y-58609390D02*
X83353333Y-58561771D01*
X83353333Y-58561771D02*
X83305714Y-58466533D01*
X83305714Y-58466533D02*
X83305714Y-58371295D01*
X83305714Y-58371295D02*
X83353333Y-58276057D01*
X83353333Y-58276057D02*
X83400952Y-58228438D01*
X83400952Y-58228438D02*
X83496190Y-58180819D01*
X83496190Y-58180819D02*
X83734285Y-58180819D01*
X83734285Y-58180819D02*
X83877142Y-58228438D01*
X84305714Y-59180819D02*
X84305714Y-58180819D01*
X84305714Y-58657009D02*
X84877142Y-58657009D01*
X84877142Y-59180819D02*
X84877142Y-58180819D01*
X85543809Y-58180819D02*
X85734285Y-58180819D01*
X85734285Y-58180819D02*
X85829523Y-58228438D01*
X85829523Y-58228438D02*
X85924761Y-58323676D01*
X85924761Y-58323676D02*
X85972380Y-58514152D01*
X85972380Y-58514152D02*
X85972380Y-58847485D01*
X85972380Y-58847485D02*
X85924761Y-59037961D01*
X85924761Y-59037961D02*
X85829523Y-59133200D01*
X85829523Y-59133200D02*
X85734285Y-59180819D01*
X85734285Y-59180819D02*
X85543809Y-59180819D01*
X85543809Y-59180819D02*
X85448571Y-59133200D01*
X85448571Y-59133200D02*
X85353333Y-59037961D01*
X85353333Y-59037961D02*
X85305714Y-58847485D01*
X85305714Y-58847485D02*
X85305714Y-58514152D01*
X85305714Y-58514152D02*
X85353333Y-58323676D01*
X85353333Y-58323676D02*
X85448571Y-58228438D01*
X85448571Y-58228438D02*
X85543809Y-58180819D01*
X86591428Y-58180819D02*
X86781904Y-58180819D01*
X86781904Y-58180819D02*
X86877142Y-58228438D01*
X86877142Y-58228438D02*
X86972380Y-58323676D01*
X86972380Y-58323676D02*
X87019999Y-58514152D01*
X87019999Y-58514152D02*
X87019999Y-58847485D01*
X87019999Y-58847485D02*
X86972380Y-59037961D01*
X86972380Y-59037961D02*
X86877142Y-59133200D01*
X86877142Y-59133200D02*
X86781904Y-59180819D01*
X86781904Y-59180819D02*
X86591428Y-59180819D01*
X86591428Y-59180819D02*
X86496190Y-59133200D01*
X86496190Y-59133200D02*
X86400952Y-59037961D01*
X86400952Y-59037961D02*
X86353333Y-58847485D01*
X86353333Y-58847485D02*
X86353333Y-58514152D01*
X86353333Y-58514152D02*
X86400952Y-58323676D01*
X86400952Y-58323676D02*
X86496190Y-58228438D01*
X86496190Y-58228438D02*
X86591428Y-58180819D01*
X87305714Y-58180819D02*
X87877142Y-58180819D01*
X87591428Y-59180819D02*
X87591428Y-58180819D01*
X88734285Y-59180819D02*
X88162857Y-59180819D01*
X88448571Y-59180819D02*
X88448571Y-58180819D01*
X88448571Y-58180819D02*
X88353333Y-58323676D01*
X88353333Y-58323676D02*
X88258095Y-58418914D01*
X88258095Y-58418914D02*
X88162857Y-58466533D01*
X155938095Y-58580819D02*
X155938095Y-59390342D01*
X155938095Y-59390342D02*
X155985714Y-59485580D01*
X155985714Y-59485580D02*
X156033333Y-59533200D01*
X156033333Y-59533200D02*
X156128571Y-59580819D01*
X156128571Y-59580819D02*
X156319047Y-59580819D01*
X156319047Y-59580819D02*
X156414285Y-59533200D01*
X156414285Y-59533200D02*
X156461904Y-59485580D01*
X156461904Y-59485580D02*
X156509523Y-59390342D01*
X156509523Y-59390342D02*
X156509523Y-58580819D01*
X156985714Y-59580819D02*
X156985714Y-58580819D01*
X156985714Y-58580819D02*
X157366666Y-58580819D01*
X157366666Y-58580819D02*
X157461904Y-58628438D01*
X157461904Y-58628438D02*
X157509523Y-58676057D01*
X157509523Y-58676057D02*
X157557142Y-58771295D01*
X157557142Y-58771295D02*
X157557142Y-58914152D01*
X157557142Y-58914152D02*
X157509523Y-59009390D01*
X157509523Y-59009390D02*
X157461904Y-59057009D01*
X157461904Y-59057009D02*
X157366666Y-59104628D01*
X157366666Y-59104628D02*
X156985714Y-59104628D01*
X158509523Y-59580819D02*
X157938095Y-59580819D01*
X158223809Y-59580819D02*
X158223809Y-58580819D01*
X158223809Y-58580819D02*
X158128571Y-58723676D01*
X158128571Y-58723676D02*
X158033333Y-58818914D01*
X158033333Y-58818914D02*
X157938095Y-58866533D01*
X96023809Y-82357009D02*
X96357142Y-82357009D01*
X96499999Y-82880819D02*
X96023809Y-82880819D01*
X96023809Y-82880819D02*
X96023809Y-81880819D01*
X96023809Y-81880819D02*
X96499999Y-81880819D01*
X96833333Y-81880819D02*
X97499999Y-82880819D01*
X97499999Y-81880819D02*
X96833333Y-82880819D01*
X97738095Y-81880819D02*
X98309523Y-81880819D01*
X98023809Y-82880819D02*
X98023809Y-81880819D01*
X99214285Y-82880819D02*
X98880952Y-82404628D01*
X98642857Y-82880819D02*
X98642857Y-81880819D01*
X98642857Y-81880819D02*
X99023809Y-81880819D01*
X99023809Y-81880819D02*
X99119047Y-81928438D01*
X99119047Y-81928438D02*
X99166666Y-81976057D01*
X99166666Y-81976057D02*
X99214285Y-82071295D01*
X99214285Y-82071295D02*
X99214285Y-82214152D01*
X99214285Y-82214152D02*
X99166666Y-82309390D01*
X99166666Y-82309390D02*
X99119047Y-82357009D01*
X99119047Y-82357009D02*
X99023809Y-82404628D01*
X99023809Y-82404628D02*
X98642857Y-82404628D01*
X99595238Y-82595104D02*
X100071428Y-82595104D01*
X99500000Y-82880819D02*
X99833333Y-81880819D01*
X99833333Y-81880819D02*
X100166666Y-82880819D01*
X101023809Y-82880819D02*
X100452381Y-82880819D01*
X100738095Y-82880819D02*
X100738095Y-81880819D01*
X100738095Y-81880819D02*
X100642857Y-82023676D01*
X100642857Y-82023676D02*
X100547619Y-82118914D01*
X100547619Y-82118914D02*
X100452381Y-82166533D01*
X147824047Y-28666009D02*
X147966904Y-28713628D01*
X147966904Y-28713628D02*
X148014523Y-28761247D01*
X148014523Y-28761247D02*
X148062142Y-28856485D01*
X148062142Y-28856485D02*
X148062142Y-28999342D01*
X148062142Y-28999342D02*
X148014523Y-29094580D01*
X148014523Y-29094580D02*
X147966904Y-29142200D01*
X147966904Y-29142200D02*
X147871666Y-29189819D01*
X147871666Y-29189819D02*
X147490714Y-29189819D01*
X147490714Y-29189819D02*
X147490714Y-28189819D01*
X147490714Y-28189819D02*
X147824047Y-28189819D01*
X147824047Y-28189819D02*
X147919285Y-28237438D01*
X147919285Y-28237438D02*
X147966904Y-28285057D01*
X147966904Y-28285057D02*
X148014523Y-28380295D01*
X148014523Y-28380295D02*
X148014523Y-28475533D01*
X148014523Y-28475533D02*
X147966904Y-28570771D01*
X147966904Y-28570771D02*
X147919285Y-28618390D01*
X147919285Y-28618390D02*
X147824047Y-28666009D01*
X147824047Y-28666009D02*
X147490714Y-28666009D01*
X148395476Y-28189819D02*
X149062142Y-28189819D01*
X149062142Y-28189819D02*
X148395476Y-29189819D01*
X148395476Y-29189819D02*
X149062142Y-29189819D01*
X149966904Y-29189819D02*
X149395476Y-29189819D01*
X149681190Y-29189819D02*
X149681190Y-28189819D01*
X149681190Y-28189819D02*
X149585952Y-28332676D01*
X149585952Y-28332676D02*
X149490714Y-28427914D01*
X149490714Y-28427914D02*
X149395476Y-28475533D01*
X110713095Y-47497319D02*
X110713095Y-48306842D01*
X110713095Y-48306842D02*
X110760714Y-48402080D01*
X110760714Y-48402080D02*
X110808333Y-48449700D01*
X110808333Y-48449700D02*
X110903571Y-48497319D01*
X110903571Y-48497319D02*
X111094047Y-48497319D01*
X111094047Y-48497319D02*
X111189285Y-48449700D01*
X111189285Y-48449700D02*
X111236904Y-48402080D01*
X111236904Y-48402080D02*
X111284523Y-48306842D01*
X111284523Y-48306842D02*
X111284523Y-47497319D01*
X112284523Y-48497319D02*
X111713095Y-48497319D01*
X111998809Y-48497319D02*
X111998809Y-47497319D01*
X111998809Y-47497319D02*
X111903571Y-47640176D01*
X111903571Y-47640176D02*
X111808333Y-47735414D01*
X111808333Y-47735414D02*
X111713095Y-47783033D01*
X124289104Y-36794285D02*
X124289104Y-36318095D01*
X124574819Y-36889523D02*
X123574819Y-36556190D01*
X123574819Y-36556190D02*
X124574819Y-36222857D01*
X124574819Y-35365714D02*
X124574819Y-35937142D01*
X124574819Y-35651428D02*
X123574819Y-35651428D01*
X123574819Y-35651428D02*
X123717676Y-35746666D01*
X123717676Y-35746666D02*
X123812914Y-35841904D01*
X123812914Y-35841904D02*
X123860533Y-35937142D01*
X84025180Y-34818095D02*
X83215657Y-34818095D01*
X83215657Y-34818095D02*
X83120419Y-34865714D01*
X83120419Y-34865714D02*
X83072800Y-34913333D01*
X83072800Y-34913333D02*
X83025180Y-35008571D01*
X83025180Y-35008571D02*
X83025180Y-35199047D01*
X83025180Y-35199047D02*
X83072800Y-35294285D01*
X83072800Y-35294285D02*
X83120419Y-35341904D01*
X83120419Y-35341904D02*
X83215657Y-35389523D01*
X83215657Y-35389523D02*
X84025180Y-35389523D01*
X83072800Y-35818095D02*
X83025180Y-35960952D01*
X83025180Y-35960952D02*
X83025180Y-36199047D01*
X83025180Y-36199047D02*
X83072800Y-36294285D01*
X83072800Y-36294285D02*
X83120419Y-36341904D01*
X83120419Y-36341904D02*
X83215657Y-36389523D01*
X83215657Y-36389523D02*
X83310895Y-36389523D01*
X83310895Y-36389523D02*
X83406133Y-36341904D01*
X83406133Y-36341904D02*
X83453752Y-36294285D01*
X83453752Y-36294285D02*
X83501371Y-36199047D01*
X83501371Y-36199047D02*
X83548990Y-36008571D01*
X83548990Y-36008571D02*
X83596609Y-35913333D01*
X83596609Y-35913333D02*
X83644228Y-35865714D01*
X83644228Y-35865714D02*
X83739466Y-35818095D01*
X83739466Y-35818095D02*
X83834704Y-35818095D01*
X83834704Y-35818095D02*
X83929942Y-35865714D01*
X83929942Y-35865714D02*
X83977561Y-35913333D01*
X83977561Y-35913333D02*
X84025180Y-36008571D01*
X84025180Y-36008571D02*
X84025180Y-36246666D01*
X84025180Y-36246666D02*
X83977561Y-36389523D01*
X83548990Y-37151428D02*
X83501371Y-37294285D01*
X83501371Y-37294285D02*
X83453752Y-37341904D01*
X83453752Y-37341904D02*
X83358514Y-37389523D01*
X83358514Y-37389523D02*
X83215657Y-37389523D01*
X83215657Y-37389523D02*
X83120419Y-37341904D01*
X83120419Y-37341904D02*
X83072800Y-37294285D01*
X83072800Y-37294285D02*
X83025180Y-37199047D01*
X83025180Y-37199047D02*
X83025180Y-36818095D01*
X83025180Y-36818095D02*
X84025180Y-36818095D01*
X84025180Y-36818095D02*
X84025180Y-37151428D01*
X84025180Y-37151428D02*
X83977561Y-37246666D01*
X83977561Y-37246666D02*
X83929942Y-37294285D01*
X83929942Y-37294285D02*
X83834704Y-37341904D01*
X83834704Y-37341904D02*
X83739466Y-37341904D01*
X83739466Y-37341904D02*
X83644228Y-37294285D01*
X83644228Y-37294285D02*
X83596609Y-37246666D01*
X83596609Y-37246666D02*
X83548990Y-37151428D01*
X83548990Y-37151428D02*
X83548990Y-36818095D01*
D12*
%TO.C,DOWN1*%
X138215000Y-83315000D02*
X152185000Y-83315000D01*
X138215000Y-97285000D02*
X138215000Y-83315000D01*
X152185000Y-83315000D02*
X152185000Y-97285000D01*
X152185000Y-97285000D02*
X138215000Y-97285000D01*
%TO.C,SHOOT1*%
X79035000Y-59615000D02*
X93005000Y-59615000D01*
X79035000Y-73585000D02*
X79035000Y-59615000D01*
X93005000Y-59615000D02*
X93005000Y-73585000D01*
X93005000Y-73585000D02*
X79035000Y-73585000D01*
D13*
%TO.C,G\u002A\u002A\u002A*%
G36*
X119774002Y-86580058D02*
G01*
X119755243Y-86598818D01*
X119736484Y-86580058D01*
X119755243Y-86561299D01*
X119774002Y-86580058D01*
G37*
G36*
X119774002Y-86730132D02*
G01*
X119755243Y-86748891D01*
X119736484Y-86730132D01*
X119755243Y-86711373D01*
X119774002Y-86730132D01*
G37*
G36*
X120561890Y-86542540D02*
G01*
X120543130Y-86561299D01*
X120524371Y-86542540D01*
X120543130Y-86523781D01*
X120561890Y-86542540D01*
G37*
G36*
X120937074Y-86767651D02*
G01*
X120918315Y-86786410D01*
X120899556Y-86767651D01*
X120918315Y-86748891D01*
X120937074Y-86767651D01*
G37*
G36*
X120974593Y-85379468D02*
G01*
X120955834Y-85398227D01*
X120937074Y-85379468D01*
X120955834Y-85360708D01*
X120974593Y-85379468D01*
G37*
G36*
X121049630Y-88193352D02*
G01*
X121030871Y-88212112D01*
X121012111Y-88193352D01*
X121030871Y-88174593D01*
X121049630Y-88193352D01*
G37*
G36*
X121162185Y-85379468D02*
G01*
X121143426Y-85398227D01*
X121124667Y-85379468D01*
X121143426Y-85360708D01*
X121162185Y-85379468D01*
G37*
G36*
X121237222Y-85416986D02*
G01*
X121218463Y-85435745D01*
X121199704Y-85416986D01*
X121218463Y-85398227D01*
X121237222Y-85416986D01*
G37*
G36*
X121237222Y-85529541D02*
G01*
X121218463Y-85548301D01*
X121199704Y-85529541D01*
X121218463Y-85510782D01*
X121237222Y-85529541D01*
G37*
G36*
X121237222Y-87855686D02*
G01*
X121218463Y-87874445D01*
X121199704Y-87855686D01*
X121218463Y-87836927D01*
X121237222Y-87855686D01*
G37*
G36*
X121799999Y-86242392D02*
G01*
X121781240Y-86261151D01*
X121762481Y-86242392D01*
X121781240Y-86223633D01*
X121799999Y-86242392D01*
G37*
G36*
X121912554Y-86242392D02*
G01*
X121893795Y-86261151D01*
X121875036Y-86242392D01*
X121893795Y-86223633D01*
X121912554Y-86242392D01*
G37*
G36*
X121987591Y-86242392D02*
G01*
X121968832Y-86261151D01*
X121950073Y-86242392D01*
X121968832Y-86223633D01*
X121987591Y-86242392D01*
G37*
G36*
X125514327Y-85717134D02*
G01*
X125495568Y-85735893D01*
X125476808Y-85717134D01*
X125495568Y-85698374D01*
X125514327Y-85717134D01*
G37*
G36*
X126114622Y-85717134D02*
G01*
X126095863Y-85735893D01*
X126077104Y-85717134D01*
X126095863Y-85698374D01*
X126114622Y-85717134D01*
G37*
G36*
X119573904Y-88374692D02*
G01*
X119568753Y-88396996D01*
X119548891Y-88399704D01*
X119518009Y-88385976D01*
X119523879Y-88374692D01*
X119568405Y-88370201D01*
X119573904Y-88374692D01*
G37*
G36*
X119761496Y-86461250D02*
G01*
X119765986Y-86505776D01*
X119761496Y-86511275D01*
X119739191Y-86506124D01*
X119736484Y-86486262D01*
X119750211Y-86455380D01*
X119761496Y-86461250D01*
G37*
G36*
X120361791Y-85035548D02*
G01*
X120356641Y-85057853D01*
X120336779Y-85060561D01*
X120305897Y-85046833D01*
X120311767Y-85035548D01*
X120356292Y-85031058D01*
X120361791Y-85035548D01*
G37*
G36*
X120399310Y-86498768D02*
G01*
X120403800Y-86543294D01*
X120399310Y-86548793D01*
X120377005Y-86543643D01*
X120374297Y-86523781D01*
X120388025Y-86492899D01*
X120399310Y-86498768D01*
G37*
G36*
X121037124Y-87849433D02*
G01*
X121031973Y-87871738D01*
X121012111Y-87874445D01*
X120981229Y-87860718D01*
X120987099Y-87849433D01*
X121031625Y-87844943D01*
X121037124Y-87849433D01*
G37*
G36*
X107130280Y-89225110D02*
G01*
X107130280Y-89412702D01*
X106961447Y-89412702D01*
X106792614Y-89412702D01*
X106792614Y-89225110D01*
X106792614Y-89037518D01*
X106961447Y-89037518D01*
X107130280Y-89037518D01*
X107130280Y-89225110D01*
G37*
G36*
X108631018Y-81756975D02*
G01*
X108631018Y-81946528D01*
X108432537Y-81946528D01*
X108234056Y-81946528D01*
X108240982Y-81768315D01*
X108247908Y-81590103D01*
X108439463Y-81578762D01*
X108631018Y-81567422D01*
X108631018Y-81756975D01*
G37*
G36*
X111219792Y-95190546D02*
G01*
X111219792Y-95378138D01*
X111032200Y-95378138D01*
X110844608Y-95378138D01*
X110844608Y-95190546D01*
X110844608Y-95002953D01*
X111032200Y-95002953D01*
X111219792Y-95002953D01*
X111219792Y-95190546D01*
G37*
G36*
X113470900Y-83634859D02*
G01*
X113470900Y-83822451D01*
X113283308Y-83822451D01*
X113095715Y-83822451D01*
X113095715Y-83634859D01*
X113095715Y-83447267D01*
X113283308Y-83447267D01*
X113470900Y-83447267D01*
X113470900Y-83634859D01*
G37*
G36*
X114971639Y-89225110D02*
G01*
X114971639Y-89412702D01*
X114784046Y-89412702D01*
X114596454Y-89412702D01*
X114596454Y-89225110D01*
X114596454Y-89037518D01*
X114784046Y-89037518D01*
X114971639Y-89037518D01*
X114971639Y-89225110D01*
G37*
G36*
X117185228Y-92207828D02*
G01*
X117185228Y-92376661D01*
X117016395Y-92376661D01*
X116847562Y-92376661D01*
X116847562Y-92207828D01*
X116847562Y-92038995D01*
X117016395Y-92038995D01*
X117185228Y-92038995D01*
X117185228Y-92207828D01*
G37*
G36*
X117566285Y-92583013D02*
G01*
X117579713Y-92751846D01*
X117401229Y-92751846D01*
X117222746Y-92751846D01*
X117222746Y-92583013D01*
X117222746Y-92414179D01*
X117387802Y-92414179D01*
X117552857Y-92414179D01*
X117566285Y-92583013D01*
G37*
G36*
X117935597Y-92958197D02*
G01*
X117935597Y-93127030D01*
X117766764Y-93127030D01*
X117597931Y-93127030D01*
X117597931Y-92958197D01*
X117597931Y-92789364D01*
X117766764Y-92789364D01*
X117935597Y-92789364D01*
X117935597Y-92958197D01*
G37*
G36*
X120083529Y-86384747D02*
G01*
X120101309Y-86394025D01*
X120054171Y-86399912D01*
X119999113Y-86401007D01*
X119917966Y-86398080D01*
X119895690Y-86390597D01*
X119914696Y-86384747D01*
X120024024Y-86378540D01*
X120083529Y-86384747D01*
G37*
G36*
X120083529Y-86834969D02*
G01*
X120101309Y-86844247D01*
X120054171Y-86850134D01*
X119999113Y-86851228D01*
X119917966Y-86848301D01*
X119895690Y-86840818D01*
X119914696Y-86834969D01*
X120024024Y-86828762D01*
X120083529Y-86834969D01*
G37*
G36*
X120561890Y-93333382D02*
G01*
X120561890Y-93502215D01*
X120374297Y-93502215D01*
X120186705Y-93502215D01*
X120186705Y-93333382D01*
X120186705Y-93164549D01*
X120374297Y-93164549D01*
X120561890Y-93164549D01*
X120561890Y-93333382D01*
G37*
G36*
X121312259Y-96691284D02*
G01*
X121312259Y-96878877D01*
X121124667Y-96878877D01*
X120937074Y-96878877D01*
X120937074Y-96691284D01*
X120937074Y-96503692D01*
X121124667Y-96503692D01*
X121312259Y-96503692D01*
X121312259Y-96691284D01*
G37*
G36*
X122062628Y-92958197D02*
G01*
X122062628Y-93127030D01*
X121875036Y-93127030D01*
X121687444Y-93127030D01*
X121687444Y-92958197D01*
X121687444Y-92789364D01*
X121875036Y-92789364D01*
X122062628Y-92789364D01*
X122062628Y-92958197D01*
G37*
G36*
X122616026Y-90920765D02*
G01*
X122794238Y-90932200D01*
X122794272Y-91091654D01*
X122794306Y-91251107D01*
X122616059Y-91251107D01*
X122437813Y-91251107D01*
X122437813Y-91080218D01*
X122437813Y-90909330D01*
X122616026Y-90920765D01*
G37*
G36*
X124276218Y-92207828D02*
G01*
X124276218Y-92376661D01*
X124107385Y-92376661D01*
X123938551Y-92376661D01*
X123938551Y-92207828D01*
X123938551Y-92038995D01*
X124107385Y-92038995D01*
X124276218Y-92038995D01*
X124276218Y-92207828D01*
G37*
G36*
X125026587Y-91832643D02*
G01*
X125026587Y-92001476D01*
X124670162Y-92001476D01*
X124313736Y-92001476D01*
X124313736Y-91832643D01*
X124313736Y-91663810D01*
X124670162Y-91663810D01*
X125026587Y-91663810D01*
X125026587Y-91832643D01*
G37*
G36*
X125776956Y-91457459D02*
G01*
X125776956Y-91626292D01*
X125608123Y-91626292D01*
X125439290Y-91626292D01*
X125439290Y-91457459D01*
X125439290Y-91288626D01*
X125608123Y-91288626D01*
X125776956Y-91288626D01*
X125776956Y-91457459D01*
G37*
G36*
X125776956Y-92583013D02*
G01*
X125776956Y-92751846D01*
X125608123Y-92751846D01*
X125439290Y-92751846D01*
X125439290Y-92583013D01*
X125439290Y-92414179D01*
X125608123Y-92414179D01*
X125776956Y-92414179D01*
X125776956Y-92583013D01*
G37*
G36*
X126799334Y-88710892D02*
G01*
X126817114Y-88720170D01*
X126769976Y-88726057D01*
X126714918Y-88727151D01*
X126633771Y-88724224D01*
X126611495Y-88716742D01*
X126630501Y-88710892D01*
X126739829Y-88704685D01*
X126799334Y-88710892D01*
G37*
G36*
X126917304Y-87349187D02*
G01*
X126921269Y-87518020D01*
X126722159Y-87529434D01*
X126523048Y-87540849D01*
X126534566Y-87360601D01*
X126546085Y-87180354D01*
X126729712Y-87180354D01*
X126913340Y-87180354D01*
X126917304Y-87349187D01*
G37*
G36*
X127175035Y-88710960D02*
G01*
X127190132Y-88719747D01*
X127140976Y-88725411D01*
X127071343Y-88726639D01*
X126986216Y-88723832D01*
X126961317Y-88717109D01*
X126987443Y-88710447D01*
X127098399Y-88704275D01*
X127175035Y-88710960D01*
G37*
G36*
X129903987Y-81008566D02*
G01*
X129903987Y-81196159D01*
X129716395Y-81196159D01*
X129528803Y-81196159D01*
X129528803Y-81008566D01*
X129528803Y-80820974D01*
X129716395Y-80820974D01*
X129903987Y-80820974D01*
X129903987Y-81008566D01*
G37*
G36*
X131029541Y-81383751D02*
G01*
X131029541Y-81571343D01*
X130841949Y-81571343D01*
X130654356Y-81571343D01*
X130654356Y-81383751D01*
X130654356Y-81196159D01*
X130841949Y-81196159D01*
X131029541Y-81196159D01*
X131029541Y-81383751D01*
G37*
G36*
X132522956Y-91466838D02*
G01*
X132511520Y-91645051D01*
X132333308Y-91656486D01*
X132155095Y-91667922D01*
X132155095Y-91478274D01*
X132155095Y-91288626D01*
X132344743Y-91288626D01*
X132534391Y-91288626D01*
X132522956Y-91466838D01*
G37*
G36*
X132530280Y-98942392D02*
G01*
X132530280Y-99129984D01*
X132342687Y-99129984D01*
X132155095Y-99129984D01*
X132155095Y-98942392D01*
X132155095Y-98754800D01*
X132342687Y-98754800D01*
X132530280Y-98754800D01*
X132530280Y-98942392D01*
G37*
G36*
X135494238Y-86598818D02*
G01*
X135494238Y-86786410D01*
X135306646Y-86786410D01*
X135119054Y-86786410D01*
X135119054Y-86598818D01*
X135119054Y-86411225D01*
X135306646Y-86411225D01*
X135494238Y-86411225D01*
X135494238Y-86598818D01*
G37*
G36*
X120250863Y-86542502D02*
G01*
X120256534Y-86632198D01*
X120257390Y-86664475D01*
X120254673Y-86774489D01*
X120243030Y-86845984D01*
X120231757Y-86861447D01*
X120215675Y-86828562D01*
X120213193Y-86746942D01*
X120215161Y-86720753D01*
X120230018Y-86586990D01*
X120241971Y-86527503D01*
X120250863Y-86542502D01*
G37*
G36*
X108255834Y-98942392D02*
G01*
X108255834Y-99129984D01*
X108074494Y-99129984D01*
X107965572Y-99126933D01*
X107892482Y-99119172D01*
X107877042Y-99113871D01*
X107870138Y-99070147D01*
X107871238Y-98978099D01*
X107874566Y-98926279D01*
X107888205Y-98754800D01*
X108072019Y-98754800D01*
X108255834Y-98754800D01*
X108255834Y-98942392D01*
G37*
G36*
X114213850Y-78387531D02*
G01*
X114202510Y-78580379D01*
X114039875Y-78584502D01*
X113937193Y-78583741D01*
X113871452Y-78576947D01*
X113861662Y-78572993D01*
X113852570Y-78529543D01*
X113846958Y-78436612D01*
X113846085Y-78376021D01*
X113846085Y-78194682D01*
X114035638Y-78194682D01*
X114225191Y-78194682D01*
X114213850Y-78387531D01*
G37*
G36*
X120561890Y-86236242D02*
G01*
X120561890Y-86436443D01*
X120421195Y-86439293D01*
X120316009Y-86436479D01*
X120240564Y-86425858D01*
X120233603Y-86423558D01*
X120203191Y-86374585D01*
X120187839Y-86267409D01*
X120186705Y-86220506D01*
X120186705Y-86036041D01*
X120374297Y-86036041D01*
X120561890Y-86036041D01*
X120561890Y-86236242D01*
G37*
G36*
X121617821Y-102099968D02*
G01*
X121675440Y-102120827D01*
X121687444Y-102150221D01*
X121667361Y-102185612D01*
X121597830Y-102202897D01*
X121499851Y-102206499D01*
X121381881Y-102200474D01*
X121324263Y-102179615D01*
X121312259Y-102150221D01*
X121332342Y-102114830D01*
X121401872Y-102097544D01*
X121499851Y-102093943D01*
X121617821Y-102099968D01*
G37*
G36*
X124276218Y-91101033D02*
G01*
X124274541Y-91206562D01*
X124270252Y-91271518D01*
X124266838Y-91282071D01*
X124227316Y-91275008D01*
X124139188Y-91265055D01*
X124098005Y-91261154D01*
X123938551Y-91246793D01*
X123938551Y-91080117D01*
X123938551Y-90913441D01*
X124107385Y-90913441D01*
X124276218Y-90913441D01*
X124276218Y-91101033D01*
G37*
G36*
X125026587Y-92601772D02*
G01*
X125026587Y-92789364D01*
X125214179Y-92789364D01*
X125401772Y-92789364D01*
X125401772Y-92958197D01*
X125401772Y-93127030D01*
X125045346Y-93127030D01*
X124688921Y-93127030D01*
X124688921Y-92770605D01*
X124688921Y-92414179D01*
X124857754Y-92414179D01*
X125026587Y-92414179D01*
X125026587Y-92601772D01*
G37*
G36*
X126546168Y-91091654D02*
G01*
X126546085Y-91269866D01*
X126367872Y-91281302D01*
X126263207Y-91282266D01*
X126197109Y-91271877D01*
X126185756Y-91262542D01*
X126182132Y-91208942D01*
X126177773Y-91111229D01*
X126176376Y-91072905D01*
X126170900Y-90913463D01*
X126358576Y-90913452D01*
X126546252Y-90913441D01*
X126546168Y-91091654D01*
G37*
G36*
X126902510Y-91832643D02*
G01*
X126902510Y-92001476D01*
X126714918Y-92001476D01*
X126527325Y-92001476D01*
X126527325Y-92189069D01*
X126527325Y-92376661D01*
X126170900Y-92376661D01*
X125814475Y-92376661D01*
X125814475Y-92020236D01*
X125814475Y-91663810D01*
X126358492Y-91663810D01*
X126902510Y-91663810D01*
X126902510Y-91832643D01*
G37*
G36*
X127277718Y-91091654D02*
G01*
X127277695Y-91288626D01*
X127115115Y-91288626D01*
X127009832Y-91283304D01*
X126939165Y-91269945D01*
X126927522Y-91263613D01*
X126911995Y-91213519D01*
X126903231Y-91118200D01*
X126902510Y-91079642D01*
X126902510Y-90920683D01*
X127090126Y-90907682D01*
X127277741Y-90894682D01*
X127277718Y-91091654D01*
G37*
G36*
X132336515Y-100233534D02*
G01*
X132511520Y-100236779D01*
X132511520Y-100424372D01*
X132511520Y-100611964D01*
X132341290Y-100623073D01*
X132235776Y-100626248D01*
X132166188Y-100621411D01*
X132153698Y-100616838D01*
X132145988Y-100572511D01*
X132145677Y-100478867D01*
X132148923Y-100414891D01*
X132161510Y-100230288D01*
X132336515Y-100233534D01*
G37*
G36*
X133637074Y-77275479D02*
G01*
X133637074Y-77463072D01*
X133458479Y-77474523D01*
X133336075Y-77474253D01*
X133272571Y-77451453D01*
X133259007Y-77431570D01*
X133248234Y-77360006D01*
X133248533Y-77253649D01*
X133250010Y-77232527D01*
X133261890Y-77087887D01*
X133449482Y-77087887D01*
X133637074Y-77087887D01*
X133637074Y-77275479D01*
G37*
G36*
X126067099Y-86789365D02*
G01*
X126139958Y-86796882D01*
X126155267Y-86802024D01*
X126162040Y-86845326D01*
X126161730Y-86937976D01*
X126158510Y-86998996D01*
X126146120Y-87180354D01*
X125980628Y-87183811D01*
X125876055Y-87181953D01*
X125807391Y-87173210D01*
X125796046Y-87168178D01*
X125784884Y-87122554D01*
X125778009Y-87028068D01*
X125776956Y-86967749D01*
X125776956Y-86786410D01*
X125958295Y-86786410D01*
X126067099Y-86789365D01*
G37*
G36*
X122975073Y-92417395D02*
G01*
X123089340Y-92427754D01*
X123145265Y-92446330D01*
X123154195Y-92461078D01*
X123158196Y-92528783D01*
X123163169Y-92630263D01*
X123163574Y-92639290D01*
X123169423Y-92770605D01*
X123542045Y-92789364D01*
X123914667Y-92808123D01*
X123917230Y-92976956D01*
X123919792Y-93145790D01*
X124285649Y-93145790D01*
X124651506Y-93145790D01*
X124651454Y-93324002D01*
X124651402Y-93502215D01*
X124463810Y-93502215D01*
X124276218Y-93502215D01*
X124276218Y-93687752D01*
X124276218Y-93873288D01*
X124099395Y-93884723D01*
X123922573Y-93896159D01*
X123924328Y-94081193D01*
X123927716Y-94191172D01*
X123943607Y-94245255D01*
X123984704Y-94262579D01*
X124044873Y-94262817D01*
X124184179Y-94258405D01*
X124264658Y-94248034D01*
X124302373Y-94221009D01*
X124313384Y-94166631D01*
X124313736Y-94083751D01*
X124313736Y-93914918D01*
X124857754Y-93914918D01*
X125401772Y-93914918D01*
X125401772Y-94083751D01*
X125401772Y-94252584D01*
X125026587Y-94252584D01*
X124651402Y-94252584D01*
X124651402Y-94440177D01*
X124651402Y-94627769D01*
X124088625Y-94627769D01*
X123525848Y-94627769D01*
X123525848Y-94815361D01*
X123525848Y-95002953D01*
X122043869Y-95002953D01*
X120561890Y-95002953D01*
X120561890Y-94815361D01*
X120561890Y-94646528D01*
X121687435Y-94646528D01*
X122240837Y-94639416D01*
X122794238Y-94632305D01*
X122805579Y-94442444D01*
X122816919Y-94252584D01*
X122252181Y-94252584D01*
X121687444Y-94252584D01*
X121687439Y-94449556D01*
X121687435Y-94646528D01*
X120561890Y-94646528D01*
X120561890Y-94627769D01*
X120017872Y-94627769D01*
X119804574Y-94627006D01*
X119655071Y-94623819D01*
X119558128Y-94616860D01*
X119502511Y-94604782D01*
X119476984Y-94586238D01*
X119470407Y-94562112D01*
X119465898Y-94476389D01*
X119461027Y-94383899D01*
X119455095Y-94271343D01*
X119089290Y-94260605D01*
X118723485Y-94249867D01*
X118723485Y-94063633D01*
X118723485Y-93877400D01*
X118535893Y-93877400D01*
X118348300Y-93877400D01*
X118348300Y-93710622D01*
X118348300Y-93543845D01*
X118526513Y-93532409D01*
X118704726Y-93520974D01*
X118715464Y-93155169D01*
X118726202Y-92789364D01*
X119081269Y-92789364D01*
X119436336Y-92789364D01*
X119436336Y-92976956D01*
X119436336Y-93164549D01*
X119622570Y-93164549D01*
X119808803Y-93164549D01*
X119819541Y-93530354D01*
X119830280Y-93896159D01*
X120008492Y-93892856D01*
X120186705Y-93889554D01*
X120186705Y-94095334D01*
X120186705Y-94301113D01*
X120473754Y-94276849D01*
X120625145Y-94265006D01*
X120757111Y-94256365D01*
X120843423Y-94252624D01*
X120848939Y-94252584D01*
X120901343Y-94245634D01*
X120927490Y-94212073D01*
X120936337Y-94132835D01*
X120937074Y-94064992D01*
X120937074Y-93877400D01*
X120749482Y-93877400D01*
X120561890Y-93877400D01*
X120561890Y-93708566D01*
X120561890Y-93539733D01*
X120749482Y-93539733D01*
X120937074Y-93539733D01*
X120937074Y-93352141D01*
X120937074Y-93164549D01*
X121312259Y-93164549D01*
X121687444Y-93164549D01*
X121687444Y-93351118D01*
X121687444Y-93537688D01*
X122063543Y-93532487D01*
X122439643Y-93527286D01*
X122435628Y-93167705D01*
X122434145Y-92982888D01*
X122433661Y-92800766D01*
X122434226Y-92651843D01*
X122434712Y-92611151D01*
X122437813Y-92414179D01*
X122794238Y-92414179D01*
X122975073Y-92417395D01*
G37*
G36*
X123563367Y-82884490D02*
G01*
X123563367Y-83072082D01*
X123938551Y-83072082D01*
X124313736Y-83072082D01*
X124313736Y-83259674D01*
X124313736Y-83447267D01*
X124679541Y-83447278D01*
X125045346Y-83447289D01*
X125044034Y-83625490D01*
X125042721Y-83803692D01*
X124867796Y-83815047D01*
X124692871Y-83826401D01*
X124681516Y-84002639D01*
X124670162Y-84178877D01*
X124493924Y-84190231D01*
X124317686Y-84201586D01*
X124306332Y-84377824D01*
X124294977Y-84554061D01*
X124116703Y-84554061D01*
X123938430Y-84554061D01*
X123938491Y-84753867D01*
X123938551Y-84953673D01*
X124116764Y-84942555D01*
X124294977Y-84931438D01*
X124306175Y-85123201D01*
X124317372Y-85314965D01*
X124493767Y-85309698D01*
X124670162Y-85304431D01*
X124688921Y-85116838D01*
X124707680Y-84929246D01*
X124876513Y-84929246D01*
X125045346Y-84929246D01*
X125045346Y-84750972D01*
X125045346Y-84572699D01*
X125221503Y-84572760D01*
X125397660Y-84572821D01*
X125409095Y-84751033D01*
X125420531Y-84929246D01*
X125598804Y-84929246D01*
X125777078Y-84929246D01*
X125777017Y-85128188D01*
X125776956Y-85327129D01*
X125598743Y-85315780D01*
X125420531Y-85304431D01*
X125409190Y-85501403D01*
X125397850Y-85698374D01*
X125043385Y-85698374D01*
X124688921Y-85698374D01*
X124688921Y-85867208D01*
X124688921Y-86036041D01*
X124485273Y-86036041D01*
X124281626Y-86036041D01*
X124293294Y-85867208D01*
X124304963Y-85698374D01*
X123934165Y-85698374D01*
X123563367Y-85698374D01*
X123563367Y-86054800D01*
X123563367Y-86411225D01*
X124503289Y-86411225D01*
X125443211Y-86411225D01*
X125431871Y-86608197D01*
X125420531Y-86805169D01*
X125242257Y-86805169D01*
X125063984Y-86805169D01*
X125064045Y-86983382D01*
X125064105Y-87161595D01*
X124782717Y-87166284D01*
X124641658Y-87169739D01*
X124529216Y-87174525D01*
X124467138Y-87179683D01*
X124463810Y-87180354D01*
X124393706Y-87191996D01*
X124370014Y-87194423D01*
X124332360Y-87221829D01*
X124315575Y-87304157D01*
X124313736Y-87367946D01*
X124313736Y-87536779D01*
X124876513Y-87536779D01*
X125439290Y-87536779D01*
X125439290Y-87724372D01*
X125439290Y-87911964D01*
X125064105Y-87911964D01*
X124688921Y-87911964D01*
X124688921Y-88097629D01*
X124688921Y-88283293D01*
X125232997Y-88294600D01*
X125777073Y-88305908D01*
X125777015Y-88108936D01*
X125776956Y-87911964D01*
X126339733Y-87911964D01*
X126902510Y-87911964D01*
X126902510Y-87724372D01*
X126902510Y-87536779D01*
X127090102Y-87536779D01*
X127277695Y-87536779D01*
X127277695Y-87911964D01*
X127277695Y-88287148D01*
X127652879Y-88287148D01*
X128028064Y-88287148D01*
X128028064Y-88099556D01*
X128028064Y-87911964D01*
X128215656Y-87911964D01*
X128403249Y-87911964D01*
X128403249Y-88305908D01*
X128403249Y-88699852D01*
X127840472Y-88699852D01*
X127277695Y-88699852D01*
X127277695Y-88493500D01*
X127277695Y-88287148D01*
X126902510Y-88287148D01*
X126527325Y-88287148D01*
X126527410Y-88502880D01*
X126527494Y-88718611D01*
X126170984Y-88706657D01*
X125814475Y-88694703D01*
X125814475Y-88866110D01*
X125814475Y-89037518D01*
X127108862Y-89037518D01*
X128403249Y-89037518D01*
X128403249Y-89600295D01*
X128403249Y-90163072D01*
X128215656Y-90163072D01*
X128028064Y-90163072D01*
X128028064Y-89785831D01*
X128028064Y-89408591D01*
X127849851Y-89420026D01*
X127671639Y-89431462D01*
X127660900Y-89797267D01*
X127650162Y-90163072D01*
X127463928Y-90163072D01*
X127277695Y-90163072D01*
X127277695Y-89975479D01*
X127277695Y-89787887D01*
X127090102Y-89787887D01*
X126902510Y-89787887D01*
X126902510Y-89975479D01*
X126902510Y-90163072D01*
X126527325Y-90163072D01*
X126152141Y-90163072D01*
X126152141Y-90350664D01*
X126152141Y-90538256D01*
X125964549Y-90538256D01*
X125776956Y-90538256D01*
X125776956Y-90725849D01*
X125776956Y-90913441D01*
X125045346Y-90913441D01*
X124313736Y-90913441D01*
X124313736Y-90725849D01*
X124313736Y-90538256D01*
X124501328Y-90538256D01*
X124688921Y-90538256D01*
X125026587Y-90538256D01*
X125401772Y-90538256D01*
X125776956Y-90538256D01*
X125776956Y-90350664D01*
X125776956Y-90167386D01*
X125814475Y-90167386D01*
X125973928Y-90155849D01*
X126133382Y-90144312D01*
X126144120Y-89778507D01*
X126154858Y-89412702D01*
X125984666Y-89412702D01*
X125814475Y-89412702D01*
X125814475Y-89790044D01*
X125814475Y-90167386D01*
X125776956Y-90167386D01*
X125776956Y-90163072D01*
X125401772Y-90163072D01*
X125026587Y-90163072D01*
X125026587Y-90350664D01*
X125026587Y-90538256D01*
X124688921Y-90538256D01*
X124688921Y-90350664D01*
X124688921Y-90163072D01*
X124107385Y-90163072D01*
X123525848Y-90163072D01*
X123525848Y-90350664D01*
X123525848Y-90538256D01*
X123359071Y-90538256D01*
X123192294Y-90538256D01*
X123180858Y-90716469D01*
X123169423Y-90894682D01*
X123000590Y-90894682D01*
X122831757Y-90894682D01*
X122821019Y-90528877D01*
X122810280Y-90163072D01*
X122614667Y-90163020D01*
X122419054Y-90162968D01*
X122419054Y-90528825D01*
X122419054Y-90894682D01*
X122250221Y-90894682D01*
X122081388Y-90894682D01*
X122069952Y-90716469D01*
X122058517Y-90538256D01*
X121685388Y-90538256D01*
X121312259Y-90538256D01*
X121312259Y-90725849D01*
X121312259Y-90913441D01*
X121502764Y-90913441D01*
X121693269Y-90913441D01*
X121680363Y-91090885D01*
X121667457Y-91268329D01*
X121489858Y-91261547D01*
X121312259Y-91254766D01*
X121312259Y-91459288D01*
X121312259Y-91663810D01*
X121687444Y-91663810D01*
X122062628Y-91663810D01*
X122062628Y-92020236D01*
X122062628Y-92376661D01*
X121501907Y-92376661D01*
X120941186Y-92376661D01*
X120929750Y-92198448D01*
X120918315Y-92020236D01*
X120737760Y-92020236D01*
X120557205Y-92020236D01*
X120567262Y-91832643D01*
X120577319Y-91645051D01*
X120006827Y-91633159D01*
X119436336Y-91621268D01*
X119436388Y-91820752D01*
X119436439Y-92020236D01*
X119070583Y-92020236D01*
X118704726Y-92020236D01*
X118693290Y-92198448D01*
X118681855Y-92376661D01*
X118517133Y-92376661D01*
X118352412Y-92376661D01*
X118340976Y-92198448D01*
X118329541Y-92020236D01*
X117785523Y-92020236D01*
X117241506Y-92020236D01*
X117222746Y-91832643D01*
X117203987Y-91645051D01*
X117016395Y-91645051D01*
X116828803Y-91645051D01*
X116817367Y-91823264D01*
X116805932Y-92001476D01*
X116639155Y-92001476D01*
X116472377Y-92001476D01*
X116472377Y-91645051D01*
X116472377Y-91288626D01*
X116847562Y-91288626D01*
X117222746Y-91288626D01*
X117222746Y-91101033D01*
X117222746Y-90913441D01*
X117579172Y-90913441D01*
X117935597Y-90913441D01*
X117935597Y-91288626D01*
X117935597Y-91663810D01*
X118123190Y-91663810D01*
X118310782Y-91663810D01*
X118312092Y-91335524D01*
X118313464Y-91151105D01*
X118316065Y-90927043D01*
X118319453Y-90698715D01*
X118321472Y-90585146D01*
X118322368Y-90538256D01*
X120186705Y-90538256D01*
X120374297Y-90538256D01*
X120561890Y-90538256D01*
X120561890Y-90163072D01*
X120561890Y-89790044D01*
X120561890Y-89787887D01*
X120374297Y-89787887D01*
X120186705Y-89787887D01*
X120186705Y-90163072D01*
X120186705Y-90538256D01*
X118322368Y-90538256D01*
X118329541Y-90163072D01*
X118329541Y-90163056D01*
X117944977Y-90163064D01*
X117560413Y-90163072D01*
X117560413Y-90350664D01*
X117560413Y-90538256D01*
X117393540Y-90538256D01*
X117226668Y-90538256D01*
X117215328Y-90344366D01*
X117203987Y-90150475D01*
X117017793Y-90147394D01*
X116831599Y-90144312D01*
X116842414Y-89966100D01*
X116853229Y-89787887D01*
X116641210Y-89787887D01*
X116429191Y-89787887D01*
X116440263Y-89966100D01*
X116451335Y-90144312D01*
X116171530Y-90155516D01*
X116022172Y-90158252D01*
X115892846Y-90154895D01*
X115810096Y-90146180D01*
X115806866Y-90145422D01*
X115722008Y-90124124D01*
X115722008Y-89409110D01*
X118348300Y-89409110D01*
X121490472Y-89402024D01*
X121985516Y-89400781D01*
X122470520Y-89399319D01*
X122938579Y-89397674D01*
X123382791Y-89395881D01*
X123796253Y-89393974D01*
X124172063Y-89391988D01*
X124503317Y-89389960D01*
X124783112Y-89387923D01*
X125004546Y-89385913D01*
X125160716Y-89383965D01*
X125204800Y-89383181D01*
X125776956Y-89371424D01*
X125776956Y-89204471D01*
X125776956Y-89037518D01*
X122062628Y-89037518D01*
X118348300Y-89037518D01*
X118348300Y-89223314D01*
X118348300Y-89409110D01*
X115722008Y-89409110D01*
X115722008Y-89223314D01*
X115722008Y-89037518D01*
X115755415Y-89037518D01*
X117035154Y-89037518D01*
X118314893Y-89037518D01*
X118303458Y-88859305D01*
X118292023Y-88681092D01*
X117035154Y-88681092D01*
X115778286Y-88681092D01*
X115766850Y-88859305D01*
X115755415Y-89037518D01*
X115722008Y-89037518D01*
X115722008Y-88830451D01*
X115722008Y-88324667D01*
X119432524Y-88324667D01*
X119450300Y-88484120D01*
X119461811Y-88584056D01*
X119469622Y-88645762D01*
X119470965Y-88653764D01*
X119507495Y-88656415D01*
X119607545Y-88657772D01*
X119759606Y-88657835D01*
X119952171Y-88656602D01*
X120173734Y-88654074D01*
X120196085Y-88653764D01*
X120918315Y-88643574D01*
X120929852Y-88484120D01*
X120941389Y-88324667D01*
X120186956Y-88324667D01*
X119432524Y-88324667D01*
X115722008Y-88324667D01*
X115722008Y-88116376D01*
X119061728Y-88116376D01*
X119077829Y-88198416D01*
X119101221Y-88256877D01*
X119147541Y-88280882D01*
X119240681Y-88281151D01*
X119259364Y-88279865D01*
X119358269Y-88269094D01*
X119405754Y-88241057D01*
X119423692Y-88173466D01*
X119429218Y-88106788D01*
X119440860Y-87945186D01*
X119260723Y-87956714D01*
X119134359Y-87976903D01*
X119071385Y-88025686D01*
X119061728Y-88116376D01*
X115722008Y-88116376D01*
X115722008Y-87912570D01*
X118723485Y-87912570D01*
X118892318Y-87906184D01*
X119061151Y-87899798D01*
X119061151Y-87727668D01*
X119061151Y-87555538D01*
X118892318Y-87555538D01*
X118723485Y-87555538D01*
X118723485Y-87734054D01*
X118723485Y-87912570D01*
X115722008Y-87912570D01*
X115722008Y-87734054D01*
X115722008Y-87536779D01*
X115909600Y-87536779D01*
X116097193Y-87536779D01*
X116804596Y-87536779D01*
X117016395Y-87536779D01*
X117228194Y-87536779D01*
X118348300Y-87536779D01*
X118517133Y-87536779D01*
X118685967Y-87536779D01*
X118685996Y-86795790D01*
X118686025Y-86054800D01*
X118526542Y-86059179D01*
X118426566Y-86066916D01*
X118365323Y-86081132D01*
X118357680Y-86087318D01*
X118354749Y-86130599D01*
X118352192Y-86236875D01*
X118350163Y-86394106D01*
X118348815Y-86590250D01*
X118348301Y-86813267D01*
X118348300Y-86823928D01*
X118348300Y-87536779D01*
X117228194Y-87536779D01*
X117216091Y-87170974D01*
X117204608Y-86823928D01*
X117203987Y-86805169D01*
X117016395Y-86805169D01*
X116828803Y-86805169D01*
X116816699Y-87170974D01*
X116804596Y-87536779D01*
X116097193Y-87536779D01*
X116097193Y-86992761D01*
X116097193Y-86448744D01*
X116284785Y-86448744D01*
X116472377Y-86448744D01*
X116472377Y-86073559D01*
X116472377Y-85867208D01*
X118723485Y-85867208D01*
X118723485Y-86031929D01*
X118897900Y-86043365D01*
X119072315Y-86054800D01*
X119076113Y-86598818D01*
X119079910Y-87142835D01*
X119266435Y-87161595D01*
X119452959Y-87180354D01*
X119441814Y-87358566D01*
X119430668Y-87536779D01*
X119619039Y-87536779D01*
X119807409Y-87536779D01*
X119818844Y-87714992D01*
X119830280Y-87893205D01*
X120393057Y-87900016D01*
X120955834Y-87906828D01*
X120960638Y-88050090D01*
X120964939Y-88156075D01*
X120969338Y-88232376D01*
X120970018Y-88240250D01*
X121009354Y-88272423D01*
X121114362Y-88286634D01*
X121146260Y-88287148D01*
X121317926Y-88287148D01*
X121307619Y-88119536D01*
X121305483Y-88014166D01*
X121312136Y-87944221D01*
X121317318Y-87931918D01*
X121364124Y-87918098D01*
X121456978Y-87907744D01*
X121493624Y-87905787D01*
X121649925Y-87899663D01*
X121649925Y-87718221D01*
X121649925Y-87536779D01*
X121855905Y-87536779D01*
X122061886Y-87536779D01*
X122059071Y-87161595D01*
X123563367Y-87161595D01*
X123725947Y-87161595D01*
X123828984Y-87158056D01*
X123895339Y-87149160D01*
X123905337Y-87144785D01*
X123912656Y-87100325D01*
X123910428Y-87009833D01*
X123907649Y-86975951D01*
X123893151Y-86823928D01*
X123728259Y-86823928D01*
X123563367Y-86823928D01*
X123563367Y-86992761D01*
X123563367Y-87161595D01*
X122059071Y-87161595D01*
X122057804Y-86992761D01*
X122056397Y-86805169D01*
X122050908Y-86073559D01*
X121850417Y-86073559D01*
X121649925Y-86073559D01*
X121649925Y-85888022D01*
X121649925Y-85702486D01*
X121471712Y-85691051D01*
X121293500Y-85679615D01*
X121294603Y-85660856D01*
X123188182Y-85660856D01*
X123353237Y-85660856D01*
X123518293Y-85660856D01*
X123531720Y-85492023D01*
X123545148Y-85323190D01*
X123366665Y-85323190D01*
X123188182Y-85323190D01*
X123188182Y-85492023D01*
X123188182Y-85660856D01*
X121294603Y-85660856D01*
X121303859Y-85503397D01*
X121304528Y-85492023D01*
X121314217Y-85327179D01*
X121117362Y-85315805D01*
X120920507Y-85304431D01*
X120931625Y-85126218D01*
X120942742Y-84948005D01*
X120208298Y-84948005D01*
X119956423Y-84948321D01*
X119769749Y-84949935D01*
X119638439Y-84953845D01*
X119552658Y-84961049D01*
X119502570Y-84972547D01*
X119478339Y-84989337D01*
X119470129Y-85012417D01*
X119469164Y-85023042D01*
X119460139Y-85128190D01*
X119455095Y-85173116D01*
X119444999Y-85253887D01*
X119441026Y-85285671D01*
X119404492Y-85308105D01*
X119317533Y-85321512D01*
X119267503Y-85323190D01*
X119163592Y-85326367D01*
X119113765Y-85345728D01*
X119097082Y-85396019D01*
X119094342Y-85445125D01*
X119088020Y-85572861D01*
X119071086Y-85643807D01*
X119029313Y-85676120D01*
X118948479Y-85687959D01*
X118901698Y-85691051D01*
X118723485Y-85702486D01*
X118723485Y-85867208D01*
X116472377Y-85867208D01*
X116472377Y-85702486D01*
X116472377Y-85698374D01*
X116659969Y-85698374D01*
X116847562Y-85698374D01*
X116847562Y-85583617D01*
X117563352Y-85583617D01*
X117587503Y-85659229D01*
X117652102Y-85690339D01*
X117769504Y-85691381D01*
X117774467Y-85691066D01*
X117951769Y-85679615D01*
X117949883Y-85501403D01*
X117947998Y-85323190D01*
X118082492Y-85318862D01*
X118211778Y-85313213D01*
X118283261Y-85297164D01*
X118314066Y-85256237D01*
X118321315Y-85175956D01*
X118321457Y-85116838D01*
X118321597Y-84929246D01*
X118137977Y-84929246D01*
X117954356Y-84929246D01*
X117943002Y-85105484D01*
X117931647Y-85281721D01*
X117755410Y-85293076D01*
X117648563Y-85302863D01*
X117595330Y-85325859D01*
X117574417Y-85379721D01*
X117567292Y-85449070D01*
X117563352Y-85583617D01*
X116847562Y-85583617D01*
X116847562Y-85510782D01*
X116847562Y-85323190D01*
X117035154Y-85323190D01*
X117222746Y-85323190D01*
X117222746Y-85135597D01*
X117222746Y-84948005D01*
X117410339Y-84948005D01*
X117597931Y-84948005D01*
X117597931Y-84760413D01*
X117597931Y-84572821D01*
X117785523Y-84572821D01*
X117973116Y-84572821D01*
X117973116Y-84385228D01*
X117973116Y-84197636D01*
X118160708Y-84197636D01*
X118348300Y-84197636D01*
X118348300Y-84010044D01*
X118348300Y-83822451D01*
X118517133Y-83822451D01*
X118620993Y-83819488D01*
X118670813Y-83800005D01*
X118687588Y-83748117D01*
X118690656Y-83691137D01*
X118695136Y-83588650D01*
X118699708Y-83516393D01*
X118700036Y-83512924D01*
X118730180Y-83488138D01*
X118819202Y-83470467D01*
X118973585Y-83458900D01*
X119070531Y-83455288D01*
X119436336Y-83444549D01*
X119436336Y-83409748D01*
X122437813Y-83409748D01*
X122625405Y-83409748D01*
X122812998Y-83409748D01*
X122812998Y-83616100D01*
X122812998Y-83822451D01*
X123000590Y-83822451D01*
X123188182Y-83822451D01*
X123188182Y-84012877D01*
X123188182Y-84203303D01*
X123366395Y-84192186D01*
X123544608Y-84181069D01*
X123556016Y-84378917D01*
X123567425Y-84576766D01*
X123743609Y-84565414D01*
X123919792Y-84554061D01*
X123922859Y-84366469D01*
X123925925Y-84178877D01*
X124101071Y-84167441D01*
X124276218Y-84156006D01*
X124276218Y-83989229D01*
X124276218Y-83822451D01*
X124088625Y-83822451D01*
X123901033Y-83822451D01*
X123901033Y-83636218D01*
X123901033Y-83449984D01*
X123535228Y-83439246D01*
X123169423Y-83428507D01*
X123174298Y-83250295D01*
X123179173Y-83072082D01*
X122808493Y-83072082D01*
X122437813Y-83072082D01*
X122437813Y-83240915D01*
X122437813Y-83409748D01*
X119436336Y-83409748D01*
X119436336Y-83258316D01*
X119436336Y-83240915D01*
X119436336Y-83072082D01*
X119999113Y-83072082D01*
X120561890Y-83072082D01*
X120561890Y-82884490D01*
X120561890Y-82696897D01*
X122062628Y-82696897D01*
X123563367Y-82696897D01*
X123563367Y-82884490D01*
G37*
D12*
%TO.C,UP1*%
X150215000Y-60015000D02*
X164185000Y-60015000D01*
X150215000Y-73985000D02*
X150215000Y-60015000D01*
X164185000Y-60015000D02*
X164185000Y-73985000D01*
X164185000Y-73985000D02*
X150215000Y-73985000D01*
%TO.C,EXTRA1*%
X91515000Y-83315000D02*
X105485000Y-83315000D01*
X91515000Y-97285000D02*
X91515000Y-83315000D01*
X105485000Y-83315000D02*
X105485000Y-97285000D01*
X105485000Y-97285000D02*
X91515000Y-97285000D01*
D14*
%TO.C,BZ1*%
X142940000Y-36200000D02*
X143940000Y-36200000D01*
X143440000Y-35700000D02*
X143440000Y-36700000D01*
X158660000Y-36200000D02*
X159660000Y-36200000D01*
X157300000Y-36200000D02*
G75*
G02*
X145300000Y-36200000I-6000000J0D01*
G01*
X145300000Y-36200000D02*
G75*
G02*
X157300000Y-36200000I6000000J0D01*
G01*
%TO.C,U1*%
X108000000Y-49012500D02*
X134000000Y-49012500D01*
X108000000Y-75012500D02*
X108000000Y-49012500D01*
X114000000Y-73012500D02*
X114000000Y-75012500D01*
X114000000Y-75012500D02*
X108000000Y-75012500D01*
X128000000Y-73012500D02*
X114000000Y-73012500D01*
X128000000Y-75012500D02*
X128000000Y-73012500D01*
X134000000Y-49012500D02*
X134000000Y-75012500D01*
X134000000Y-75012500D02*
X128000000Y-75012500D01*
D15*
X117100000Y-48512500D02*
G75*
G02*
X116900000Y-48512500I-100000J0D01*
G01*
X116900000Y-48512500D02*
G75*
G02*
X117100000Y-48512500I100000J0D01*
G01*
D12*
%TO.C,A1*%
X77000000Y-32140000D02*
X87420001Y-32140000D01*
X77000000Y-40019999D02*
X77000000Y-32140000D01*
X79540000Y-45100000D02*
X79540001Y-40020000D01*
X79540000Y-45100000D02*
X122980000Y-45100000D01*
X79540001Y-27060000D02*
X79540000Y-32140000D01*
X82210000Y-29730000D02*
X82210000Y-27060000D01*
X82210000Y-42430000D02*
X82210000Y-45100000D01*
X87420000Y-40020000D02*
X77000000Y-40019999D01*
X87420001Y-32140000D02*
X87420000Y-40020000D01*
X117770000Y-27060000D02*
X79540001Y-27060000D01*
X117770000Y-29730000D02*
X82210000Y-29730000D01*
X117770000Y-29730000D02*
X117770000Y-27060000D01*
X117770000Y-29730000D02*
X120310000Y-29730000D01*
X120310000Y-29730000D02*
X120310000Y-27060000D01*
X120310000Y-42430000D02*
X82210000Y-42430000D01*
X120310000Y-42430000D02*
X120310000Y-45100000D01*
X122980000Y-27060000D02*
X120310000Y-27060000D01*
X122980000Y-45100000D02*
X122980000Y-27060000D01*
%TD*%
M02*
