%TF.GenerationSoftware,KiCad,Pcbnew,9.0.6*%
%TF.CreationDate,2026-07-15T23:24:00+05:30*%
%TF.ProjectId,HandheldGamingConsole,48616e64-6865-46c6-9447-616d696e6743,rev?*%
%TF.SameCoordinates,Original*%
%TF.FileFunction,Copper,L2,Bot*%
%TF.FilePolarity,Positive*%
%FSLAX46Y46*%
G04 Gerber Fmt 4.6, Leading zero omitted, Abs format (unit mm)*
G04 Created by KiCad (PCBNEW 9.0.6) date 2026-07-15 23:24:00*
%MOMM*%
%LPD*%
G01*
G04 APERTURE LIST*
%TA.AperFunction,ComponentPad*%
%ADD10C,2.200000*%
%TD*%
%TA.AperFunction,ComponentPad*%
%ADD11C,1.408000*%
%TD*%
%TA.AperFunction,ComponentPad*%
%ADD12R,1.508000X1.508000*%
%TD*%
%TA.AperFunction,ComponentPad*%
%ADD13C,1.508000*%
%TD*%
%TA.AperFunction,ComponentPad*%
%ADD14C,3.000000*%
%TD*%
%TA.AperFunction,ComponentPad*%
%ADD15R,1.600000X1.600000*%
%TD*%
%TA.AperFunction,ComponentPad*%
%ADD16O,1.600000X1.600000*%
%TD*%
%TA.AperFunction,ViaPad*%
%ADD17C,0.600000*%
%TD*%
%TA.AperFunction,Conductor*%
%ADD18C,0.200000*%
%TD*%
G04 APERTURE END LIST*
D10*
%TO.P,DOWN1,1,1*%
%TO.N,DOWN*%
X147740000Y-85220000D03*
%TO.P,DOWN1,2,2*%
%TO.N,GND*%
X141390000Y-87760000D03*
%TD*%
%TO.P,SHOOT1,1,1*%
%TO.N,SHOOT*%
X88560000Y-61520000D03*
%TO.P,SHOOT1,2,2*%
%TO.N,GND*%
X82210000Y-64060000D03*
%TD*%
%TO.P,UP1,1,1*%
%TO.N,UP*%
X159740000Y-61920000D03*
%TO.P,UP1,2,2*%
%TO.N,GND*%
X153390000Y-64460000D03*
%TD*%
%TO.P,EXTRA1,1,1*%
%TO.N,EXTRA*%
X101040000Y-85220000D03*
%TO.P,EXTRA1,2,2*%
%TO.N,GND*%
X94690000Y-87760000D03*
%TD*%
D11*
%TO.P,BZ1,1,+*%
%TO.N,BUZZ*%
X147500000Y-36200000D03*
%TO.P,BZ1,2,-*%
%TO.N,GND*%
X155100000Y-36200000D03*
%TD*%
D12*
%TO.P,U1,1,GND*%
%TO.N,GND*%
X117190000Y-50512500D03*
D13*
%TO.P,U1,2,VCC_IN*%
%TO.N,+5V*%
X119730000Y-50512500D03*
%TO.P,U1,3,SCL*%
%TO.N,SCL*%
X122270000Y-50512500D03*
%TO.P,U1,4,SDA*%
%TO.N,SDA*%
X124810000Y-50512500D03*
D14*
%TO.P,U1,S1*%
%TO.N,N/C*%
X110000000Y-51012500D03*
%TO.P,U1,S2*%
X132000000Y-51012500D03*
%TO.P,U1,S3*%
X132000000Y-73012500D03*
%TO.P,U1,S4*%
X110000000Y-73012500D03*
%TD*%
D15*
%TO.P,A1,1,D1/TX*%
%TO.N,unconnected-(A1-D1{slash}TX-Pad1)*%
X119040000Y-28460000D03*
D16*
%TO.P,A1,2,D0/RX*%
%TO.N,unconnected-(A1-D0{slash}RX-Pad2)*%
X116500000Y-28460000D03*
%TO.P,A1,3,~{RESET}*%
%TO.N,unconnected-(A1-~{RESET}-Pad3)*%
X113960001Y-28460000D03*
%TO.P,A1,4,GND*%
%TO.N,GND*%
X111420000Y-28460000D03*
%TO.P,A1,5,D2*%
%TO.N,unconnected-(A1-D2-Pad5)*%
X108880000Y-28460000D03*
%TO.P,A1,6,D3*%
%TO.N,unconnected-(A1-D3-Pad6)*%
X106340000Y-28460000D03*
%TO.P,A1,7,D4*%
%TO.N,unconnected-(A1-D4-Pad7)*%
X103800000Y-28460000D03*
%TO.P,A1,8,D5*%
%TO.N,unconnected-(A1-D5-Pad8)*%
X101259999Y-28460000D03*
%TO.P,A1,9,D6*%
%TO.N,unconnected-(A1-D6-Pad9)*%
X98720000Y-28460000D03*
%TO.P,A1,10,D7*%
%TO.N,unconnected-(A1-D7-Pad10)*%
X96180000Y-28460000D03*
%TO.P,A1,11,D8*%
%TO.N,unconnected-(A1-D8-Pad11)*%
X93640000Y-28460000D03*
%TO.P,A1,12,D9*%
%TO.N,SHOOT*%
X91100001Y-28460000D03*
%TO.P,A1,13,D10*%
%TO.N,DOWN*%
X88560000Y-28460000D03*
%TO.P,A1,14,D11*%
%TO.N,UP*%
X86020000Y-28460000D03*
%TO.P,A1,15,D12*%
%TO.N,EXTRA*%
X83480000Y-28460000D03*
%TO.P,A1,16,D13*%
%TO.N,unconnected-(A1-D13-Pad16)*%
X83480000Y-43700000D03*
%TO.P,A1,17,3V3*%
%TO.N,unconnected-(A1-3V3-Pad17)*%
X86020000Y-43700000D03*
%TO.P,A1,18,AREF*%
%TO.N,unconnected-(A1-AREF-Pad18)*%
X88560000Y-43700000D03*
%TO.P,A1,19,A0*%
%TO.N,BUZZ*%
X91100000Y-43700000D03*
%TO.P,A1,20,A1*%
%TO.N,unconnected-(A1-A1-Pad20)*%
X93640000Y-43700000D03*
%TO.P,A1,21,A2*%
%TO.N,unconnected-(A1-A2-Pad21)*%
X96180000Y-43700000D03*
%TO.P,A1,22,A3*%
%TO.N,unconnected-(A1-A3-Pad22)*%
X98720000Y-43700000D03*
%TO.P,A1,23,A4*%
%TO.N,SDA*%
X101260000Y-43700000D03*
%TO.P,A1,24,A5*%
%TO.N,SCL*%
X103800000Y-43700000D03*
%TO.P,A1,25,A6*%
%TO.N,unconnected-(A1-A6-Pad25)*%
X106340000Y-43700000D03*
%TO.P,A1,26,A7*%
%TO.N,unconnected-(A1-A7-Pad26)*%
X108880000Y-43700000D03*
%TO.P,A1,27,+5V*%
%TO.N,+5V*%
X111420000Y-43700000D03*
%TO.P,A1,28,~{RESET}*%
%TO.N,unconnected-(A1-~{RESET}-Pad28)*%
X113960000Y-43700000D03*
%TO.P,A1,29,GND*%
%TO.N,GND*%
X116500000Y-43700000D03*
%TO.P,A1,30,VIN*%
%TO.N,unconnected-(A1-VIN-Pad30)*%
X119040000Y-43700000D03*
%TD*%
D17*
%TO.N,BUZZ*%
X129100000Y-39300000D03*
%TO.N,SHOOT*%
X95000000Y-50200000D03*
%TD*%
D18*
%TO.N,BUZZ*%
X144400000Y-39300000D02*
X147500000Y-36200000D01*
X129100000Y-39300000D02*
X144400000Y-39300000D01*
%TO.N,SDA*%
X105360000Y-47800000D02*
X122097500Y-47800000D01*
X122097500Y-47800000D02*
X124810000Y-50512500D01*
X101260000Y-43700000D02*
X105360000Y-47800000D01*
%TO.N,EXTRA*%
X89999000Y-53399000D02*
X101040000Y-64440000D01*
X101040000Y-64440000D02*
X101040000Y-85220000D01*
X89999000Y-34979000D02*
X89999000Y-53399000D01*
X83480000Y-28460000D02*
X89999000Y-34979000D01*
%TO.N,SHOOT*%
X95000000Y-32359999D02*
X95000000Y-50200000D01*
X91100001Y-28460000D02*
X95000000Y-32359999D01*
%TO.N,+5V*%
X124700000Y-52600000D02*
X121800000Y-52600000D01*
X111420000Y-43700000D02*
X114120000Y-46400000D01*
X114120000Y-46400000D02*
X122700000Y-46400000D01*
X121800000Y-52600000D02*
X121800000Y-52582500D01*
X125865000Y-49565000D02*
X125865000Y-51435000D01*
X121800000Y-52582500D02*
X119730000Y-50512500D01*
X122700000Y-46400000D02*
X125865000Y-49565000D01*
X125865000Y-51435000D02*
X124700000Y-52600000D01*
%TD*%
%TA.AperFunction,Conductor*%
%TO.N,GND*%
G36*
X170442539Y-25720185D02*
G01*
X170488294Y-25772989D01*
X170499500Y-25824500D01*
X170499500Y-101775500D01*
X170479815Y-101842539D01*
X170427011Y-101888294D01*
X170375500Y-101899500D01*
X72224500Y-101899500D01*
X72157461Y-101879815D01*
X72111706Y-101827011D01*
X72100500Y-101775500D01*
X72100500Y-90213389D01*
X92319500Y-90213389D01*
X92319500Y-90386611D01*
X92346598Y-90557701D01*
X92400127Y-90722445D01*
X92478768Y-90876788D01*
X92580586Y-91016928D01*
X92703072Y-91139414D01*
X92843212Y-91241232D01*
X92997555Y-91319873D01*
X93162299Y-91373402D01*
X93333389Y-91400500D01*
X93333390Y-91400500D01*
X93506610Y-91400500D01*
X93506611Y-91400500D01*
X93677701Y-91373402D01*
X93842445Y-91319873D01*
X93996788Y-91241232D01*
X94136928Y-91139414D01*
X94259414Y-91016928D01*
X94361232Y-90876788D01*
X94439873Y-90722445D01*
X94493402Y-90557701D01*
X94520500Y-90386611D01*
X94520500Y-90213389D01*
X94510854Y-90152486D01*
X96249500Y-90152486D01*
X96249500Y-90447513D01*
X96281571Y-90691113D01*
X96288007Y-90739993D01*
X96362212Y-91016930D01*
X96364361Y-91024951D01*
X96364364Y-91024961D01*
X96477254Y-91297500D01*
X96477258Y-91297510D01*
X96624761Y-91552993D01*
X96804352Y-91787040D01*
X96804358Y-91787047D01*
X97012952Y-91995641D01*
X97012959Y-91995647D01*
X97247006Y-92175238D01*
X97502489Y-92322741D01*
X97502490Y-92322741D01*
X97502493Y-92322743D01*
X97775048Y-92435639D01*
X98060007Y-92511993D01*
X98352494Y-92550500D01*
X98352501Y-92550500D01*
X98647499Y-92550500D01*
X98647506Y-92550500D01*
X98939993Y-92511993D01*
X99224952Y-92435639D01*
X99497507Y-92322743D01*
X99752994Y-92175238D01*
X99987042Y-91995646D01*
X100195646Y-91787042D01*
X100375238Y-91552994D01*
X100522743Y-91297507D01*
X100635639Y-91024952D01*
X100711993Y-90739993D01*
X100750500Y-90447506D01*
X100750500Y-90213389D01*
X102479500Y-90213389D01*
X102479500Y-90386611D01*
X102506598Y-90557701D01*
X102560127Y-90722445D01*
X102638768Y-90876788D01*
X102740586Y-91016928D01*
X102863072Y-91139414D01*
X103003212Y-91241232D01*
X103157555Y-91319873D01*
X103322299Y-91373402D01*
X103493389Y-91400500D01*
X103493390Y-91400500D01*
X103666610Y-91400500D01*
X103666611Y-91400500D01*
X103837701Y-91373402D01*
X104002445Y-91319873D01*
X104156788Y-91241232D01*
X104296928Y-91139414D01*
X104419414Y-91016928D01*
X104521232Y-90876788D01*
X104599873Y-90722445D01*
X104653402Y-90557701D01*
X104680500Y-90386611D01*
X104680500Y-90213389D01*
X139019500Y-90213389D01*
X139019500Y-90386611D01*
X139046598Y-90557701D01*
X139100127Y-90722445D01*
X139178768Y-90876788D01*
X139280586Y-91016928D01*
X139403072Y-91139414D01*
X139543212Y-91241232D01*
X139697555Y-91319873D01*
X139862299Y-91373402D01*
X140033389Y-91400500D01*
X140033390Y-91400500D01*
X140206610Y-91400500D01*
X140206611Y-91400500D01*
X140377701Y-91373402D01*
X140542445Y-91319873D01*
X140696788Y-91241232D01*
X140836928Y-91139414D01*
X140959414Y-91016928D01*
X141061232Y-90876788D01*
X141139873Y-90722445D01*
X141193402Y-90557701D01*
X141220500Y-90386611D01*
X141220500Y-90213389D01*
X141210854Y-90152486D01*
X142949500Y-90152486D01*
X142949500Y-90447513D01*
X142981571Y-90691113D01*
X142988007Y-90739993D01*
X143062212Y-91016930D01*
X143064361Y-91024951D01*
X143064364Y-91024961D01*
X143177254Y-91297500D01*
X143177258Y-91297510D01*
X143324761Y-91552993D01*
X143504352Y-91787040D01*
X143504358Y-91787047D01*
X143712952Y-91995641D01*
X143712959Y-91995647D01*
X143947006Y-92175238D01*
X144202489Y-92322741D01*
X144202490Y-92322741D01*
X144202493Y-92322743D01*
X144475048Y-92435639D01*
X144760007Y-92511993D01*
X145052494Y-92550500D01*
X145052501Y-92550500D01*
X145347499Y-92550500D01*
X145347506Y-92550500D01*
X145639993Y-92511993D01*
X145924952Y-92435639D01*
X146197507Y-92322743D01*
X146452994Y-92175238D01*
X146687042Y-91995646D01*
X146895646Y-91787042D01*
X147075238Y-91552994D01*
X147222743Y-91297507D01*
X147335639Y-91024952D01*
X147411993Y-90739993D01*
X147450500Y-90447506D01*
X147450500Y-90213389D01*
X149179500Y-90213389D01*
X149179500Y-90386611D01*
X149206598Y-90557701D01*
X149260127Y-90722445D01*
X149338768Y-90876788D01*
X149440586Y-91016928D01*
X149563072Y-91139414D01*
X149703212Y-91241232D01*
X149857555Y-91319873D01*
X150022299Y-91373402D01*
X150193389Y-91400500D01*
X150193390Y-91400500D01*
X150366610Y-91400500D01*
X150366611Y-91400500D01*
X150537701Y-91373402D01*
X150702445Y-91319873D01*
X150856788Y-91241232D01*
X150996928Y-91139414D01*
X151119414Y-91016928D01*
X151221232Y-90876788D01*
X151299873Y-90722445D01*
X151353402Y-90557701D01*
X151380500Y-90386611D01*
X151380500Y-90213389D01*
X151353402Y-90042299D01*
X151299873Y-89877555D01*
X151221232Y-89723212D01*
X151119414Y-89583072D01*
X150996928Y-89460586D01*
X150856788Y-89358768D01*
X150702445Y-89280127D01*
X150537701Y-89226598D01*
X150537699Y-89226597D01*
X150537698Y-89226597D01*
X150406271Y-89205781D01*
X150366611Y-89199500D01*
X150193389Y-89199500D01*
X150153728Y-89205781D01*
X150022302Y-89226597D01*
X149857552Y-89280128D01*
X149703211Y-89358768D01*
X149647115Y-89399525D01*
X149563072Y-89460586D01*
X149563070Y-89460588D01*
X149563069Y-89460588D01*
X149440588Y-89583069D01*
X149440588Y-89583070D01*
X149440586Y-89583072D01*
X149396859Y-89643256D01*
X149338768Y-89723211D01*
X149260128Y-89877552D01*
X149206597Y-90042302D01*
X149179500Y-90213389D01*
X147450500Y-90213389D01*
X147450500Y-90152494D01*
X147411993Y-89860007D01*
X147335639Y-89575048D01*
X147222743Y-89302493D01*
X147172604Y-89215650D01*
X147075238Y-89047006D01*
X146895647Y-88812959D01*
X146895641Y-88812952D01*
X146687047Y-88604358D01*
X146687040Y-88604352D01*
X146452993Y-88424761D01*
X146197510Y-88277258D01*
X146197500Y-88277254D01*
X145924961Y-88164364D01*
X145924954Y-88164362D01*
X145924952Y-88164361D01*
X145639993Y-88088007D01*
X145591113Y-88081571D01*
X145347513Y-88049500D01*
X145347506Y-88049500D01*
X145052494Y-88049500D01*
X145052486Y-88049500D01*
X144774085Y-88086153D01*
X144760007Y-88088007D01*
X144585861Y-88134669D01*
X144475048Y-88164361D01*
X144475038Y-88164364D01*
X144202499Y-88277254D01*
X144202489Y-88277258D01*
X143947006Y-88424761D01*
X143712959Y-88604352D01*
X143712952Y-88604358D01*
X143504358Y-88812952D01*
X143504352Y-88812959D01*
X143324761Y-89047006D01*
X143177258Y-89302489D01*
X143177254Y-89302499D01*
X143064364Y-89575038D01*
X143064361Y-89575048D01*
X142988008Y-89860004D01*
X142988006Y-89860015D01*
X142949500Y-90152486D01*
X141210854Y-90152486D01*
X141193402Y-90042299D01*
X141139873Y-89877555D01*
X141061232Y-89723212D01*
X140959414Y-89583072D01*
X140906882Y-89530540D01*
X140873397Y-89469217D01*
X140878381Y-89399525D01*
X140920253Y-89343592D01*
X140985717Y-89319175D01*
X141013961Y-89320386D01*
X141264072Y-89360000D01*
X141515928Y-89360000D01*
X141764669Y-89320602D01*
X142004184Y-89242780D01*
X142228575Y-89128446D01*
X142228581Y-89128442D01*
X142330697Y-89054250D01*
X142330698Y-89054250D01*
X141714025Y-88437578D01*
X141745258Y-88424641D01*
X141868097Y-88342563D01*
X141972563Y-88238097D01*
X142054641Y-88115258D01*
X142067578Y-88084025D01*
X142684250Y-88700698D01*
X142684250Y-88700697D01*
X142758442Y-88598581D01*
X142758446Y-88598575D01*
X142872780Y-88374184D01*
X142950602Y-88134669D01*
X142990000Y-87885928D01*
X142990000Y-87634071D01*
X142950602Y-87385330D01*
X142872780Y-87145815D01*
X142758442Y-86921416D01*
X142684250Y-86819301D01*
X142684250Y-86819300D01*
X142067577Y-87435973D01*
X142054641Y-87404742D01*
X141972563Y-87281903D01*
X141868097Y-87177437D01*
X141745258Y-87095359D01*
X141714024Y-87082421D01*
X142330698Y-86465748D01*
X142228583Y-86391557D01*
X142004184Y-86277219D01*
X141764669Y-86199397D01*
X141515928Y-86160000D01*
X141264072Y-86160000D01*
X141015330Y-86199397D01*
X140775815Y-86277219D01*
X140551413Y-86391559D01*
X140449301Y-86465747D01*
X140449300Y-86465748D01*
X141065974Y-87082421D01*
X141034742Y-87095359D01*
X140911903Y-87177437D01*
X140807437Y-87281903D01*
X140725359Y-87404742D01*
X140712421Y-87435974D01*
X140095748Y-86819300D01*
X140095747Y-86819301D01*
X140021559Y-86921413D01*
X139907219Y-87145815D01*
X139829397Y-87385330D01*
X139790000Y-87634071D01*
X139790000Y-87885928D01*
X139829397Y-88134669D01*
X139907219Y-88374184D01*
X140021557Y-88598583D01*
X140095748Y-88700697D01*
X140095748Y-88700698D01*
X140712421Y-88084024D01*
X140725359Y-88115258D01*
X140807437Y-88238097D01*
X140911903Y-88342563D01*
X141034742Y-88424641D01*
X141065974Y-88437577D01*
X140449300Y-89054250D01*
X140451598Y-89083449D01*
X140437233Y-89151827D01*
X140388181Y-89201583D01*
X140320016Y-89216921D01*
X140308583Y-89215650D01*
X140206611Y-89199500D01*
X140033389Y-89199500D01*
X139993728Y-89205781D01*
X139862302Y-89226597D01*
X139697552Y-89280128D01*
X139543211Y-89358768D01*
X139487115Y-89399525D01*
X139403072Y-89460586D01*
X139403070Y-89460588D01*
X139403069Y-89460588D01*
X139280588Y-89583069D01*
X139280588Y-89583070D01*
X139280586Y-89583072D01*
X139236859Y-89643256D01*
X139178768Y-89723211D01*
X139100128Y-89877552D01*
X139046597Y-90042302D01*
X139019500Y-90213389D01*
X104680500Y-90213389D01*
X104653402Y-90042299D01*
X104599873Y-89877555D01*
X104521232Y-89723212D01*
X104419414Y-89583072D01*
X104296928Y-89460586D01*
X104156788Y-89358768D01*
X104002445Y-89280127D01*
X103837701Y-89226598D01*
X103837699Y-89226597D01*
X103837698Y-89226597D01*
X103706271Y-89205781D01*
X103666611Y-89199500D01*
X103493389Y-89199500D01*
X103453728Y-89205781D01*
X103322302Y-89226597D01*
X103157552Y-89280128D01*
X103003211Y-89358768D01*
X102947115Y-89399525D01*
X102863072Y-89460586D01*
X102863070Y-89460588D01*
X102863069Y-89460588D01*
X102740588Y-89583069D01*
X102740588Y-89583070D01*
X102740586Y-89583072D01*
X102696859Y-89643256D01*
X102638768Y-89723211D01*
X102560128Y-89877552D01*
X102506597Y-90042302D01*
X102479500Y-90213389D01*
X100750500Y-90213389D01*
X100750500Y-90152494D01*
X100711993Y-89860007D01*
X100635639Y-89575048D01*
X100522743Y-89302493D01*
X100472604Y-89215650D01*
X100375238Y-89047006D01*
X100195647Y-88812959D01*
X100195641Y-88812952D01*
X99987047Y-88604358D01*
X99987040Y-88604352D01*
X99752993Y-88424761D01*
X99497510Y-88277258D01*
X99497500Y-88277254D01*
X99224961Y-88164364D01*
X99224954Y-88164362D01*
X99224952Y-88164361D01*
X98939993Y-88088007D01*
X98891113Y-88081571D01*
X98647513Y-88049500D01*
X98647506Y-88049500D01*
X98352494Y-88049500D01*
X98352486Y-88049500D01*
X98074085Y-88086153D01*
X98060007Y-88088007D01*
X97885861Y-88134669D01*
X97775048Y-88164361D01*
X97775038Y-88164364D01*
X97502499Y-88277254D01*
X97502489Y-88277258D01*
X97247006Y-88424761D01*
X97012959Y-88604352D01*
X97012952Y-88604358D01*
X96804358Y-88812952D01*
X96804352Y-88812959D01*
X96624761Y-89047006D01*
X96477258Y-89302489D01*
X96477254Y-89302499D01*
X96364364Y-89575038D01*
X96364361Y-89575048D01*
X96288008Y-89860004D01*
X96288006Y-89860015D01*
X96249500Y-90152486D01*
X94510854Y-90152486D01*
X94493402Y-90042299D01*
X94439873Y-89877555D01*
X94361232Y-89723212D01*
X94259414Y-89583072D01*
X94206882Y-89530540D01*
X94173397Y-89469217D01*
X94178381Y-89399525D01*
X94220253Y-89343592D01*
X94285717Y-89319175D01*
X94313961Y-89320386D01*
X94564072Y-89360000D01*
X94815928Y-89360000D01*
X95064669Y-89320602D01*
X95304184Y-89242780D01*
X95528575Y-89128446D01*
X95528581Y-89128442D01*
X95630697Y-89054250D01*
X95630698Y-89054250D01*
X95014025Y-88437578D01*
X95045258Y-88424641D01*
X95168097Y-88342563D01*
X95272563Y-88238097D01*
X95354641Y-88115258D01*
X95367577Y-88084025D01*
X95984250Y-88700698D01*
X95984250Y-88700697D01*
X96058442Y-88598581D01*
X96058446Y-88598575D01*
X96172780Y-88374184D01*
X96250602Y-88134669D01*
X96290000Y-87885928D01*
X96290000Y-87634071D01*
X96250602Y-87385330D01*
X96172780Y-87145815D01*
X96058442Y-86921416D01*
X95984250Y-86819301D01*
X95984250Y-86819300D01*
X95367577Y-87435973D01*
X95354641Y-87404742D01*
X95272563Y-87281903D01*
X95168097Y-87177437D01*
X95045258Y-87095359D01*
X95014024Y-87082421D01*
X95630698Y-86465748D01*
X95528583Y-86391557D01*
X95304184Y-86277219D01*
X95064669Y-86199397D01*
X94815928Y-86160000D01*
X94564072Y-86160000D01*
X94315330Y-86199397D01*
X94075815Y-86277219D01*
X93851413Y-86391559D01*
X93749301Y-86465747D01*
X93749300Y-86465748D01*
X94365974Y-87082421D01*
X94334742Y-87095359D01*
X94211903Y-87177437D01*
X94107437Y-87281903D01*
X94025359Y-87404742D01*
X94012421Y-87435974D01*
X93395748Y-86819300D01*
X93395747Y-86819301D01*
X93321559Y-86921413D01*
X93207219Y-87145815D01*
X93129397Y-87385330D01*
X93090000Y-87634071D01*
X93090000Y-87885928D01*
X93129397Y-88134669D01*
X93207219Y-88374184D01*
X93321557Y-88598583D01*
X93395748Y-88700697D01*
X93395748Y-88700698D01*
X94012421Y-88084024D01*
X94025359Y-88115258D01*
X94107437Y-88238097D01*
X94211903Y-88342563D01*
X94334742Y-88424641D01*
X94365974Y-88437577D01*
X93749300Y-89054250D01*
X93751598Y-89083449D01*
X93737233Y-89151827D01*
X93688181Y-89201583D01*
X93620016Y-89216921D01*
X93608583Y-89215650D01*
X93506611Y-89199500D01*
X93333389Y-89199500D01*
X93293728Y-89205781D01*
X93162302Y-89226597D01*
X92997552Y-89280128D01*
X92843211Y-89358768D01*
X92787115Y-89399525D01*
X92703072Y-89460586D01*
X92703070Y-89460588D01*
X92703069Y-89460588D01*
X92580588Y-89583069D01*
X92580588Y-89583070D01*
X92580586Y-89583072D01*
X92536859Y-89643256D01*
X92478768Y-89723211D01*
X92400128Y-89877552D01*
X92346597Y-90042302D01*
X92319500Y-90213389D01*
X72100500Y-90213389D01*
X72100500Y-66513389D01*
X79839500Y-66513389D01*
X79839500Y-66686611D01*
X79866598Y-66857701D01*
X79920127Y-67022445D01*
X79998768Y-67176788D01*
X80100586Y-67316928D01*
X80223072Y-67439414D01*
X80363212Y-67541232D01*
X80517555Y-67619873D01*
X80682299Y-67673402D01*
X80853389Y-67700500D01*
X80853390Y-67700500D01*
X81026610Y-67700500D01*
X81026611Y-67700500D01*
X81197701Y-67673402D01*
X81362445Y-67619873D01*
X81516788Y-67541232D01*
X81656928Y-67439414D01*
X81779414Y-67316928D01*
X81881232Y-67176788D01*
X81959873Y-67022445D01*
X82013402Y-66857701D01*
X82040500Y-66686611D01*
X82040500Y-66513389D01*
X82030854Y-66452486D01*
X83769500Y-66452486D01*
X83769500Y-66747513D01*
X83801571Y-66991113D01*
X83808007Y-67039993D01*
X83882212Y-67316930D01*
X83884361Y-67324951D01*
X83884364Y-67324961D01*
X83997254Y-67597500D01*
X83997258Y-67597510D01*
X84144761Y-67852993D01*
X84324352Y-68087040D01*
X84324358Y-68087047D01*
X84532952Y-68295641D01*
X84532959Y-68295647D01*
X84767006Y-68475238D01*
X85022489Y-68622741D01*
X85022490Y-68622741D01*
X85022493Y-68622743D01*
X85295048Y-68735639D01*
X85580007Y-68811993D01*
X85872494Y-68850500D01*
X85872501Y-68850500D01*
X86167499Y-68850500D01*
X86167506Y-68850500D01*
X86459993Y-68811993D01*
X86744952Y-68735639D01*
X87017507Y-68622743D01*
X87272994Y-68475238D01*
X87507042Y-68295646D01*
X87715646Y-68087042D01*
X87895238Y-67852994D01*
X88042743Y-67597507D01*
X88155639Y-67324952D01*
X88231993Y-67039993D01*
X88270500Y-66747506D01*
X88270500Y-66513389D01*
X89999500Y-66513389D01*
X89999500Y-66686611D01*
X90026598Y-66857701D01*
X90080127Y-67022445D01*
X90158768Y-67176788D01*
X90260586Y-67316928D01*
X90383072Y-67439414D01*
X90523212Y-67541232D01*
X90677555Y-67619873D01*
X90842299Y-67673402D01*
X91013389Y-67700500D01*
X91013390Y-67700500D01*
X91186610Y-67700500D01*
X91186611Y-67700500D01*
X91357701Y-67673402D01*
X91522445Y-67619873D01*
X91676788Y-67541232D01*
X91816928Y-67439414D01*
X91939414Y-67316928D01*
X92041232Y-67176788D01*
X92119873Y-67022445D01*
X92173402Y-66857701D01*
X92200500Y-66686611D01*
X92200500Y-66513389D01*
X92173402Y-66342299D01*
X92119873Y-66177555D01*
X92041232Y-66023212D01*
X91939414Y-65883072D01*
X91816928Y-65760586D01*
X91676788Y-65658768D01*
X91522445Y-65580127D01*
X91357701Y-65526598D01*
X91357699Y-65526597D01*
X91357698Y-65526597D01*
X91226271Y-65505781D01*
X91186611Y-65499500D01*
X91013389Y-65499500D01*
X90973728Y-65505781D01*
X90842302Y-65526597D01*
X90677552Y-65580128D01*
X90523211Y-65658768D01*
X90467115Y-65699525D01*
X90383072Y-65760586D01*
X90383070Y-65760588D01*
X90383069Y-65760588D01*
X90260588Y-65883069D01*
X90260588Y-65883070D01*
X90260586Y-65883072D01*
X90217205Y-65942780D01*
X90158768Y-66023211D01*
X90080128Y-66177552D01*
X90026597Y-66342302D01*
X89999500Y-66513389D01*
X88270500Y-66513389D01*
X88270500Y-66452494D01*
X88231993Y-66160007D01*
X88155639Y-65875048D01*
X88042743Y-65602493D01*
X87992604Y-65515650D01*
X87895238Y-65347006D01*
X87715647Y-65112959D01*
X87715641Y-65112952D01*
X87507047Y-64904358D01*
X87507040Y-64904352D01*
X87272993Y-64724761D01*
X87017510Y-64577258D01*
X87017500Y-64577254D01*
X86744961Y-64464364D01*
X86744954Y-64464362D01*
X86744952Y-64464361D01*
X86459993Y-64388007D01*
X86411113Y-64381571D01*
X86167513Y-64349500D01*
X86167506Y-64349500D01*
X85872494Y-64349500D01*
X85872486Y-64349500D01*
X85594085Y-64386153D01*
X85580007Y-64388007D01*
X85405861Y-64434669D01*
X85295048Y-64464361D01*
X85295038Y-64464364D01*
X85022499Y-64577254D01*
X85022489Y-64577258D01*
X84767006Y-64724761D01*
X84532959Y-64904352D01*
X84532952Y-64904358D01*
X84324358Y-65112952D01*
X84324352Y-65112959D01*
X84144761Y-65347006D01*
X83997258Y-65602489D01*
X83997254Y-65602499D01*
X83884364Y-65875038D01*
X83884361Y-65875048D01*
X83850213Y-66002493D01*
X83808008Y-66160004D01*
X83808006Y-66160015D01*
X83769500Y-66452486D01*
X82030854Y-66452486D01*
X82013402Y-66342299D01*
X81959873Y-66177555D01*
X81881232Y-66023212D01*
X81779414Y-65883072D01*
X81726882Y-65830540D01*
X81693397Y-65769217D01*
X81698381Y-65699525D01*
X81740253Y-65643592D01*
X81805717Y-65619175D01*
X81833961Y-65620386D01*
X82084072Y-65660000D01*
X82335928Y-65660000D01*
X82584669Y-65620602D01*
X82824184Y-65542780D01*
X83048575Y-65428446D01*
X83048581Y-65428442D01*
X83150697Y-65354250D01*
X83150698Y-65354250D01*
X82534025Y-64737578D01*
X82565258Y-64724641D01*
X82688097Y-64642563D01*
X82792563Y-64538097D01*
X82874641Y-64415258D01*
X82887577Y-64384025D01*
X83504250Y-65000698D01*
X83504250Y-65000697D01*
X83578442Y-64898581D01*
X83578446Y-64898575D01*
X83692780Y-64674184D01*
X83770602Y-64434669D01*
X83810000Y-64185928D01*
X83810000Y-63934071D01*
X83770602Y-63685330D01*
X83692780Y-63445815D01*
X83578442Y-63221416D01*
X83504250Y-63119301D01*
X83504250Y-63119300D01*
X82887577Y-63735973D01*
X82874641Y-63704742D01*
X82792563Y-63581903D01*
X82688097Y-63477437D01*
X82565258Y-63395359D01*
X82534024Y-63382421D01*
X83150698Y-62765748D01*
X83048583Y-62691557D01*
X82824184Y-62577219D01*
X82584669Y-62499397D01*
X82335928Y-62460000D01*
X82084072Y-62460000D01*
X81835330Y-62499397D01*
X81595815Y-62577219D01*
X81371413Y-62691559D01*
X81269301Y-62765747D01*
X81269300Y-62765748D01*
X81885974Y-63382421D01*
X81854742Y-63395359D01*
X81731903Y-63477437D01*
X81627437Y-63581903D01*
X81545359Y-63704742D01*
X81532421Y-63735974D01*
X80915748Y-63119300D01*
X80915747Y-63119301D01*
X80841559Y-63221413D01*
X80727219Y-63445815D01*
X80649397Y-63685330D01*
X80610000Y-63934071D01*
X80610000Y-64185928D01*
X80649397Y-64434669D01*
X80727219Y-64674184D01*
X80841557Y-64898583D01*
X80915748Y-65000697D01*
X80915748Y-65000698D01*
X81532421Y-64384024D01*
X81545359Y-64415258D01*
X81627437Y-64538097D01*
X81731903Y-64642563D01*
X81854742Y-64724641D01*
X81885974Y-64737577D01*
X81269300Y-65354250D01*
X81271598Y-65383449D01*
X81257233Y-65451827D01*
X81208181Y-65501583D01*
X81140016Y-65516921D01*
X81128583Y-65515650D01*
X81026611Y-65499500D01*
X80853389Y-65499500D01*
X80813728Y-65505781D01*
X80682302Y-65526597D01*
X80517552Y-65580128D01*
X80363211Y-65658768D01*
X80307115Y-65699525D01*
X80223072Y-65760586D01*
X80223070Y-65760588D01*
X80223069Y-65760588D01*
X80100588Y-65883069D01*
X80100588Y-65883070D01*
X80100586Y-65883072D01*
X80057205Y-65942780D01*
X79998768Y-66023211D01*
X79920128Y-66177552D01*
X79866597Y-66342302D01*
X79839500Y-66513389D01*
X72100500Y-66513389D01*
X72100500Y-61394038D01*
X86959500Y-61394038D01*
X86959500Y-61645961D01*
X86998910Y-61894785D01*
X87076760Y-62134383D01*
X87191132Y-62358848D01*
X87339201Y-62562649D01*
X87339205Y-62562654D01*
X87517345Y-62740794D01*
X87517350Y-62740798D01*
X87681419Y-62860000D01*
X87721155Y-62888870D01*
X87864184Y-62961747D01*
X87945616Y-63003239D01*
X87945618Y-63003239D01*
X87945621Y-63003241D01*
X88185215Y-63081090D01*
X88434038Y-63120500D01*
X88434039Y-63120500D01*
X88685961Y-63120500D01*
X88685962Y-63120500D01*
X88934785Y-63081090D01*
X89174379Y-63003241D01*
X89398845Y-62888870D01*
X89602656Y-62740793D01*
X89780793Y-62562656D01*
X89928870Y-62358845D01*
X90043241Y-62134379D01*
X90121090Y-61894785D01*
X90160500Y-61645962D01*
X90160500Y-61394038D01*
X90121090Y-61145215D01*
X90043241Y-60905621D01*
X90043239Y-60905618D01*
X90043239Y-60905616D01*
X90001747Y-60824184D01*
X89928870Y-60681155D01*
X89834402Y-60551130D01*
X89780798Y-60477350D01*
X89780794Y-60477345D01*
X89602654Y-60299205D01*
X89602649Y-60299201D01*
X89398848Y-60151132D01*
X89398847Y-60151131D01*
X89398845Y-60151130D01*
X89328747Y-60115413D01*
X89174383Y-60036760D01*
X88934785Y-59958910D01*
X88685962Y-59919500D01*
X88434038Y-59919500D01*
X88309626Y-59939205D01*
X88185214Y-59958910D01*
X87945616Y-60036760D01*
X87721151Y-60151132D01*
X87517350Y-60299201D01*
X87517345Y-60299205D01*
X87339205Y-60477345D01*
X87339201Y-60477350D01*
X87191132Y-60681151D01*
X87076760Y-60905616D01*
X86998910Y-61145214D01*
X86959500Y-61394038D01*
X72100500Y-61394038D01*
X72100500Y-28357648D01*
X82179500Y-28357648D01*
X82179500Y-28562351D01*
X82211522Y-28764534D01*
X82274781Y-28959223D01*
X82367715Y-29141613D01*
X82488028Y-29307213D01*
X82632786Y-29451971D01*
X82787749Y-29564556D01*
X82798390Y-29572287D01*
X82887212Y-29617544D01*
X82980776Y-29665218D01*
X82980778Y-29665218D01*
X82980781Y-29665220D01*
X83085137Y-29699127D01*
X83175465Y-29728477D01*
X83276557Y-29744488D01*
X83377648Y-29760500D01*
X83377649Y-29760500D01*
X83582351Y-29760500D01*
X83582352Y-29760500D01*
X83784534Y-29728477D01*
X83798842Y-29723827D01*
X83868682Y-29721831D01*
X83924842Y-29754077D01*
X89362181Y-35191416D01*
X89395666Y-35252739D01*
X89398500Y-35279097D01*
X89398500Y-42465302D01*
X89378815Y-42532341D01*
X89326011Y-42578096D01*
X89256853Y-42588040D01*
X89218205Y-42575787D01*
X89059223Y-42494782D01*
X89059222Y-42494781D01*
X89059219Y-42494780D01*
X88968495Y-42465302D01*
X88864534Y-42431522D01*
X88689995Y-42403878D01*
X88662352Y-42399500D01*
X88457648Y-42399500D01*
X88433329Y-42403351D01*
X88255465Y-42431522D01*
X88060776Y-42494781D01*
X87878386Y-42587715D01*
X87712786Y-42708028D01*
X87568028Y-42852786D01*
X87447715Y-43018386D01*
X87400485Y-43111080D01*
X87352510Y-43161876D01*
X87284689Y-43178671D01*
X87218554Y-43156134D01*
X87179515Y-43111080D01*
X87132419Y-43018650D01*
X87132287Y-43018390D01*
X87124556Y-43007749D01*
X87011971Y-42852786D01*
X86867213Y-42708028D01*
X86701613Y-42587715D01*
X86701612Y-42587714D01*
X86701610Y-42587713D01*
X86603735Y-42537843D01*
X86519223Y-42494781D01*
X86324534Y-42431522D01*
X86149995Y-42403878D01*
X86122352Y-42399500D01*
X85917648Y-42399500D01*
X85893329Y-42403351D01*
X85715465Y-42431522D01*
X85520776Y-42494781D01*
X85338386Y-42587715D01*
X85172786Y-42708028D01*
X85028028Y-42852786D01*
X84907715Y-43018386D01*
X84860485Y-43111080D01*
X84812510Y-43161876D01*
X84744689Y-43178671D01*
X84678554Y-43156134D01*
X84639515Y-43111080D01*
X84592419Y-43018650D01*
X84592287Y-43018390D01*
X84584556Y-43007749D01*
X84471971Y-42852786D01*
X84327213Y-42708028D01*
X84161613Y-42587715D01*
X84161612Y-42587714D01*
X84161610Y-42587713D01*
X84063735Y-42537843D01*
X83979223Y-42494781D01*
X83784534Y-42431522D01*
X83609995Y-42403878D01*
X83582352Y-42399500D01*
X83377648Y-42399500D01*
X83353329Y-42403351D01*
X83175465Y-42431522D01*
X82980776Y-42494781D01*
X82798386Y-42587715D01*
X82632786Y-42708028D01*
X82488028Y-42852786D01*
X82367715Y-43018386D01*
X82274781Y-43200776D01*
X82211522Y-43395465D01*
X82179500Y-43597648D01*
X82179500Y-43802351D01*
X82211522Y-44004534D01*
X82274781Y-44199223D01*
X82367715Y-44381613D01*
X82488028Y-44547213D01*
X82632786Y-44691971D01*
X82787749Y-44804556D01*
X82798390Y-44812287D01*
X82900499Y-44864314D01*
X82980776Y-44905218D01*
X82980778Y-44905218D01*
X82980781Y-44905220D01*
X83062817Y-44931875D01*
X83175465Y-44968477D01*
X83265688Y-44982767D01*
X83377648Y-45000500D01*
X83377649Y-45000500D01*
X83582351Y-45000500D01*
X83582352Y-45000500D01*
X83784534Y-44968477D01*
X83979219Y-44905220D01*
X84161610Y-44812287D01*
X84254590Y-44744732D01*
X84327213Y-44691971D01*
X84327215Y-44691968D01*
X84327219Y-44691966D01*
X84471966Y-44547219D01*
X84471968Y-44547215D01*
X84471971Y-44547213D01*
X84592284Y-44381614D01*
X84592286Y-44381611D01*
X84592287Y-44381610D01*
X84639516Y-44288917D01*
X84687489Y-44238123D01*
X84755310Y-44221328D01*
X84821445Y-44243865D01*
X84860485Y-44288919D01*
X84907715Y-44381614D01*
X85028028Y-44547213D01*
X85172786Y-44691971D01*
X85327749Y-44804556D01*
X85338390Y-44812287D01*
X85440499Y-44864314D01*
X85520776Y-44905218D01*
X85520778Y-44905218D01*
X85520781Y-44905220D01*
X85602817Y-44931875D01*
X85715465Y-44968477D01*
X85805688Y-44982767D01*
X85917648Y-45000500D01*
X85917649Y-45000500D01*
X86122351Y-45000500D01*
X86122352Y-45000500D01*
X86324534Y-44968477D01*
X86519219Y-44905220D01*
X86701610Y-44812287D01*
X86794590Y-44744732D01*
X86867213Y-44691971D01*
X86867215Y-44691968D01*
X86867219Y-44691966D01*
X87011966Y-44547219D01*
X87011968Y-44547215D01*
X87011971Y-44547213D01*
X87132284Y-44381614D01*
X87132286Y-44381611D01*
X87132287Y-44381610D01*
X87179516Y-44288917D01*
X87227489Y-44238123D01*
X87295310Y-44221328D01*
X87361445Y-44243865D01*
X87400485Y-44288919D01*
X87447715Y-44381614D01*
X87568028Y-44547213D01*
X87712786Y-44691971D01*
X87867749Y-44804556D01*
X87878390Y-44812287D01*
X87980499Y-44864314D01*
X88060776Y-44905218D01*
X88060778Y-44905218D01*
X88060781Y-44905220D01*
X88142817Y-44931875D01*
X88255465Y-44968477D01*
X88345688Y-44982767D01*
X88457648Y-45000500D01*
X88457649Y-45000500D01*
X88662351Y-45000500D01*
X88662352Y-45000500D01*
X88864534Y-44968477D01*
X89059219Y-44905220D01*
X89218206Y-44824211D01*
X89286874Y-44811316D01*
X89351614Y-44837592D01*
X89391872Y-44894698D01*
X89398500Y-44934697D01*
X89398500Y-53312330D01*
X89398499Y-53312348D01*
X89398499Y-53478054D01*
X89398498Y-53478054D01*
X89439423Y-53630785D01*
X89468358Y-53680900D01*
X89468359Y-53680904D01*
X89468360Y-53680904D01*
X89518479Y-53767714D01*
X89518481Y-53767717D01*
X89637349Y-53886585D01*
X89637355Y-53886590D01*
X100403181Y-64652416D01*
X100436666Y-64713739D01*
X100439500Y-64740097D01*
X100439500Y-83653699D01*
X100419815Y-83720738D01*
X100371795Y-83764184D01*
X100201151Y-83851132D01*
X99997350Y-83999201D01*
X99997345Y-83999205D01*
X99819205Y-84177345D01*
X99819201Y-84177350D01*
X99671132Y-84381151D01*
X99556760Y-84605616D01*
X99478910Y-84845214D01*
X99439500Y-85094038D01*
X99439500Y-85345961D01*
X99478910Y-85594785D01*
X99556760Y-85834383D01*
X99671132Y-86058848D01*
X99819201Y-86262649D01*
X99819205Y-86262654D01*
X99997345Y-86440794D01*
X99997350Y-86440798D01*
X100175117Y-86569952D01*
X100201155Y-86588870D01*
X100344184Y-86661747D01*
X100425616Y-86703239D01*
X100425618Y-86703239D01*
X100425621Y-86703241D01*
X100665215Y-86781090D01*
X100914038Y-86820500D01*
X100914039Y-86820500D01*
X101165961Y-86820500D01*
X101165962Y-86820500D01*
X101414785Y-86781090D01*
X101654379Y-86703241D01*
X101878845Y-86588870D01*
X102082656Y-86440793D01*
X102260793Y-86262656D01*
X102408870Y-86058845D01*
X102523241Y-85834379D01*
X102601090Y-85594785D01*
X102640500Y-85345962D01*
X102640500Y-85094038D01*
X146139500Y-85094038D01*
X146139500Y-85345961D01*
X146178910Y-85594785D01*
X146256760Y-85834383D01*
X146371132Y-86058848D01*
X146519201Y-86262649D01*
X146519205Y-86262654D01*
X146697345Y-86440794D01*
X146697350Y-86440798D01*
X146875117Y-86569952D01*
X146901155Y-86588870D01*
X147044184Y-86661747D01*
X147125616Y-86703239D01*
X147125618Y-86703239D01*
X147125621Y-86703241D01*
X147365215Y-86781090D01*
X147614038Y-86820500D01*
X147614039Y-86820500D01*
X147865961Y-86820500D01*
X147865962Y-86820500D01*
X148114785Y-86781090D01*
X148354379Y-86703241D01*
X148578845Y-86588870D01*
X148782656Y-86440793D01*
X148960793Y-86262656D01*
X149108870Y-86058845D01*
X149223241Y-85834379D01*
X149301090Y-85594785D01*
X149340500Y-85345962D01*
X149340500Y-85094038D01*
X149301090Y-84845215D01*
X149223241Y-84605621D01*
X149223239Y-84605618D01*
X149223239Y-84605616D01*
X149181747Y-84524184D01*
X149108870Y-84381155D01*
X149089952Y-84355117D01*
X148960798Y-84177350D01*
X148960794Y-84177345D01*
X148782654Y-83999205D01*
X148782649Y-83999201D01*
X148578848Y-83851132D01*
X148578847Y-83851131D01*
X148578845Y-83851130D01*
X148508747Y-83815413D01*
X148354383Y-83736760D01*
X148114785Y-83658910D01*
X148081884Y-83653699D01*
X147865962Y-83619500D01*
X147614038Y-83619500D01*
X147489626Y-83639205D01*
X147365214Y-83658910D01*
X147125616Y-83736760D01*
X146901151Y-83851132D01*
X146697350Y-83999201D01*
X146697345Y-83999205D01*
X146519205Y-84177345D01*
X146519201Y-84177350D01*
X146371132Y-84381151D01*
X146256760Y-84605616D01*
X146178910Y-84845214D01*
X146139500Y-85094038D01*
X102640500Y-85094038D01*
X102601090Y-84845215D01*
X102523241Y-84605621D01*
X102523239Y-84605618D01*
X102523239Y-84605616D01*
X102481747Y-84524184D01*
X102408870Y-84381155D01*
X102389952Y-84355117D01*
X102260798Y-84177350D01*
X102260794Y-84177345D01*
X102082654Y-83999205D01*
X102082649Y-83999201D01*
X101878848Y-83851132D01*
X101878847Y-83851131D01*
X101878845Y-83851130D01*
X101809186Y-83815637D01*
X101708205Y-83764184D01*
X101657409Y-83716209D01*
X101640500Y-83653699D01*
X101640500Y-72881372D01*
X107999500Y-72881372D01*
X107999500Y-73143627D01*
X108026123Y-73345839D01*
X108033730Y-73403616D01*
X108101602Y-73656918D01*
X108101605Y-73656928D01*
X108201953Y-73899190D01*
X108201958Y-73899200D01*
X108333075Y-74126303D01*
X108492718Y-74334351D01*
X108492726Y-74334360D01*
X108678140Y-74519774D01*
X108678148Y-74519781D01*
X108886196Y-74679424D01*
X109113299Y-74810541D01*
X109113309Y-74810546D01*
X109355571Y-74910894D01*
X109355581Y-74910898D01*
X109608884Y-74978770D01*
X109868880Y-75013000D01*
X109868887Y-75013000D01*
X110131113Y-75013000D01*
X110131120Y-75013000D01*
X110391116Y-74978770D01*
X110644419Y-74910898D01*
X110886697Y-74810543D01*
X111113803Y-74679424D01*
X111321851Y-74519782D01*
X111321855Y-74519777D01*
X111321860Y-74519774D01*
X111507274Y-74334360D01*
X111507277Y-74334355D01*
X111507282Y-74334351D01*
X111666924Y-74126303D01*
X111798043Y-73899197D01*
X111898398Y-73656919D01*
X111966270Y-73403616D01*
X112000500Y-73143620D01*
X112000500Y-72881380D01*
X112000499Y-72881372D01*
X129999500Y-72881372D01*
X129999500Y-73143627D01*
X130026123Y-73345839D01*
X130033730Y-73403616D01*
X130101602Y-73656918D01*
X130101605Y-73656928D01*
X130201953Y-73899190D01*
X130201958Y-73899200D01*
X130333075Y-74126303D01*
X130492718Y-74334351D01*
X130492726Y-74334360D01*
X130678140Y-74519774D01*
X130678148Y-74519781D01*
X130886196Y-74679424D01*
X131113299Y-74810541D01*
X131113309Y-74810546D01*
X131355571Y-74910894D01*
X131355581Y-74910898D01*
X131608884Y-74978770D01*
X131868880Y-75013000D01*
X131868887Y-75013000D01*
X132131113Y-75013000D01*
X132131120Y-75013000D01*
X132391116Y-74978770D01*
X132644419Y-74910898D01*
X132886697Y-74810543D01*
X133113803Y-74679424D01*
X133321851Y-74519782D01*
X133321855Y-74519777D01*
X133321860Y-74519774D01*
X133507274Y-74334360D01*
X133507277Y-74334355D01*
X133507282Y-74334351D01*
X133666924Y-74126303D01*
X133798043Y-73899197D01*
X133898398Y-73656919D01*
X133966270Y-73403616D01*
X134000500Y-73143620D01*
X134000500Y-72881380D01*
X133966270Y-72621384D01*
X133898398Y-72368081D01*
X133898394Y-72368071D01*
X133798046Y-72125809D01*
X133798041Y-72125799D01*
X133666924Y-71898696D01*
X133507281Y-71690648D01*
X133507274Y-71690640D01*
X133321860Y-71505226D01*
X133321851Y-71505218D01*
X133113803Y-71345575D01*
X132886700Y-71214458D01*
X132886690Y-71214453D01*
X132644428Y-71114105D01*
X132644421Y-71114103D01*
X132644419Y-71114102D01*
X132391116Y-71046230D01*
X132333339Y-71038623D01*
X132131127Y-71012000D01*
X132131120Y-71012000D01*
X131868880Y-71012000D01*
X131868872Y-71012000D01*
X131637772Y-71042426D01*
X131608884Y-71046230D01*
X131355581Y-71114102D01*
X131355571Y-71114105D01*
X131113309Y-71214453D01*
X131113299Y-71214458D01*
X130886196Y-71345575D01*
X130678148Y-71505218D01*
X130492718Y-71690648D01*
X130333075Y-71898696D01*
X130201958Y-72125799D01*
X130201953Y-72125809D01*
X130101605Y-72368071D01*
X130101602Y-72368081D01*
X130033730Y-72621385D01*
X129999500Y-72881372D01*
X112000499Y-72881372D01*
X111966270Y-72621384D01*
X111898398Y-72368081D01*
X111898394Y-72368071D01*
X111798046Y-72125809D01*
X111798041Y-72125799D01*
X111666924Y-71898696D01*
X111507281Y-71690648D01*
X111507274Y-71690640D01*
X111321860Y-71505226D01*
X111321851Y-71505218D01*
X111113803Y-71345575D01*
X110886700Y-71214458D01*
X110886690Y-71214453D01*
X110644428Y-71114105D01*
X110644421Y-71114103D01*
X110644419Y-71114102D01*
X110391116Y-71046230D01*
X110333339Y-71038623D01*
X110131127Y-71012000D01*
X110131120Y-71012000D01*
X109868880Y-71012000D01*
X109868872Y-71012000D01*
X109637772Y-71042426D01*
X109608884Y-71046230D01*
X109355581Y-71114102D01*
X109355571Y-71114105D01*
X109113309Y-71214453D01*
X109113299Y-71214458D01*
X108886196Y-71345575D01*
X108678148Y-71505218D01*
X108492718Y-71690648D01*
X108333075Y-71898696D01*
X108201958Y-72125799D01*
X108201953Y-72125809D01*
X108101605Y-72368071D01*
X108101602Y-72368081D01*
X108033730Y-72621385D01*
X107999500Y-72881372D01*
X101640500Y-72881372D01*
X101640500Y-66913389D01*
X151019500Y-66913389D01*
X151019500Y-67086611D01*
X151046598Y-67257701D01*
X151100127Y-67422445D01*
X151178768Y-67576788D01*
X151280586Y-67716928D01*
X151403072Y-67839414D01*
X151543212Y-67941232D01*
X151697555Y-68019873D01*
X151862299Y-68073402D01*
X152033389Y-68100500D01*
X152033390Y-68100500D01*
X152206610Y-68100500D01*
X152206611Y-68100500D01*
X152377701Y-68073402D01*
X152542445Y-68019873D01*
X152696788Y-67941232D01*
X152836928Y-67839414D01*
X152959414Y-67716928D01*
X153061232Y-67576788D01*
X153139873Y-67422445D01*
X153193402Y-67257701D01*
X153220500Y-67086611D01*
X153220500Y-66913389D01*
X153210854Y-66852486D01*
X154949500Y-66852486D01*
X154949500Y-67147513D01*
X154981571Y-67391113D01*
X154988007Y-67439993D01*
X155062212Y-67716930D01*
X155064361Y-67724951D01*
X155064364Y-67724961D01*
X155177254Y-67997500D01*
X155177258Y-67997510D01*
X155324761Y-68252993D01*
X155504352Y-68487040D01*
X155504358Y-68487047D01*
X155712952Y-68695641D01*
X155712959Y-68695647D01*
X155947006Y-68875238D01*
X156202489Y-69022741D01*
X156202490Y-69022741D01*
X156202493Y-69022743D01*
X156475048Y-69135639D01*
X156760007Y-69211993D01*
X157052494Y-69250500D01*
X157052501Y-69250500D01*
X157347499Y-69250500D01*
X157347506Y-69250500D01*
X157639993Y-69211993D01*
X157924952Y-69135639D01*
X158197507Y-69022743D01*
X158452994Y-68875238D01*
X158687042Y-68695646D01*
X158895646Y-68487042D01*
X159075238Y-68252994D01*
X159222743Y-67997507D01*
X159335639Y-67724952D01*
X159411993Y-67439993D01*
X159450500Y-67147506D01*
X159450500Y-66913389D01*
X161179500Y-66913389D01*
X161179500Y-67086611D01*
X161206598Y-67257701D01*
X161260127Y-67422445D01*
X161338768Y-67576788D01*
X161440586Y-67716928D01*
X161563072Y-67839414D01*
X161703212Y-67941232D01*
X161857555Y-68019873D01*
X162022299Y-68073402D01*
X162193389Y-68100500D01*
X162193390Y-68100500D01*
X162366610Y-68100500D01*
X162366611Y-68100500D01*
X162537701Y-68073402D01*
X162702445Y-68019873D01*
X162856788Y-67941232D01*
X162996928Y-67839414D01*
X163119414Y-67716928D01*
X163221232Y-67576788D01*
X163299873Y-67422445D01*
X163353402Y-67257701D01*
X163380500Y-67086611D01*
X163380500Y-66913389D01*
X163353402Y-66742299D01*
X163299873Y-66577555D01*
X163221232Y-66423212D01*
X163119414Y-66283072D01*
X162996928Y-66160586D01*
X162856788Y-66058768D01*
X162702445Y-65980127D01*
X162537701Y-65926598D01*
X162537699Y-65926597D01*
X162537698Y-65926597D01*
X162406271Y-65905781D01*
X162366611Y-65899500D01*
X162193389Y-65899500D01*
X162153728Y-65905781D01*
X162022302Y-65926597D01*
X161857552Y-65980128D01*
X161703211Y-66058768D01*
X161647115Y-66099525D01*
X161563072Y-66160586D01*
X161563070Y-66160588D01*
X161563069Y-66160588D01*
X161440588Y-66283069D01*
X161440588Y-66283070D01*
X161440586Y-66283072D01*
X161397555Y-66342299D01*
X161338768Y-66423211D01*
X161260128Y-66577552D01*
X161206597Y-66742302D01*
X161179500Y-66913389D01*
X159450500Y-66913389D01*
X159450500Y-66852494D01*
X159411993Y-66560007D01*
X159335639Y-66275048D01*
X159222743Y-66002493D01*
X159172604Y-65915650D01*
X159075238Y-65747006D01*
X158895647Y-65512959D01*
X158895641Y-65512952D01*
X158687047Y-65304358D01*
X158687040Y-65304352D01*
X158452993Y-65124761D01*
X158197510Y-64977258D01*
X158197500Y-64977254D01*
X157924961Y-64864364D01*
X157924954Y-64864362D01*
X157924952Y-64864361D01*
X157639993Y-64788007D01*
X157588122Y-64781178D01*
X157347513Y-64749500D01*
X157347506Y-64749500D01*
X157052494Y-64749500D01*
X157052486Y-64749500D01*
X156774085Y-64786153D01*
X156760007Y-64788007D01*
X156585861Y-64834669D01*
X156475048Y-64864361D01*
X156475038Y-64864364D01*
X156202499Y-64977254D01*
X156202489Y-64977258D01*
X155947006Y-65124761D01*
X155712959Y-65304352D01*
X155712952Y-65304358D01*
X155504358Y-65512952D01*
X155504352Y-65512959D01*
X155324761Y-65747006D01*
X155177258Y-66002489D01*
X155177254Y-66002499D01*
X155064364Y-66275038D01*
X155064361Y-66275048D01*
X155046341Y-66342302D01*
X154988008Y-66560004D01*
X154988006Y-66560015D01*
X154949500Y-66852486D01*
X153210854Y-66852486D01*
X153193402Y-66742299D01*
X153139873Y-66577555D01*
X153061232Y-66423212D01*
X152959414Y-66283072D01*
X152906882Y-66230540D01*
X152873397Y-66169217D01*
X152878381Y-66099525D01*
X152920253Y-66043592D01*
X152985717Y-66019175D01*
X153013961Y-66020386D01*
X153264072Y-66060000D01*
X153515928Y-66060000D01*
X153764669Y-66020602D01*
X154004184Y-65942780D01*
X154228575Y-65828446D01*
X154228581Y-65828442D01*
X154330697Y-65754250D01*
X154330698Y-65754250D01*
X153714025Y-65137578D01*
X153745258Y-65124641D01*
X153868097Y-65042563D01*
X153972563Y-64938097D01*
X154054641Y-64815258D01*
X154067578Y-64784025D01*
X154684250Y-65400698D01*
X154684250Y-65400697D01*
X154758442Y-65298581D01*
X154758446Y-65298575D01*
X154872780Y-65074184D01*
X154950602Y-64834669D01*
X154990000Y-64585928D01*
X154990000Y-64334071D01*
X154950602Y-64085330D01*
X154872780Y-63845815D01*
X154758442Y-63621416D01*
X154684250Y-63519301D01*
X154684250Y-63519300D01*
X154067577Y-64135973D01*
X154054641Y-64104742D01*
X153972563Y-63981903D01*
X153868097Y-63877437D01*
X153745258Y-63795359D01*
X153714024Y-63782421D01*
X154330698Y-63165748D01*
X154228583Y-63091557D01*
X154004184Y-62977219D01*
X153764669Y-62899397D01*
X153515928Y-62860000D01*
X153264072Y-62860000D01*
X153015330Y-62899397D01*
X152775815Y-62977219D01*
X152551413Y-63091559D01*
X152449301Y-63165747D01*
X152449300Y-63165748D01*
X153065974Y-63782421D01*
X153034742Y-63795359D01*
X152911903Y-63877437D01*
X152807437Y-63981903D01*
X152725359Y-64104742D01*
X152712421Y-64135974D01*
X152095748Y-63519300D01*
X152095747Y-63519301D01*
X152021559Y-63621413D01*
X151907219Y-63845815D01*
X151829397Y-64085330D01*
X151790000Y-64334071D01*
X151790000Y-64585928D01*
X151829397Y-64834669D01*
X151907219Y-65074184D01*
X152021557Y-65298583D01*
X152095748Y-65400697D01*
X152095748Y-65400698D01*
X152712421Y-64784024D01*
X152725359Y-64815258D01*
X152807437Y-64938097D01*
X152911903Y-65042563D01*
X153034742Y-65124641D01*
X153065974Y-65137577D01*
X152449300Y-65754250D01*
X152451598Y-65783449D01*
X152437233Y-65851827D01*
X152388181Y-65901583D01*
X152320016Y-65916921D01*
X152308583Y-65915650D01*
X152206611Y-65899500D01*
X152033389Y-65899500D01*
X151993728Y-65905781D01*
X151862302Y-65926597D01*
X151697552Y-65980128D01*
X151543211Y-66058768D01*
X151487115Y-66099525D01*
X151403072Y-66160586D01*
X151403070Y-66160588D01*
X151403069Y-66160588D01*
X151280588Y-66283069D01*
X151280588Y-66283070D01*
X151280586Y-66283072D01*
X151237555Y-66342299D01*
X151178768Y-66423211D01*
X151100128Y-66577552D01*
X151046597Y-66742302D01*
X151019500Y-66913389D01*
X101640500Y-66913389D01*
X101640500Y-64530361D01*
X101640500Y-64519060D01*
X101640501Y-64519057D01*
X101640501Y-64360943D01*
X101599577Y-64208215D01*
X101570639Y-64158095D01*
X101520520Y-64071284D01*
X101408716Y-63959480D01*
X101408715Y-63959479D01*
X101404385Y-63955149D01*
X101404374Y-63955139D01*
X99243273Y-61794038D01*
X158139500Y-61794038D01*
X158139500Y-62045961D01*
X158178910Y-62294785D01*
X158256760Y-62534383D01*
X158371132Y-62758848D01*
X158519201Y-62962649D01*
X158519205Y-62962654D01*
X158697345Y-63140794D01*
X158697350Y-63140798D01*
X158808308Y-63221413D01*
X158901155Y-63288870D01*
X159044184Y-63361747D01*
X159125616Y-63403239D01*
X159125618Y-63403239D01*
X159125621Y-63403241D01*
X159365215Y-63481090D01*
X159614038Y-63520500D01*
X159614039Y-63520500D01*
X159865961Y-63520500D01*
X159865962Y-63520500D01*
X160114785Y-63481090D01*
X160354379Y-63403241D01*
X160578845Y-63288870D01*
X160782656Y-63140793D01*
X160960793Y-62962656D01*
X161108870Y-62758845D01*
X161223241Y-62534379D01*
X161301090Y-62294785D01*
X161340500Y-62045962D01*
X161340500Y-61794038D01*
X161301090Y-61545215D01*
X161223241Y-61305621D01*
X161223239Y-61305618D01*
X161223239Y-61305616D01*
X161141510Y-61145215D01*
X161108870Y-61081155D01*
X161089952Y-61055117D01*
X160960798Y-60877350D01*
X160960794Y-60877345D01*
X160782654Y-60699205D01*
X160782649Y-60699201D01*
X160578848Y-60551132D01*
X160578847Y-60551131D01*
X160578845Y-60551130D01*
X160508747Y-60515413D01*
X160354383Y-60436760D01*
X160114785Y-60358910D01*
X159865962Y-60319500D01*
X159614038Y-60319500D01*
X159489626Y-60339205D01*
X159365214Y-60358910D01*
X159125616Y-60436760D01*
X158901151Y-60551132D01*
X158697350Y-60699201D01*
X158697345Y-60699205D01*
X158519205Y-60877345D01*
X158519201Y-60877350D01*
X158371132Y-61081151D01*
X158256760Y-61305616D01*
X158178910Y-61545214D01*
X158139500Y-61794038D01*
X99243273Y-61794038D01*
X90635819Y-53186584D01*
X90602334Y-53125261D01*
X90599500Y-53098903D01*
X90599500Y-45075475D01*
X90619185Y-45008436D01*
X90671989Y-44962681D01*
X90741147Y-44952737D01*
X90761820Y-44957545D01*
X90795458Y-44968475D01*
X90795461Y-44968475D01*
X90795466Y-44968477D01*
X90997648Y-45000500D01*
X90997649Y-45000500D01*
X91202351Y-45000500D01*
X91202352Y-45000500D01*
X91404534Y-44968477D01*
X91599219Y-44905220D01*
X91781610Y-44812287D01*
X91874590Y-44744732D01*
X91947213Y-44691971D01*
X91947215Y-44691968D01*
X91947219Y-44691966D01*
X92091966Y-44547219D01*
X92091968Y-44547215D01*
X92091971Y-44547213D01*
X92212284Y-44381614D01*
X92212286Y-44381611D01*
X92212287Y-44381610D01*
X92259516Y-44288917D01*
X92307489Y-44238123D01*
X92375310Y-44221328D01*
X92441445Y-44243865D01*
X92480485Y-44288919D01*
X92527715Y-44381614D01*
X92648028Y-44547213D01*
X92792786Y-44691971D01*
X92947749Y-44804556D01*
X92958390Y-44812287D01*
X93060499Y-44864314D01*
X93140776Y-44905218D01*
X93140778Y-44905218D01*
X93140781Y-44905220D01*
X93222817Y-44931875D01*
X93335465Y-44968477D01*
X93425688Y-44982767D01*
X93537648Y-45000500D01*
X93537649Y-45000500D01*
X93742351Y-45000500D01*
X93742352Y-45000500D01*
X93944534Y-44968477D01*
X94139219Y-44905220D01*
X94219205Y-44864464D01*
X94287874Y-44851569D01*
X94352615Y-44877845D01*
X94392872Y-44934952D01*
X94399500Y-44974950D01*
X94399500Y-49620234D01*
X94379815Y-49687273D01*
X94378602Y-49689125D01*
X94290609Y-49820814D01*
X94290602Y-49820827D01*
X94230264Y-49966498D01*
X94230261Y-49966510D01*
X94199500Y-50121153D01*
X94199500Y-50278846D01*
X94230261Y-50433489D01*
X94230264Y-50433501D01*
X94290602Y-50579172D01*
X94290609Y-50579185D01*
X94378210Y-50710288D01*
X94378213Y-50710292D01*
X94489707Y-50821786D01*
X94489711Y-50821789D01*
X94620814Y-50909390D01*
X94620827Y-50909397D01*
X94766498Y-50969735D01*
X94766503Y-50969737D01*
X94919127Y-51000096D01*
X94921153Y-51000499D01*
X94921156Y-51000500D01*
X94921158Y-51000500D01*
X95078844Y-51000500D01*
X95078845Y-51000499D01*
X95233497Y-50969737D01*
X95346166Y-50923067D01*
X95379172Y-50909397D01*
X95379172Y-50909396D01*
X95379179Y-50909394D01*
X95421117Y-50881372D01*
X107999500Y-50881372D01*
X107999500Y-51143627D01*
X108021977Y-51314344D01*
X108033730Y-51403616D01*
X108093496Y-51626666D01*
X108101602Y-51656918D01*
X108101605Y-51656928D01*
X108201953Y-51899190D01*
X108201958Y-51899200D01*
X108333075Y-52126303D01*
X108492718Y-52334351D01*
X108492726Y-52334360D01*
X108678140Y-52519774D01*
X108678148Y-52519781D01*
X108886196Y-52679424D01*
X109113299Y-52810541D01*
X109113309Y-52810546D01*
X109355571Y-52910894D01*
X109355581Y-52910898D01*
X109608884Y-52978770D01*
X109868880Y-53013000D01*
X109868887Y-53013000D01*
X110131113Y-53013000D01*
X110131120Y-53013000D01*
X110391116Y-52978770D01*
X110644419Y-52910898D01*
X110886697Y-52810543D01*
X111113803Y-52679424D01*
X111321851Y-52519782D01*
X111321855Y-52519777D01*
X111321860Y-52519774D01*
X111507274Y-52334360D01*
X111507277Y-52334355D01*
X111507282Y-52334351D01*
X111666924Y-52126303D01*
X111798043Y-51899197D01*
X111898398Y-51656919D01*
X111966270Y-51403616D01*
X112000500Y-51143620D01*
X112000500Y-50881380D01*
X111984849Y-50762500D01*
X111980218Y-50727323D01*
X111975892Y-50694473D01*
X111966270Y-50621384D01*
X111898398Y-50368081D01*
X111811336Y-50157894D01*
X111798046Y-50125809D01*
X111798041Y-50125799D01*
X111666927Y-49898701D01*
X111621498Y-49839497D01*
X111507282Y-49690649D01*
X111507281Y-49690648D01*
X111507274Y-49690640D01*
X111321860Y-49505226D01*
X111321851Y-49505218D01*
X111113803Y-49345575D01*
X110886700Y-49214458D01*
X110886690Y-49214453D01*
X110644428Y-49114105D01*
X110644421Y-49114103D01*
X110644419Y-49114102D01*
X110391116Y-49046230D01*
X110333339Y-49038623D01*
X110131127Y-49012000D01*
X110131120Y-49012000D01*
X109868880Y-49012000D01*
X109868872Y-49012000D01*
X109637772Y-49042426D01*
X109608884Y-49046230D01*
X109359739Y-49112988D01*
X109355581Y-49114102D01*
X109355571Y-49114105D01*
X109113309Y-49214453D01*
X109113299Y-49214458D01*
X108886196Y-49345575D01*
X108678148Y-49505218D01*
X108492718Y-49690648D01*
X108333075Y-49898696D01*
X108201958Y-50125799D01*
X108201953Y-50125809D01*
X108101605Y-50368071D01*
X108101602Y-50368081D01*
X108036451Y-50611231D01*
X108033730Y-50621385D01*
X107999500Y-50881372D01*
X95421117Y-50881372D01*
X95510289Y-50821789D01*
X95525815Y-50806263D01*
X95542439Y-50789640D01*
X95621786Y-50710292D01*
X95621789Y-50710289D01*
X95709394Y-50579179D01*
X95769737Y-50433497D01*
X95800500Y-50278842D01*
X95800500Y-50121158D01*
X95800500Y-50121155D01*
X95800499Y-50121153D01*
X95794798Y-50092494D01*
X95769737Y-49966503D01*
X95737279Y-49888142D01*
X95709397Y-49820827D01*
X95709390Y-49820814D01*
X95621398Y-49689125D01*
X95600520Y-49622447D01*
X95600500Y-49620234D01*
X95600500Y-45049806D01*
X95620185Y-44982767D01*
X95672989Y-44937012D01*
X95742147Y-44927068D01*
X95762810Y-44931873D01*
X95841821Y-44957545D01*
X95875465Y-44968477D01*
X95965688Y-44982767D01*
X96077648Y-45000500D01*
X96077649Y-45000500D01*
X96282351Y-45000500D01*
X96282352Y-45000500D01*
X96484534Y-44968477D01*
X96679219Y-44905220D01*
X96861610Y-44812287D01*
X96954590Y-44744732D01*
X97027213Y-44691971D01*
X97027215Y-44691968D01*
X97027219Y-44691966D01*
X97171966Y-44547219D01*
X97171968Y-44547215D01*
X97171971Y-44547213D01*
X97292284Y-44381614D01*
X97292286Y-44381611D01*
X97292287Y-44381610D01*
X97339516Y-44288917D01*
X97387489Y-44238123D01*
X97455310Y-44221328D01*
X97521445Y-44243865D01*
X97560485Y-44288919D01*
X97607715Y-44381614D01*
X97728028Y-44547213D01*
X97872786Y-44691971D01*
X98027749Y-44804556D01*
X98038390Y-44812287D01*
X98140499Y-44864314D01*
X98220776Y-44905218D01*
X98220778Y-44905218D01*
X98220781Y-44905220D01*
X98302817Y-44931875D01*
X98415465Y-44968477D01*
X98505688Y-44982767D01*
X98617648Y-45000500D01*
X98617649Y-45000500D01*
X98822351Y-45000500D01*
X98822352Y-45000500D01*
X99024534Y-44968477D01*
X99219219Y-44905220D01*
X99401610Y-44812287D01*
X99494590Y-44744732D01*
X99567213Y-44691971D01*
X99567215Y-44691968D01*
X99567219Y-44691966D01*
X99711966Y-44547219D01*
X99711968Y-44547215D01*
X99711971Y-44547213D01*
X99832284Y-44381614D01*
X99832286Y-44381611D01*
X99832287Y-44381610D01*
X99879516Y-44288917D01*
X99927489Y-44238123D01*
X99995310Y-44221328D01*
X100061445Y-44243865D01*
X100100485Y-44288919D01*
X100147715Y-44381614D01*
X100268028Y-44547213D01*
X100412786Y-44691971D01*
X100567749Y-44804556D01*
X100578390Y-44812287D01*
X100680499Y-44864314D01*
X100760776Y-44905218D01*
X100760778Y-44905218D01*
X100760781Y-44905220D01*
X100842817Y-44931875D01*
X100955465Y-44968477D01*
X101045688Y-44982767D01*
X101157648Y-45000500D01*
X101157649Y-45000500D01*
X101362351Y-45000500D01*
X101362352Y-45000500D01*
X101564534Y-44968477D01*
X101578842Y-44963827D01*
X101648682Y-44961831D01*
X101704841Y-44994076D01*
X104991284Y-48280520D01*
X104991286Y-48280521D01*
X104991290Y-48280524D01*
X105128209Y-48359573D01*
X105128216Y-48359577D01*
X105280943Y-48400501D01*
X105280945Y-48400501D01*
X105446654Y-48400501D01*
X105446670Y-48400500D01*
X121797403Y-48400500D01*
X121864442Y-48420185D01*
X121885084Y-48436819D01*
X122499930Y-49051665D01*
X122533415Y-49112988D01*
X122528431Y-49182680D01*
X122486559Y-49238613D01*
X122421095Y-49263030D01*
X122392853Y-49261820D01*
X122368732Y-49258000D01*
X122368731Y-49258000D01*
X122171269Y-49258000D01*
X122171264Y-49258000D01*
X121976236Y-49288889D01*
X121788441Y-49349908D01*
X121612495Y-49439558D01*
X121452753Y-49555615D01*
X121313115Y-49695253D01*
X121197058Y-49854995D01*
X121197056Y-49854999D01*
X121116805Y-50012500D01*
X121110485Y-50024903D01*
X121062510Y-50075699D01*
X120994689Y-50092494D01*
X120928554Y-50069956D01*
X120889515Y-50024903D01*
X120802944Y-49854999D01*
X120778117Y-49820827D01*
X120686884Y-49695253D01*
X120547246Y-49555615D01*
X120387504Y-49439558D01*
X120387503Y-49439557D01*
X120387501Y-49439556D01*
X120211561Y-49349909D01*
X120211558Y-49349908D01*
X120023763Y-49288889D01*
X119828736Y-49258000D01*
X119828731Y-49258000D01*
X119631269Y-49258000D01*
X119631264Y-49258000D01*
X119436236Y-49288889D01*
X119248441Y-49349908D01*
X119072495Y-49439558D01*
X118912753Y-49555615D01*
X118773115Y-49695253D01*
X118668318Y-49839497D01*
X118612989Y-49882163D01*
X118543375Y-49888142D01*
X118481580Y-49855537D01*
X118447223Y-49794698D01*
X118444000Y-49766612D01*
X118444000Y-49710672D01*
X118443999Y-49710655D01*
X118437598Y-49651127D01*
X118437596Y-49651120D01*
X118387354Y-49516413D01*
X118387350Y-49516406D01*
X118301190Y-49401312D01*
X118301187Y-49401309D01*
X118186093Y-49315149D01*
X118186086Y-49315145D01*
X118051379Y-49264903D01*
X118051372Y-49264901D01*
X117991844Y-49258500D01*
X117440000Y-49258500D01*
X117440000Y-50079488D01*
X117382993Y-50046575D01*
X117255826Y-50012500D01*
X117124174Y-50012500D01*
X116997007Y-50046575D01*
X116940000Y-50079488D01*
X116940000Y-49258500D01*
X116388155Y-49258500D01*
X116328627Y-49264901D01*
X116328620Y-49264903D01*
X116193913Y-49315145D01*
X116193906Y-49315149D01*
X116078812Y-49401309D01*
X116078809Y-49401312D01*
X115992649Y-49516406D01*
X115992645Y-49516413D01*
X115942403Y-49651120D01*
X115942401Y-49651127D01*
X115936000Y-49710655D01*
X115936000Y-50262500D01*
X116756988Y-50262500D01*
X116724075Y-50319507D01*
X116690000Y-50446674D01*
X116690000Y-50578326D01*
X116724075Y-50705493D01*
X116756988Y-50762500D01*
X115936000Y-50762500D01*
X115936000Y-51314344D01*
X115942401Y-51373872D01*
X115942403Y-51373879D01*
X115992645Y-51508586D01*
X115992649Y-51508593D01*
X116078809Y-51623687D01*
X116078812Y-51623690D01*
X116193906Y-51709850D01*
X116193913Y-51709854D01*
X116328620Y-51760096D01*
X116328627Y-51760098D01*
X116388155Y-51766499D01*
X116388172Y-51766500D01*
X116940000Y-51766500D01*
X116940000Y-50945512D01*
X116997007Y-50978425D01*
X117124174Y-51012500D01*
X117255826Y-51012500D01*
X117382993Y-50978425D01*
X117440000Y-50945512D01*
X117440000Y-51766500D01*
X117991828Y-51766500D01*
X117991844Y-51766499D01*
X118051372Y-51760098D01*
X118051379Y-51760096D01*
X118186086Y-51709854D01*
X118186093Y-51709850D01*
X118301187Y-51623690D01*
X118301190Y-51623687D01*
X118387350Y-51508593D01*
X118387354Y-51508586D01*
X118437596Y-51373879D01*
X118437598Y-51373872D01*
X118443999Y-51314344D01*
X118444000Y-51314327D01*
X118444000Y-51258387D01*
X118463685Y-51191348D01*
X118516489Y-51145593D01*
X118585647Y-51135649D01*
X118649203Y-51164674D01*
X118668314Y-51185497D01*
X118721272Y-51258387D01*
X118773121Y-51329752D01*
X118912753Y-51469384D01*
X119062234Y-51577986D01*
X119072499Y-51585444D01*
X119248439Y-51675091D01*
X119355417Y-51709850D01*
X119436236Y-51736110D01*
X119631264Y-51767000D01*
X119631269Y-51767000D01*
X119828736Y-51767000D01*
X120028575Y-51735348D01*
X120028852Y-51737100D01*
X120091001Y-51740196D01*
X120137872Y-51769607D01*
X121284029Y-52915764D01*
X121303735Y-52941445D01*
X121319480Y-52968716D01*
X121431284Y-53080520D01*
X121431286Y-53080521D01*
X121431290Y-53080524D01*
X121552087Y-53150265D01*
X121568216Y-53159577D01*
X121720943Y-53200500D01*
X121879057Y-53200500D01*
X124613331Y-53200500D01*
X124613347Y-53200501D01*
X124620943Y-53200501D01*
X124779054Y-53200501D01*
X124779057Y-53200501D01*
X124931785Y-53159577D01*
X124981904Y-53130639D01*
X125068716Y-53080520D01*
X125180520Y-52968716D01*
X125180520Y-52968714D01*
X125190728Y-52958507D01*
X125190729Y-52958504D01*
X126345520Y-51803716D01*
X126424577Y-51666785D01*
X126465501Y-51514057D01*
X126465501Y-51355942D01*
X126465501Y-51348347D01*
X126465500Y-51348329D01*
X126465500Y-50881372D01*
X129999500Y-50881372D01*
X129999500Y-51143627D01*
X130021977Y-51314344D01*
X130033730Y-51403616D01*
X130093496Y-51626666D01*
X130101602Y-51656918D01*
X130101605Y-51656928D01*
X130201953Y-51899190D01*
X130201958Y-51899200D01*
X130333075Y-52126303D01*
X130492718Y-52334351D01*
X130492726Y-52334360D01*
X130678140Y-52519774D01*
X130678148Y-52519781D01*
X130886196Y-52679424D01*
X131113299Y-52810541D01*
X131113309Y-52810546D01*
X131355571Y-52910894D01*
X131355581Y-52910898D01*
X131608884Y-52978770D01*
X131868880Y-53013000D01*
X131868887Y-53013000D01*
X132131113Y-53013000D01*
X132131120Y-53013000D01*
X132391116Y-52978770D01*
X132644419Y-52910898D01*
X132886697Y-52810543D01*
X133113803Y-52679424D01*
X133321851Y-52519782D01*
X133321855Y-52519777D01*
X133321860Y-52519774D01*
X133507274Y-52334360D01*
X133507277Y-52334355D01*
X133507282Y-52334351D01*
X133666924Y-52126303D01*
X133798043Y-51899197D01*
X133898398Y-51656919D01*
X133966270Y-51403616D01*
X134000500Y-51143620D01*
X134000500Y-50881380D01*
X133966270Y-50621384D01*
X133898398Y-50368081D01*
X133811336Y-50157894D01*
X133798046Y-50125809D01*
X133798041Y-50125799D01*
X133666924Y-49898696D01*
X133507281Y-49690648D01*
X133507274Y-49690640D01*
X133321860Y-49505226D01*
X133321851Y-49505218D01*
X133113803Y-49345575D01*
X132886700Y-49214458D01*
X132886690Y-49214453D01*
X132644428Y-49114105D01*
X132644421Y-49114103D01*
X132644419Y-49114102D01*
X132391116Y-49046230D01*
X132333339Y-49038623D01*
X132131127Y-49012000D01*
X132131120Y-49012000D01*
X131868880Y-49012000D01*
X131868872Y-49012000D01*
X131637772Y-49042426D01*
X131608884Y-49046230D01*
X131359739Y-49112988D01*
X131355581Y-49114102D01*
X131355571Y-49114105D01*
X131113309Y-49214453D01*
X131113299Y-49214458D01*
X130886196Y-49345575D01*
X130678148Y-49505218D01*
X130492718Y-49690648D01*
X130333075Y-49898696D01*
X130201958Y-50125799D01*
X130201953Y-50125809D01*
X130101605Y-50368071D01*
X130101602Y-50368081D01*
X130036451Y-50611231D01*
X130033730Y-50621385D01*
X129999500Y-50881372D01*
X126465500Y-50881372D01*
X126465500Y-49654059D01*
X126465501Y-49654046D01*
X126465501Y-49485945D01*
X126465501Y-49485943D01*
X126424577Y-49333215D01*
X126381151Y-49258000D01*
X126345520Y-49196284D01*
X126233716Y-49084480D01*
X126233715Y-49084479D01*
X126229385Y-49080149D01*
X126229374Y-49080139D01*
X123187590Y-46038355D01*
X123187588Y-46038352D01*
X123068717Y-45919481D01*
X123068716Y-45919480D01*
X122981904Y-45869360D01*
X122981904Y-45869359D01*
X122981900Y-45869358D01*
X122931785Y-45840423D01*
X122779057Y-45799499D01*
X122620943Y-45799499D01*
X122613347Y-45799499D01*
X122613331Y-45799500D01*
X114420098Y-45799500D01*
X114353059Y-45779815D01*
X114332417Y-45763181D01*
X113781417Y-45212181D01*
X113747932Y-45150858D01*
X113752916Y-45081166D01*
X113794788Y-45025233D01*
X113860252Y-45000816D01*
X113869098Y-45000500D01*
X114062351Y-45000500D01*
X114062352Y-45000500D01*
X114264534Y-44968477D01*
X114459219Y-44905220D01*
X114641610Y-44812287D01*
X114734590Y-44744732D01*
X114807213Y-44691971D01*
X114807215Y-44691968D01*
X114807219Y-44691966D01*
X114951966Y-44547219D01*
X114951968Y-44547215D01*
X114951971Y-44547213D01*
X115072284Y-44381614D01*
X115072286Y-44381611D01*
X115072287Y-44381610D01*
X115119795Y-44288369D01*
X115167770Y-44237574D01*
X115235591Y-44220779D01*
X115301725Y-44243316D01*
X115340765Y-44288370D01*
X115388140Y-44381349D01*
X115508417Y-44546894D01*
X115508417Y-44546895D01*
X115653104Y-44691582D01*
X115818650Y-44811859D01*
X116000968Y-44904754D01*
X116195578Y-44967988D01*
X116250000Y-44976607D01*
X116250000Y-44133012D01*
X116307007Y-44165925D01*
X116434174Y-44200000D01*
X116565826Y-44200000D01*
X116692993Y-44165925D01*
X116750000Y-44133012D01*
X116750000Y-44976606D01*
X116804421Y-44967988D01*
X116999031Y-44904754D01*
X117181349Y-44811859D01*
X117346894Y-44691582D01*
X117346895Y-44691582D01*
X117491582Y-44546895D01*
X117491582Y-44546894D01*
X117611861Y-44381347D01*
X117659234Y-44288371D01*
X117707208Y-44237575D01*
X117775028Y-44220779D01*
X117841164Y-44243316D01*
X117880203Y-44288369D01*
X117927713Y-44381611D01*
X118048028Y-44547213D01*
X118192786Y-44691971D01*
X118347749Y-44804556D01*
X118358390Y-44812287D01*
X118460499Y-44864314D01*
X118540776Y-44905218D01*
X118540778Y-44905218D01*
X118540781Y-44905220D01*
X118622817Y-44931875D01*
X118735465Y-44968477D01*
X118825688Y-44982767D01*
X118937648Y-45000500D01*
X118937649Y-45000500D01*
X119142351Y-45000500D01*
X119142352Y-45000500D01*
X119344534Y-44968477D01*
X119539219Y-44905220D01*
X119721610Y-44812287D01*
X119814590Y-44744732D01*
X119887213Y-44691971D01*
X119887215Y-44691968D01*
X119887219Y-44691966D01*
X120031966Y-44547219D01*
X120031968Y-44547215D01*
X120031971Y-44547213D01*
X120084732Y-44474590D01*
X120152287Y-44381610D01*
X120245220Y-44199219D01*
X120308477Y-44004534D01*
X120340500Y-43802352D01*
X120340500Y-43597648D01*
X120308477Y-43395466D01*
X120307673Y-43392993D01*
X120245218Y-43200776D01*
X120152419Y-43018650D01*
X120152287Y-43018390D01*
X120144556Y-43007749D01*
X120031971Y-42852786D01*
X119887213Y-42708028D01*
X119721613Y-42587715D01*
X119721612Y-42587714D01*
X119721610Y-42587713D01*
X119623735Y-42537843D01*
X119539223Y-42494781D01*
X119344534Y-42431522D01*
X119169995Y-42403878D01*
X119142352Y-42399500D01*
X118937648Y-42399500D01*
X118913329Y-42403351D01*
X118735465Y-42431522D01*
X118540776Y-42494781D01*
X118358386Y-42587715D01*
X118192786Y-42708028D01*
X118048028Y-42852786D01*
X117927713Y-43018388D01*
X117880203Y-43111630D01*
X117832228Y-43162426D01*
X117764407Y-43179220D01*
X117698272Y-43156682D01*
X117659234Y-43111628D01*
X117611861Y-43018652D01*
X117491582Y-42853105D01*
X117491582Y-42853104D01*
X117346895Y-42708417D01*
X117181349Y-42588140D01*
X116999029Y-42495244D01*
X116804413Y-42432009D01*
X116750000Y-42423390D01*
X116750000Y-43266988D01*
X116692993Y-43234075D01*
X116565826Y-43200000D01*
X116434174Y-43200000D01*
X116307007Y-43234075D01*
X116250000Y-43266988D01*
X116250000Y-42423390D01*
X116195586Y-42432009D01*
X116000970Y-42495244D01*
X115818650Y-42588140D01*
X115653105Y-42708417D01*
X115653104Y-42708417D01*
X115508417Y-42853104D01*
X115508417Y-42853105D01*
X115388140Y-43018650D01*
X115340765Y-43111629D01*
X115292790Y-43162425D01*
X115224969Y-43179220D01*
X115158834Y-43156682D01*
X115119795Y-43111629D01*
X115072419Y-43018650D01*
X115072287Y-43018390D01*
X115064556Y-43007749D01*
X114951971Y-42852786D01*
X114807213Y-42708028D01*
X114641613Y-42587715D01*
X114641612Y-42587714D01*
X114641610Y-42587713D01*
X114543735Y-42537843D01*
X114459223Y-42494781D01*
X114264534Y-42431522D01*
X114089995Y-42403878D01*
X114062352Y-42399500D01*
X113857648Y-42399500D01*
X113833329Y-42403351D01*
X113655465Y-42431522D01*
X113460776Y-42494781D01*
X113278386Y-42587715D01*
X113112786Y-42708028D01*
X112968028Y-42852786D01*
X112847715Y-43018386D01*
X112800485Y-43111080D01*
X112752510Y-43161876D01*
X112684689Y-43178671D01*
X112618554Y-43156134D01*
X112579515Y-43111080D01*
X112532419Y-43018650D01*
X112532287Y-43018390D01*
X112524556Y-43007749D01*
X112411971Y-42852786D01*
X112267213Y-42708028D01*
X112101613Y-42587715D01*
X112101612Y-42587714D01*
X112101610Y-42587713D01*
X112003735Y-42537843D01*
X111919223Y-42494781D01*
X111724534Y-42431522D01*
X111549995Y-42403878D01*
X111522352Y-42399500D01*
X111317648Y-42399500D01*
X111293329Y-42403351D01*
X111115465Y-42431522D01*
X110920776Y-42494781D01*
X110738386Y-42587715D01*
X110572786Y-42708028D01*
X110428028Y-42852786D01*
X110307715Y-43018386D01*
X110260485Y-43111080D01*
X110212510Y-43161876D01*
X110144689Y-43178671D01*
X110078554Y-43156134D01*
X110039515Y-43111080D01*
X109992419Y-43018650D01*
X109992287Y-43018390D01*
X109984556Y-43007749D01*
X109871971Y-42852786D01*
X109727213Y-42708028D01*
X109561613Y-42587715D01*
X109561612Y-42587714D01*
X109561610Y-42587713D01*
X109463735Y-42537843D01*
X109379223Y-42494781D01*
X109184534Y-42431522D01*
X109009995Y-42403878D01*
X108982352Y-42399500D01*
X108777648Y-42399500D01*
X108753329Y-42403351D01*
X108575465Y-42431522D01*
X108380776Y-42494781D01*
X108198386Y-42587715D01*
X108032786Y-42708028D01*
X107888028Y-42852786D01*
X107767715Y-43018386D01*
X107720485Y-43111080D01*
X107672510Y-43161876D01*
X107604689Y-43178671D01*
X107538554Y-43156134D01*
X107499515Y-43111080D01*
X107452419Y-43018650D01*
X107452287Y-43018390D01*
X107444556Y-43007749D01*
X107331971Y-42852786D01*
X107187213Y-42708028D01*
X107021613Y-42587715D01*
X107021612Y-42587714D01*
X107021610Y-42587713D01*
X106923735Y-42537843D01*
X106839223Y-42494781D01*
X106644534Y-42431522D01*
X106469995Y-42403878D01*
X106442352Y-42399500D01*
X106237648Y-42399500D01*
X106213329Y-42403351D01*
X106035465Y-42431522D01*
X105840776Y-42494781D01*
X105658386Y-42587715D01*
X105492786Y-42708028D01*
X105348028Y-42852786D01*
X105227715Y-43018386D01*
X105180485Y-43111080D01*
X105132510Y-43161876D01*
X105064689Y-43178671D01*
X104998554Y-43156134D01*
X104959515Y-43111080D01*
X104912419Y-43018650D01*
X104912287Y-43018390D01*
X104904556Y-43007749D01*
X104791971Y-42852786D01*
X104647213Y-42708028D01*
X104481613Y-42587715D01*
X104481612Y-42587714D01*
X104481610Y-42587713D01*
X104383735Y-42537843D01*
X104299223Y-42494781D01*
X104104534Y-42431522D01*
X103929995Y-42403878D01*
X103902352Y-42399500D01*
X103697648Y-42399500D01*
X103673329Y-42403351D01*
X103495465Y-42431522D01*
X103300776Y-42494781D01*
X103118386Y-42587715D01*
X102952786Y-42708028D01*
X102808028Y-42852786D01*
X102687715Y-43018386D01*
X102640485Y-43111080D01*
X102592510Y-43161876D01*
X102524689Y-43178671D01*
X102458554Y-43156134D01*
X102419515Y-43111080D01*
X102372419Y-43018650D01*
X102372287Y-43018390D01*
X102364556Y-43007749D01*
X102251971Y-42852786D01*
X102107213Y-42708028D01*
X101941613Y-42587715D01*
X101941612Y-42587714D01*
X101941610Y-42587713D01*
X101843735Y-42537843D01*
X101759223Y-42494781D01*
X101564534Y-42431522D01*
X101389995Y-42403878D01*
X101362352Y-42399500D01*
X101157648Y-42399500D01*
X101133329Y-42403351D01*
X100955465Y-42431522D01*
X100760776Y-42494781D01*
X100578386Y-42587715D01*
X100412786Y-42708028D01*
X100268028Y-42852786D01*
X100147715Y-43018386D01*
X100100485Y-43111080D01*
X100052510Y-43161876D01*
X99984689Y-43178671D01*
X99918554Y-43156134D01*
X99879515Y-43111080D01*
X99832419Y-43018650D01*
X99832287Y-43018390D01*
X99824556Y-43007749D01*
X99711971Y-42852786D01*
X99567213Y-42708028D01*
X99401613Y-42587715D01*
X99401612Y-42587714D01*
X99401610Y-42587713D01*
X99303735Y-42537843D01*
X99219223Y-42494781D01*
X99024534Y-42431522D01*
X98849995Y-42403878D01*
X98822352Y-42399500D01*
X98617648Y-42399500D01*
X98593329Y-42403351D01*
X98415465Y-42431522D01*
X98220776Y-42494781D01*
X98038386Y-42587715D01*
X97872786Y-42708028D01*
X97728028Y-42852786D01*
X97607715Y-43018386D01*
X97560485Y-43111080D01*
X97512510Y-43161876D01*
X97444689Y-43178671D01*
X97378554Y-43156134D01*
X97339515Y-43111080D01*
X97292419Y-43018650D01*
X97292287Y-43018390D01*
X97284556Y-43007749D01*
X97171971Y-42852786D01*
X97027213Y-42708028D01*
X96861613Y-42587715D01*
X96861612Y-42587714D01*
X96861610Y-42587713D01*
X96763735Y-42537843D01*
X96679223Y-42494781D01*
X96484534Y-42431522D01*
X96309995Y-42403878D01*
X96282352Y-42399500D01*
X96077648Y-42399500D01*
X96021652Y-42408369D01*
X95875464Y-42431523D01*
X95875457Y-42431524D01*
X95762817Y-42468123D01*
X95692976Y-42470118D01*
X95633144Y-42434037D01*
X95602316Y-42371336D01*
X95600500Y-42350192D01*
X95600500Y-39221153D01*
X128299500Y-39221153D01*
X128299500Y-39378846D01*
X128330261Y-39533489D01*
X128330264Y-39533501D01*
X128390602Y-39679172D01*
X128390609Y-39679185D01*
X128478210Y-39810288D01*
X128478213Y-39810292D01*
X128589707Y-39921786D01*
X128589711Y-39921789D01*
X128720814Y-40009390D01*
X128720827Y-40009397D01*
X128866498Y-40069735D01*
X128866503Y-40069737D01*
X129021153Y-40100499D01*
X129021156Y-40100500D01*
X129021158Y-40100500D01*
X129178844Y-40100500D01*
X129178845Y-40100499D01*
X129333497Y-40069737D01*
X129479179Y-40009394D01*
X129479185Y-40009390D01*
X129610875Y-39921398D01*
X129677553Y-39900520D01*
X129679766Y-39900500D01*
X144313331Y-39900500D01*
X144313347Y-39900501D01*
X144320943Y-39900501D01*
X144479054Y-39900501D01*
X144479057Y-39900501D01*
X144631785Y-39859577D01*
X144681904Y-39830639D01*
X144768716Y-39780520D01*
X144880520Y-39668716D01*
X144880520Y-39668714D01*
X144890728Y-39658507D01*
X144890730Y-39658504D01*
X147135673Y-37413560D01*
X147196994Y-37380077D01*
X147242746Y-37378770D01*
X147322121Y-37391341D01*
X147405200Y-37404500D01*
X147405204Y-37404500D01*
X147594800Y-37404500D01*
X147678022Y-37391318D01*
X147782055Y-37374842D01*
X147962368Y-37316254D01*
X148131296Y-37230181D01*
X148284679Y-37118741D01*
X148418741Y-36984679D01*
X148530181Y-36831296D01*
X148616254Y-36662368D01*
X148674842Y-36482055D01*
X148692004Y-36373694D01*
X148704500Y-36294800D01*
X148704500Y-36105237D01*
X153896000Y-36105237D01*
X153896000Y-36294762D01*
X153925645Y-36481937D01*
X153984210Y-36662178D01*
X154070246Y-36831033D01*
X154089253Y-36857192D01*
X154089253Y-36857193D01*
X154657861Y-36288584D01*
X154680667Y-36373694D01*
X154739910Y-36476306D01*
X154823694Y-36560090D01*
X154926306Y-36619333D01*
X155011414Y-36642137D01*
X154442806Y-37210745D01*
X154442806Y-37210746D01*
X154468966Y-37229752D01*
X154637821Y-37315789D01*
X154818062Y-37374354D01*
X155005238Y-37404000D01*
X155194762Y-37404000D01*
X155381937Y-37374354D01*
X155562182Y-37315788D01*
X155562184Y-37315787D01*
X155731027Y-37229756D01*
X155731043Y-37229746D01*
X155757192Y-37210746D01*
X155757193Y-37210745D01*
X155188585Y-36642137D01*
X155273694Y-36619333D01*
X155376306Y-36560090D01*
X155460090Y-36476306D01*
X155519333Y-36373694D01*
X155542137Y-36288585D01*
X156110745Y-36857193D01*
X156110746Y-36857192D01*
X156129746Y-36831043D01*
X156129756Y-36831027D01*
X156215787Y-36662184D01*
X156215788Y-36662182D01*
X156274354Y-36481937D01*
X156304000Y-36294762D01*
X156304000Y-36105237D01*
X156274354Y-35918062D01*
X156215789Y-35737821D01*
X156129752Y-35568966D01*
X156110745Y-35542806D01*
X155542137Y-36111414D01*
X155519333Y-36026306D01*
X155460090Y-35923694D01*
X155376306Y-35839910D01*
X155273694Y-35780667D01*
X155188584Y-35757861D01*
X155757193Y-35189253D01*
X155731033Y-35170246D01*
X155562178Y-35084210D01*
X155381937Y-35025645D01*
X155194762Y-34996000D01*
X155005238Y-34996000D01*
X154818062Y-35025645D01*
X154637821Y-35084210D01*
X154468969Y-35170245D01*
X154442806Y-35189253D01*
X155011415Y-35757861D01*
X154926306Y-35780667D01*
X154823694Y-35839910D01*
X154739910Y-35923694D01*
X154680667Y-36026306D01*
X154657861Y-36111414D01*
X154089253Y-35542806D01*
X154070245Y-35568969D01*
X153984210Y-35737821D01*
X153925645Y-35918062D01*
X153896000Y-36105237D01*
X148704500Y-36105237D01*
X148704500Y-36105199D01*
X148688023Y-36001171D01*
X148674842Y-35917945D01*
X148616254Y-35737632D01*
X148616252Y-35737629D01*
X148616252Y-35737627D01*
X148530180Y-35568703D01*
X148511365Y-35542806D01*
X148418741Y-35415321D01*
X148284679Y-35281259D01*
X148131296Y-35169819D01*
X147962372Y-35083747D01*
X147903905Y-35064750D01*
X147782055Y-35025158D01*
X147782051Y-35025157D01*
X147782050Y-35025157D01*
X147594800Y-34995500D01*
X147594796Y-34995500D01*
X147405204Y-34995500D01*
X147405200Y-34995500D01*
X147217949Y-35025157D01*
X147217946Y-35025157D01*
X147217945Y-35025158D01*
X147159482Y-35044153D01*
X147037627Y-35083747D01*
X146868703Y-35169819D01*
X146715319Y-35281260D01*
X146581260Y-35415319D01*
X146469819Y-35568703D01*
X146383747Y-35737627D01*
X146325157Y-35917949D01*
X146295500Y-36105199D01*
X146295500Y-36294800D01*
X146321229Y-36457248D01*
X146312274Y-36526542D01*
X146286437Y-36564327D01*
X144187584Y-38663181D01*
X144126261Y-38696666D01*
X144099903Y-38699500D01*
X129679766Y-38699500D01*
X129612727Y-38679815D01*
X129610875Y-38678602D01*
X129479185Y-38590609D01*
X129479172Y-38590602D01*
X129333501Y-38530264D01*
X129333489Y-38530261D01*
X129178845Y-38499500D01*
X129178842Y-38499500D01*
X129021158Y-38499500D01*
X129021155Y-38499500D01*
X128866510Y-38530261D01*
X128866498Y-38530264D01*
X128720827Y-38590602D01*
X128720814Y-38590609D01*
X128589711Y-38678210D01*
X128589707Y-38678213D01*
X128478213Y-38789707D01*
X128478210Y-38789711D01*
X128390609Y-38920814D01*
X128390602Y-38920827D01*
X128330264Y-39066498D01*
X128330261Y-39066510D01*
X128299500Y-39221153D01*
X95600500Y-39221153D01*
X95600500Y-32280944D01*
X95600500Y-32280942D01*
X95559577Y-32128215D01*
X95559573Y-32128208D01*
X95480524Y-31991289D01*
X95480521Y-31991285D01*
X95480520Y-31991283D01*
X95368716Y-31879479D01*
X95368715Y-31879478D01*
X95364385Y-31875148D01*
X95364374Y-31875138D01*
X93461417Y-29972181D01*
X93427932Y-29910858D01*
X93432916Y-29841166D01*
X93474788Y-29785233D01*
X93540252Y-29760816D01*
X93549098Y-29760500D01*
X93742351Y-29760500D01*
X93742352Y-29760500D01*
X93944534Y-29728477D01*
X94139219Y-29665220D01*
X94321610Y-29572287D01*
X94417901Y-29502328D01*
X94487213Y-29451971D01*
X94487215Y-29451968D01*
X94487219Y-29451966D01*
X94631966Y-29307219D01*
X94631968Y-29307215D01*
X94631971Y-29307213D01*
X94752284Y-29141614D01*
X94752286Y-29141611D01*
X94752287Y-29141610D01*
X94799516Y-29048917D01*
X94847489Y-28998123D01*
X94915310Y-28981328D01*
X94981445Y-29003865D01*
X95020483Y-29048917D01*
X95020486Y-29048921D01*
X95067715Y-29141614D01*
X95188028Y-29307213D01*
X95332786Y-29451971D01*
X95487749Y-29564556D01*
X95498390Y-29572287D01*
X95587212Y-29617544D01*
X95680776Y-29665218D01*
X95680778Y-29665218D01*
X95680781Y-29665220D01*
X95785137Y-29699127D01*
X95875465Y-29728477D01*
X95976557Y-29744488D01*
X96077648Y-29760500D01*
X96077649Y-29760500D01*
X96282351Y-29760500D01*
X96282352Y-29760500D01*
X96484534Y-29728477D01*
X96679219Y-29665220D01*
X96861610Y-29572287D01*
X96957901Y-29502328D01*
X97027213Y-29451971D01*
X97027215Y-29451968D01*
X97027219Y-29451966D01*
X97171966Y-29307219D01*
X97171968Y-29307215D01*
X97171971Y-29307213D01*
X97292284Y-29141614D01*
X97292286Y-29141611D01*
X97292287Y-29141610D01*
X97339516Y-29048917D01*
X97387489Y-28998123D01*
X97455310Y-28981328D01*
X97521445Y-29003865D01*
X97560483Y-29048917D01*
X97560486Y-29048921D01*
X97607715Y-29141614D01*
X97728028Y-29307213D01*
X97872786Y-29451971D01*
X98027749Y-29564556D01*
X98038390Y-29572287D01*
X98127212Y-29617544D01*
X98220776Y-29665218D01*
X98220778Y-29665218D01*
X98220781Y-29665220D01*
X98325137Y-29699127D01*
X98415465Y-29728477D01*
X98516557Y-29744488D01*
X98617648Y-29760500D01*
X98617649Y-29760500D01*
X98822351Y-29760500D01*
X98822352Y-29760500D01*
X99024534Y-29728477D01*
X99219219Y-29665220D01*
X99401610Y-29572287D01*
X99497901Y-29502328D01*
X99567213Y-29451971D01*
X99567215Y-29451968D01*
X99567219Y-29451966D01*
X99711966Y-29307219D01*
X99711968Y-29307215D01*
X99711971Y-29307213D01*
X99832286Y-29141611D01*
X99832420Y-29141349D01*
X99879515Y-29048919D01*
X99927488Y-28998125D01*
X99995309Y-28981329D01*
X100061444Y-29003866D01*
X100100484Y-29048920D01*
X100147714Y-29141613D01*
X100268027Y-29307213D01*
X100412785Y-29451971D01*
X100567748Y-29564556D01*
X100578389Y-29572287D01*
X100667211Y-29617544D01*
X100760775Y-29665218D01*
X100760777Y-29665218D01*
X100760780Y-29665220D01*
X100865136Y-29699127D01*
X100955464Y-29728477D01*
X101056556Y-29744488D01*
X101157647Y-29760500D01*
X101157648Y-29760500D01*
X101362350Y-29760500D01*
X101362351Y-29760500D01*
X101564533Y-29728477D01*
X101759218Y-29665220D01*
X101941609Y-29572287D01*
X102037900Y-29502328D01*
X102107212Y-29451971D01*
X102107214Y-29451968D01*
X102107218Y-29451966D01*
X102251965Y-29307219D01*
X102251967Y-29307215D01*
X102251970Y-29307213D01*
X102372285Y-29141611D01*
X102372286Y-29141610D01*
X102419515Y-29048917D01*
X102467488Y-28998123D01*
X102535309Y-28981327D01*
X102601444Y-29003864D01*
X102640484Y-29048918D01*
X102687715Y-29141613D01*
X102808028Y-29307213D01*
X102952786Y-29451971D01*
X103107749Y-29564556D01*
X103118390Y-29572287D01*
X103207212Y-29617544D01*
X103300776Y-29665218D01*
X103300778Y-29665218D01*
X103300781Y-29665220D01*
X103405137Y-29699127D01*
X103495465Y-29728477D01*
X103596557Y-29744488D01*
X103697648Y-29760500D01*
X103697649Y-29760500D01*
X103902351Y-29760500D01*
X103902352Y-29760500D01*
X104104534Y-29728477D01*
X104299219Y-29665220D01*
X104481610Y-29572287D01*
X104577901Y-29502328D01*
X104647213Y-29451971D01*
X104647215Y-29451968D01*
X104647219Y-29451966D01*
X104791966Y-29307219D01*
X104791968Y-29307215D01*
X104791971Y-29307213D01*
X104912284Y-29141614D01*
X104912286Y-29141611D01*
X104912287Y-29141610D01*
X104959516Y-29048917D01*
X105007489Y-28998123D01*
X105075310Y-28981328D01*
X105141445Y-29003865D01*
X105180483Y-29048917D01*
X105180486Y-29048921D01*
X105227715Y-29141614D01*
X105348028Y-29307213D01*
X105492786Y-29451971D01*
X105647749Y-29564556D01*
X105658390Y-29572287D01*
X105747212Y-29617544D01*
X105840776Y-29665218D01*
X105840778Y-29665218D01*
X105840781Y-29665220D01*
X105945137Y-29699127D01*
X106035465Y-29728477D01*
X106136557Y-29744488D01*
X106237648Y-29760500D01*
X106237649Y-29760500D01*
X106442351Y-29760500D01*
X106442352Y-29760500D01*
X106644534Y-29728477D01*
X106839219Y-29665220D01*
X107021610Y-29572287D01*
X107117901Y-29502328D01*
X107187213Y-29451971D01*
X107187215Y-29451968D01*
X107187219Y-29451966D01*
X107331966Y-29307219D01*
X107331968Y-29307215D01*
X107331971Y-29307213D01*
X107452284Y-29141614D01*
X107452286Y-29141611D01*
X107452287Y-29141610D01*
X107499516Y-29048917D01*
X107547489Y-28998123D01*
X107615310Y-28981328D01*
X107681445Y-29003865D01*
X107720483Y-29048917D01*
X107720486Y-29048921D01*
X107767715Y-29141614D01*
X107888028Y-29307213D01*
X108032786Y-29451971D01*
X108187749Y-29564556D01*
X108198390Y-29572287D01*
X108287212Y-29617544D01*
X108380776Y-29665218D01*
X108380778Y-29665218D01*
X108380781Y-29665220D01*
X108485137Y-29699127D01*
X108575465Y-29728477D01*
X108676557Y-29744488D01*
X108777648Y-29760500D01*
X108777649Y-29760500D01*
X108982351Y-29760500D01*
X108982352Y-29760500D01*
X109184534Y-29728477D01*
X109379219Y-29665220D01*
X109561610Y-29572287D01*
X109657901Y-29502328D01*
X109727213Y-29451971D01*
X109727215Y-29451968D01*
X109727219Y-29451966D01*
X109871966Y-29307219D01*
X109871968Y-29307215D01*
X109871971Y-29307213D01*
X109992284Y-29141614D01*
X109992286Y-29141611D01*
X109992287Y-29141610D01*
X110039795Y-29048369D01*
X110087770Y-28997574D01*
X110155591Y-28980779D01*
X110221725Y-29003316D01*
X110260765Y-29048370D01*
X110308140Y-29141349D01*
X110428417Y-29306894D01*
X110428417Y-29306895D01*
X110573104Y-29451582D01*
X110738650Y-29571859D01*
X110920968Y-29664754D01*
X111115578Y-29727988D01*
X111170000Y-29736607D01*
X111170000Y-28893012D01*
X111227007Y-28925925D01*
X111354174Y-28960000D01*
X111485826Y-28960000D01*
X111612993Y-28925925D01*
X111670000Y-28893012D01*
X111670000Y-29736606D01*
X111724421Y-29727988D01*
X111919031Y-29664754D01*
X112101349Y-29571859D01*
X112266894Y-29451582D01*
X112266895Y-29451582D01*
X112411582Y-29306895D01*
X112411582Y-29306894D01*
X112531861Y-29141347D01*
X112579235Y-29048370D01*
X112627209Y-28997573D01*
X112695030Y-28980778D01*
X112761165Y-29003315D01*
X112800205Y-29048369D01*
X112847716Y-29141613D01*
X112968029Y-29307213D01*
X113112787Y-29451971D01*
X113267750Y-29564556D01*
X113278391Y-29572287D01*
X113367213Y-29617544D01*
X113460777Y-29665218D01*
X113460779Y-29665218D01*
X113460782Y-29665220D01*
X113565138Y-29699127D01*
X113655466Y-29728477D01*
X113756558Y-29744488D01*
X113857649Y-29760500D01*
X113857650Y-29760500D01*
X114062352Y-29760500D01*
X114062353Y-29760500D01*
X114264535Y-29728477D01*
X114459220Y-29665220D01*
X114641611Y-29572287D01*
X114737902Y-29502328D01*
X114807214Y-29451971D01*
X114807216Y-29451968D01*
X114807220Y-29451966D01*
X114951967Y-29307219D01*
X114951969Y-29307215D01*
X114951972Y-29307213D01*
X115072287Y-29141611D01*
X115072421Y-29141349D01*
X115119516Y-29048919D01*
X115167489Y-28998125D01*
X115235310Y-28981329D01*
X115301445Y-29003866D01*
X115340485Y-29048920D01*
X115387715Y-29141613D01*
X115508028Y-29307213D01*
X115652786Y-29451971D01*
X115807749Y-29564556D01*
X115818390Y-29572287D01*
X115907212Y-29617544D01*
X116000776Y-29665218D01*
X116000778Y-29665218D01*
X116000781Y-29665220D01*
X116105137Y-29699127D01*
X116195465Y-29728477D01*
X116296557Y-29744488D01*
X116397648Y-29760500D01*
X116397649Y-29760500D01*
X116602351Y-29760500D01*
X116602352Y-29760500D01*
X116804534Y-29728477D01*
X116999219Y-29665220D01*
X117181610Y-29572287D01*
X117277901Y-29502328D01*
X117347213Y-29451971D01*
X117347215Y-29451968D01*
X117347219Y-29451966D01*
X117491966Y-29307219D01*
X117518330Y-29270930D01*
X117573658Y-29228265D01*
X117643271Y-29222284D01*
X117705067Y-29254889D01*
X117739426Y-29315726D01*
X117741938Y-29330559D01*
X117745907Y-29367480D01*
X117796202Y-29502328D01*
X117796206Y-29502335D01*
X117882452Y-29617544D01*
X117882455Y-29617547D01*
X117997664Y-29703793D01*
X117997671Y-29703797D01*
X118132517Y-29754091D01*
X118132516Y-29754091D01*
X118139444Y-29754835D01*
X118192127Y-29760500D01*
X119887872Y-29760499D01*
X119947483Y-29754091D01*
X120082331Y-29703796D01*
X120197546Y-29617546D01*
X120283796Y-29502331D01*
X120334091Y-29367483D01*
X120340500Y-29307873D01*
X120340499Y-27612128D01*
X120334091Y-27552517D01*
X120283796Y-27417669D01*
X120283795Y-27417668D01*
X120283793Y-27417664D01*
X120197547Y-27302455D01*
X120197544Y-27302452D01*
X120082335Y-27216206D01*
X120082328Y-27216202D01*
X119947482Y-27165908D01*
X119947483Y-27165908D01*
X119887883Y-27159501D01*
X119887881Y-27159500D01*
X119887873Y-27159500D01*
X119887864Y-27159500D01*
X118192129Y-27159500D01*
X118192123Y-27159501D01*
X118132516Y-27165908D01*
X117997671Y-27216202D01*
X117997664Y-27216206D01*
X117882455Y-27302452D01*
X117882452Y-27302455D01*
X117796206Y-27417664D01*
X117796202Y-27417671D01*
X117745908Y-27552516D01*
X117741939Y-27589440D01*
X117715201Y-27653991D01*
X117657809Y-27693839D01*
X117587983Y-27696332D01*
X117527895Y-27660679D01*
X117518332Y-27649070D01*
X117491967Y-27612782D01*
X117347213Y-27468028D01*
X117181613Y-27347715D01*
X117181612Y-27347714D01*
X117181610Y-27347713D01*
X117124653Y-27318691D01*
X116999223Y-27254781D01*
X116804534Y-27191522D01*
X116629995Y-27163878D01*
X116602352Y-27159500D01*
X116397648Y-27159500D01*
X116373329Y-27163351D01*
X116195465Y-27191522D01*
X116000776Y-27254781D01*
X115818386Y-27347715D01*
X115652786Y-27468028D01*
X115508028Y-27612786D01*
X115387712Y-27778389D01*
X115387711Y-27778391D01*
X115340484Y-27871079D01*
X115292510Y-27921875D01*
X115224689Y-27938670D01*
X115158554Y-27916132D01*
X115119515Y-27871079D01*
X115072288Y-27778391D01*
X115072288Y-27778390D01*
X115072286Y-27778387D01*
X115072285Y-27778385D01*
X114951972Y-27612786D01*
X114807214Y-27468028D01*
X114641614Y-27347715D01*
X114641613Y-27347714D01*
X114641611Y-27347713D01*
X114584654Y-27318691D01*
X114459224Y-27254781D01*
X114264535Y-27191522D01*
X114089996Y-27163878D01*
X114062353Y-27159500D01*
X113857649Y-27159500D01*
X113833330Y-27163351D01*
X113655466Y-27191522D01*
X113460777Y-27254781D01*
X113278387Y-27347715D01*
X113112787Y-27468028D01*
X112968029Y-27612786D01*
X112847714Y-27778388D01*
X112800204Y-27871631D01*
X112752230Y-27922426D01*
X112684408Y-27939221D01*
X112618274Y-27916683D01*
X112579235Y-27871630D01*
X112531859Y-27778650D01*
X112411582Y-27613105D01*
X112411582Y-27613104D01*
X112266895Y-27468417D01*
X112101349Y-27348140D01*
X111919029Y-27255244D01*
X111724413Y-27192009D01*
X111670000Y-27183390D01*
X111670000Y-28026988D01*
X111612993Y-27994075D01*
X111485826Y-27960000D01*
X111354174Y-27960000D01*
X111227007Y-27994075D01*
X111170000Y-28026988D01*
X111170000Y-27183390D01*
X111115586Y-27192009D01*
X110920970Y-27255244D01*
X110738650Y-27348140D01*
X110573105Y-27468417D01*
X110573104Y-27468417D01*
X110428417Y-27613104D01*
X110428417Y-27613105D01*
X110308140Y-27778650D01*
X110260765Y-27871629D01*
X110212790Y-27922425D01*
X110144969Y-27939220D01*
X110078834Y-27916682D01*
X110039795Y-27871629D01*
X109992419Y-27778650D01*
X109992287Y-27778390D01*
X109930858Y-27693839D01*
X109871971Y-27612786D01*
X109727213Y-27468028D01*
X109561613Y-27347715D01*
X109561612Y-27347714D01*
X109561610Y-27347713D01*
X109504653Y-27318691D01*
X109379223Y-27254781D01*
X109184534Y-27191522D01*
X109009995Y-27163878D01*
X108982352Y-27159500D01*
X108777648Y-27159500D01*
X108753329Y-27163351D01*
X108575465Y-27191522D01*
X108380776Y-27254781D01*
X108198386Y-27347715D01*
X108032786Y-27468028D01*
X107888028Y-27612786D01*
X107767715Y-27778386D01*
X107720485Y-27871080D01*
X107672510Y-27921876D01*
X107604689Y-27938671D01*
X107538554Y-27916134D01*
X107499515Y-27871080D01*
X107452419Y-27778650D01*
X107452287Y-27778390D01*
X107390858Y-27693839D01*
X107331971Y-27612786D01*
X107187213Y-27468028D01*
X107021613Y-27347715D01*
X107021612Y-27347714D01*
X107021610Y-27347713D01*
X106964653Y-27318691D01*
X106839223Y-27254781D01*
X106644534Y-27191522D01*
X106469995Y-27163878D01*
X106442352Y-27159500D01*
X106237648Y-27159500D01*
X106213329Y-27163351D01*
X106035465Y-27191522D01*
X105840776Y-27254781D01*
X105658386Y-27347715D01*
X105492786Y-27468028D01*
X105348028Y-27612786D01*
X105227715Y-27778386D01*
X105180485Y-27871080D01*
X105132510Y-27921876D01*
X105064689Y-27938671D01*
X104998554Y-27916134D01*
X104959515Y-27871080D01*
X104912419Y-27778650D01*
X104912287Y-27778390D01*
X104850858Y-27693839D01*
X104791971Y-27612786D01*
X104647213Y-27468028D01*
X104481613Y-27347715D01*
X104481612Y-27347714D01*
X104481610Y-27347713D01*
X104424653Y-27318691D01*
X104299223Y-27254781D01*
X104104534Y-27191522D01*
X103929995Y-27163878D01*
X103902352Y-27159500D01*
X103697648Y-27159500D01*
X103673329Y-27163351D01*
X103495465Y-27191522D01*
X103300776Y-27254781D01*
X103118386Y-27347715D01*
X102952786Y-27468028D01*
X102808028Y-27612786D01*
X102687712Y-27778389D01*
X102687711Y-27778391D01*
X102640483Y-27871081D01*
X102592509Y-27921877D01*
X102524688Y-27938672D01*
X102458553Y-27916134D01*
X102419514Y-27871081D01*
X102419513Y-27871080D01*
X102372286Y-27778390D01*
X102372284Y-27778387D01*
X102372283Y-27778385D01*
X102251970Y-27612786D01*
X102107212Y-27468028D01*
X101941612Y-27347715D01*
X101941611Y-27347714D01*
X101941609Y-27347713D01*
X101884652Y-27318691D01*
X101759222Y-27254781D01*
X101564533Y-27191522D01*
X101389994Y-27163878D01*
X101362351Y-27159500D01*
X101157647Y-27159500D01*
X101133328Y-27163351D01*
X100955464Y-27191522D01*
X100760775Y-27254781D01*
X100578385Y-27347715D01*
X100412785Y-27468028D01*
X100268027Y-27612786D01*
X100147711Y-27778389D01*
X100147710Y-27778391D01*
X100100483Y-27871079D01*
X100052509Y-27921875D01*
X99984688Y-27938670D01*
X99918553Y-27916132D01*
X99879514Y-27871079D01*
X99832287Y-27778391D01*
X99832287Y-27778390D01*
X99832285Y-27778387D01*
X99832284Y-27778385D01*
X99711971Y-27612786D01*
X99567213Y-27468028D01*
X99401613Y-27347715D01*
X99401612Y-27347714D01*
X99401610Y-27347713D01*
X99344653Y-27318691D01*
X99219223Y-27254781D01*
X99024534Y-27191522D01*
X98849995Y-27163878D01*
X98822352Y-27159500D01*
X98617648Y-27159500D01*
X98593329Y-27163351D01*
X98415465Y-27191522D01*
X98220776Y-27254781D01*
X98038386Y-27347715D01*
X97872786Y-27468028D01*
X97728028Y-27612786D01*
X97607715Y-27778386D01*
X97560485Y-27871080D01*
X97512510Y-27921876D01*
X97444689Y-27938671D01*
X97378554Y-27916134D01*
X97339515Y-27871080D01*
X97292419Y-27778650D01*
X97292287Y-27778390D01*
X97230858Y-27693839D01*
X97171971Y-27612786D01*
X97027213Y-27468028D01*
X96861613Y-27347715D01*
X96861612Y-27347714D01*
X96861610Y-27347713D01*
X96804653Y-27318691D01*
X96679223Y-27254781D01*
X96484534Y-27191522D01*
X96309995Y-27163878D01*
X96282352Y-27159500D01*
X96077648Y-27159500D01*
X96053329Y-27163351D01*
X95875465Y-27191522D01*
X95680776Y-27254781D01*
X95498386Y-27347715D01*
X95332786Y-27468028D01*
X95188028Y-27612786D01*
X95067715Y-27778386D01*
X95020485Y-27871080D01*
X94972510Y-27921876D01*
X94904689Y-27938671D01*
X94838554Y-27916134D01*
X94799515Y-27871080D01*
X94752419Y-27778650D01*
X94752287Y-27778390D01*
X94690858Y-27693839D01*
X94631971Y-27612786D01*
X94487213Y-27468028D01*
X94321613Y-27347715D01*
X94321612Y-27347714D01*
X94321610Y-27347713D01*
X94264653Y-27318691D01*
X94139223Y-27254781D01*
X93944534Y-27191522D01*
X93769995Y-27163878D01*
X93742352Y-27159500D01*
X93537648Y-27159500D01*
X93513329Y-27163351D01*
X93335465Y-27191522D01*
X93140776Y-27254781D01*
X92958386Y-27347715D01*
X92792786Y-27468028D01*
X92648028Y-27612786D01*
X92527712Y-27778389D01*
X92527711Y-27778391D01*
X92480484Y-27871079D01*
X92432510Y-27921875D01*
X92364689Y-27938670D01*
X92298554Y-27916132D01*
X92259515Y-27871079D01*
X92212288Y-27778391D01*
X92212288Y-27778390D01*
X92212286Y-27778387D01*
X92212285Y-27778385D01*
X92091972Y-27612786D01*
X91947214Y-27468028D01*
X91781614Y-27347715D01*
X91781613Y-27347714D01*
X91781611Y-27347713D01*
X91724654Y-27318691D01*
X91599224Y-27254781D01*
X91404535Y-27191522D01*
X91229996Y-27163878D01*
X91202353Y-27159500D01*
X90997649Y-27159500D01*
X90973330Y-27163351D01*
X90795466Y-27191522D01*
X90600777Y-27254781D01*
X90418387Y-27347715D01*
X90252787Y-27468028D01*
X90108029Y-27612786D01*
X89987713Y-27778389D01*
X89987712Y-27778391D01*
X89940484Y-27871081D01*
X89892510Y-27921877D01*
X89824689Y-27938672D01*
X89758554Y-27916134D01*
X89719515Y-27871081D01*
X89719514Y-27871080D01*
X89672287Y-27778390D01*
X89672285Y-27778387D01*
X89672284Y-27778385D01*
X89551971Y-27612786D01*
X89407213Y-27468028D01*
X89241613Y-27347715D01*
X89241612Y-27347714D01*
X89241610Y-27347713D01*
X89184653Y-27318691D01*
X89059223Y-27254781D01*
X88864534Y-27191522D01*
X88689995Y-27163878D01*
X88662352Y-27159500D01*
X88457648Y-27159500D01*
X88433329Y-27163351D01*
X88255465Y-27191522D01*
X88060776Y-27254781D01*
X87878386Y-27347715D01*
X87712786Y-27468028D01*
X87568028Y-27612786D01*
X87447715Y-27778386D01*
X87400485Y-27871080D01*
X87352510Y-27921876D01*
X87284689Y-27938671D01*
X87218554Y-27916134D01*
X87179515Y-27871080D01*
X87132419Y-27778650D01*
X87132287Y-27778390D01*
X87070858Y-27693839D01*
X87011971Y-27612786D01*
X86867213Y-27468028D01*
X86701613Y-27347715D01*
X86701612Y-27347714D01*
X86701610Y-27347713D01*
X86644653Y-27318691D01*
X86519223Y-27254781D01*
X86324534Y-27191522D01*
X86149995Y-27163878D01*
X86122352Y-27159500D01*
X85917648Y-27159500D01*
X85893329Y-27163351D01*
X85715465Y-27191522D01*
X85520776Y-27254781D01*
X85338386Y-27347715D01*
X85172786Y-27468028D01*
X85028028Y-27612786D01*
X84907715Y-27778386D01*
X84860485Y-27871080D01*
X84812510Y-27921876D01*
X84744689Y-27938671D01*
X84678554Y-27916134D01*
X84639515Y-27871080D01*
X84592419Y-27778650D01*
X84592287Y-27778390D01*
X84530858Y-27693839D01*
X84471971Y-27612786D01*
X84327213Y-27468028D01*
X84161613Y-27347715D01*
X84161612Y-27347714D01*
X84161610Y-27347713D01*
X84104653Y-27318691D01*
X83979223Y-27254781D01*
X83784534Y-27191522D01*
X83609995Y-27163878D01*
X83582352Y-27159500D01*
X83377648Y-27159500D01*
X83353329Y-27163351D01*
X83175465Y-27191522D01*
X82980776Y-27254781D01*
X82798386Y-27347715D01*
X82632786Y-27468028D01*
X82488028Y-27612786D01*
X82367715Y-27778386D01*
X82274781Y-27960776D01*
X82211522Y-28155465D01*
X82179500Y-28357648D01*
X72100500Y-28357648D01*
X72100500Y-25824500D01*
X72120185Y-25757461D01*
X72172989Y-25711706D01*
X72224500Y-25700500D01*
X170375500Y-25700500D01*
X170442539Y-25720185D01*
G37*
%TD.AperFunction*%
%TD*%
%TA.AperFunction,NonConductor*%
G36*
X89901445Y-29003864D02*
G01*
X89940485Y-29048918D01*
X89987716Y-29141613D01*
X90108029Y-29307213D01*
X90252787Y-29451971D01*
X90407750Y-29564556D01*
X90418391Y-29572287D01*
X90507213Y-29617544D01*
X90600777Y-29665218D01*
X90600779Y-29665218D01*
X90600782Y-29665220D01*
X90705138Y-29699127D01*
X90795466Y-29728477D01*
X90896558Y-29744488D01*
X90997649Y-29760500D01*
X90997650Y-29760500D01*
X91202352Y-29760500D01*
X91202353Y-29760500D01*
X91404535Y-29728477D01*
X91418843Y-29723827D01*
X91488683Y-29721831D01*
X91544843Y-29754077D01*
X94363181Y-32572415D01*
X94396666Y-32633738D01*
X94399500Y-32660096D01*
X94399500Y-42425049D01*
X94379815Y-42492088D01*
X94327011Y-42537843D01*
X94257853Y-42547787D01*
X94219206Y-42535534D01*
X94139226Y-42494782D01*
X93944534Y-42431522D01*
X93769995Y-42403878D01*
X93742352Y-42399500D01*
X93537648Y-42399500D01*
X93513329Y-42403351D01*
X93335465Y-42431522D01*
X93140776Y-42494781D01*
X92958386Y-42587715D01*
X92792786Y-42708028D01*
X92648028Y-42852786D01*
X92527715Y-43018386D01*
X92480485Y-43111080D01*
X92432510Y-43161876D01*
X92364689Y-43178671D01*
X92298554Y-43156134D01*
X92259515Y-43111080D01*
X92212419Y-43018650D01*
X92212287Y-43018390D01*
X92204556Y-43007749D01*
X92091971Y-42852786D01*
X91947213Y-42708028D01*
X91781613Y-42587715D01*
X91781612Y-42587714D01*
X91781610Y-42587713D01*
X91683735Y-42537843D01*
X91599223Y-42494781D01*
X91404534Y-42431522D01*
X91229995Y-42403878D01*
X91202352Y-42399500D01*
X90997648Y-42399500D01*
X90941652Y-42408369D01*
X90795464Y-42431523D01*
X90795457Y-42431524D01*
X90761817Y-42442455D01*
X90691976Y-42444450D01*
X90632144Y-42408369D01*
X90601316Y-42345668D01*
X90599500Y-42324524D01*
X90599500Y-34899945D01*
X90599500Y-34899943D01*
X90558577Y-34747216D01*
X90558577Y-34747215D01*
X90558577Y-34747214D01*
X90529639Y-34697095D01*
X90529637Y-34697092D01*
X90479520Y-34610284D01*
X90367716Y-34498480D01*
X90367715Y-34498479D01*
X90363385Y-34494149D01*
X90363374Y-34494139D01*
X85841416Y-29972181D01*
X85807931Y-29910858D01*
X85812915Y-29841166D01*
X85854787Y-29785233D01*
X85920251Y-29760816D01*
X85929097Y-29760500D01*
X86122351Y-29760500D01*
X86122352Y-29760500D01*
X86324534Y-29728477D01*
X86519219Y-29665220D01*
X86701610Y-29572287D01*
X86797901Y-29502328D01*
X86867213Y-29451971D01*
X86867215Y-29451968D01*
X86867219Y-29451966D01*
X87011966Y-29307219D01*
X87011968Y-29307215D01*
X87011971Y-29307213D01*
X87132284Y-29141614D01*
X87132286Y-29141611D01*
X87132287Y-29141610D01*
X87179516Y-29048917D01*
X87227489Y-28998123D01*
X87295310Y-28981328D01*
X87361445Y-29003865D01*
X87400483Y-29048917D01*
X87400486Y-29048921D01*
X87447715Y-29141614D01*
X87568028Y-29307213D01*
X87712786Y-29451971D01*
X87867749Y-29564556D01*
X87878390Y-29572287D01*
X87967212Y-29617544D01*
X88060776Y-29665218D01*
X88060778Y-29665218D01*
X88060781Y-29665220D01*
X88165137Y-29699127D01*
X88255465Y-29728477D01*
X88356557Y-29744488D01*
X88457648Y-29760500D01*
X88457649Y-29760500D01*
X88662351Y-29760500D01*
X88662352Y-29760500D01*
X88864534Y-29728477D01*
X89059219Y-29665220D01*
X89241610Y-29572287D01*
X89337901Y-29502328D01*
X89407213Y-29451971D01*
X89407215Y-29451968D01*
X89407219Y-29451966D01*
X89551966Y-29307219D01*
X89551968Y-29307215D01*
X89551971Y-29307213D01*
X89672286Y-29141611D01*
X89672287Y-29141610D01*
X89719516Y-29048917D01*
X89767489Y-28998123D01*
X89835310Y-28981327D01*
X89901445Y-29003864D01*
G37*
%TD.AperFunction*%
%TA.AperFunction,NonConductor*%
G36*
X110221445Y-44243865D02*
G01*
X110260485Y-44288919D01*
X110307715Y-44381614D01*
X110428028Y-44547213D01*
X110572786Y-44691971D01*
X110727749Y-44804556D01*
X110738390Y-44812287D01*
X110840499Y-44864314D01*
X110920776Y-44905218D01*
X110920778Y-44905218D01*
X110920781Y-44905220D01*
X111002817Y-44931875D01*
X111115465Y-44968477D01*
X111205688Y-44982767D01*
X111317648Y-45000500D01*
X111317649Y-45000500D01*
X111522351Y-45000500D01*
X111522352Y-45000500D01*
X111724534Y-44968477D01*
X111738842Y-44963827D01*
X111808682Y-44961831D01*
X111864841Y-44994076D01*
X113751284Y-46880520D01*
X113751286Y-46880521D01*
X113751290Y-46880524D01*
X113888211Y-46959575D01*
X113891502Y-46960938D01*
X113893851Y-46962831D01*
X113895254Y-46963641D01*
X113895127Y-46963859D01*
X113945907Y-47004778D01*
X113967973Y-47071072D01*
X113950695Y-47138771D01*
X113899559Y-47186383D01*
X113844052Y-47199500D01*
X105660098Y-47199500D01*
X105593059Y-47179815D01*
X105572417Y-47163181D01*
X103621416Y-45212181D01*
X103587931Y-45150858D01*
X103592915Y-45081166D01*
X103634787Y-45025233D01*
X103700251Y-45000816D01*
X103709097Y-45000500D01*
X103902351Y-45000500D01*
X103902352Y-45000500D01*
X104104534Y-44968477D01*
X104299219Y-44905220D01*
X104481610Y-44812287D01*
X104574590Y-44744732D01*
X104647213Y-44691971D01*
X104647215Y-44691968D01*
X104647219Y-44691966D01*
X104791966Y-44547219D01*
X104791968Y-44547215D01*
X104791971Y-44547213D01*
X104912284Y-44381614D01*
X104912286Y-44381611D01*
X104912287Y-44381610D01*
X104959516Y-44288917D01*
X105007489Y-44238123D01*
X105075310Y-44221328D01*
X105141445Y-44243865D01*
X105180485Y-44288919D01*
X105227715Y-44381614D01*
X105348028Y-44547213D01*
X105492786Y-44691971D01*
X105647749Y-44804556D01*
X105658390Y-44812287D01*
X105760499Y-44864314D01*
X105840776Y-44905218D01*
X105840778Y-44905218D01*
X105840781Y-44905220D01*
X105922817Y-44931875D01*
X106035465Y-44968477D01*
X106125688Y-44982767D01*
X106237648Y-45000500D01*
X106237649Y-45000500D01*
X106442351Y-45000500D01*
X106442352Y-45000500D01*
X106644534Y-44968477D01*
X106839219Y-44905220D01*
X107021610Y-44812287D01*
X107114590Y-44744732D01*
X107187213Y-44691971D01*
X107187215Y-44691968D01*
X107187219Y-44691966D01*
X107331966Y-44547219D01*
X107331968Y-44547215D01*
X107331971Y-44547213D01*
X107452284Y-44381614D01*
X107452286Y-44381611D01*
X107452287Y-44381610D01*
X107499516Y-44288917D01*
X107547489Y-44238123D01*
X107615310Y-44221328D01*
X107681445Y-44243865D01*
X107720485Y-44288919D01*
X107767715Y-44381614D01*
X107888028Y-44547213D01*
X108032786Y-44691971D01*
X108187749Y-44804556D01*
X108198390Y-44812287D01*
X108300499Y-44864314D01*
X108380776Y-44905218D01*
X108380778Y-44905218D01*
X108380781Y-44905220D01*
X108462817Y-44931875D01*
X108575465Y-44968477D01*
X108665688Y-44982767D01*
X108777648Y-45000500D01*
X108777649Y-45000500D01*
X108982351Y-45000500D01*
X108982352Y-45000500D01*
X109184534Y-44968477D01*
X109379219Y-44905220D01*
X109561610Y-44812287D01*
X109654590Y-44744732D01*
X109727213Y-44691971D01*
X109727215Y-44691968D01*
X109727219Y-44691966D01*
X109871966Y-44547219D01*
X109871968Y-44547215D01*
X109871971Y-44547213D01*
X109992284Y-44381614D01*
X109992286Y-44381611D01*
X109992287Y-44381610D01*
X110039516Y-44288917D01*
X110087489Y-44238123D01*
X110155310Y-44221328D01*
X110221445Y-44243865D01*
G37*
%TD.AperFunction*%
%TA.AperFunction,NonConductor*%
G36*
X123611446Y-50955042D02*
G01*
X123650482Y-51000093D01*
X123723614Y-51143620D01*
X123737058Y-51170005D01*
X123853115Y-51329746D01*
X123992753Y-51469384D01*
X124142234Y-51577986D01*
X124152499Y-51585444D01*
X124328439Y-51675091D01*
X124435417Y-51709850D01*
X124473549Y-51722240D01*
X124475819Y-51723792D01*
X124478563Y-51723989D01*
X124504490Y-51743397D01*
X124531225Y-51761678D01*
X124532295Y-51764211D01*
X124534497Y-51765859D01*
X124545814Y-51796199D01*
X124558423Y-51826036D01*
X124557953Y-51828746D01*
X124558915Y-51831323D01*
X124552031Y-51862970D01*
X124546508Y-51894883D01*
X124544469Y-51897731D01*
X124544064Y-51899596D01*
X124522913Y-51927851D01*
X124487585Y-51963180D01*
X124426263Y-51996666D01*
X124399903Y-51999500D01*
X122476355Y-51999500D01*
X122409316Y-51979815D01*
X122363561Y-51927011D01*
X122353617Y-51857853D01*
X122382642Y-51794297D01*
X122441420Y-51756523D01*
X122456957Y-51753027D01*
X122563763Y-51736110D01*
X122566108Y-51735348D01*
X122751561Y-51675091D01*
X122927501Y-51585444D01*
X123033288Y-51508586D01*
X123087246Y-51469384D01*
X123087248Y-51469381D01*
X123087252Y-51469379D01*
X123226879Y-51329752D01*
X123226881Y-51329748D01*
X123226884Y-51329746D01*
X123342941Y-51170005D01*
X123342940Y-51170005D01*
X123342944Y-51170001D01*
X123429517Y-51000093D01*
X123477490Y-50949300D01*
X123545311Y-50932505D01*
X123611446Y-50955042D01*
G37*
%TD.AperFunction*%
M02*
